{"glyphs":{"0":{"ha":694,"x_min":67,"x_max":628,"o":"m 347 -11 q 271 -4 308 -11 q 199 21 233 3 q 139 67 165 39 q 96 129 113 94 q 73 201 79 164 q 67 278 67 239 l 67 743 q 73 819 67 782 q 96 892 79 857 q 139 954 113 926 q 199 1000 165 982 q 271 1025 233 1018 q 347 1032 308 1032 q 424 1025 386 1032 q 495 1000 461 1018 q 556 954 529 982 q 599 892 582 926 q 622 819 615 857 q 628 743 628 782 l 628 278 q 622 201 628 239 q 599 129 615 164 q 556 67 582 94 q 495 21 529 39 q 424 -4 461 3 q 347 -11 386 -11 m 257 515 l 438 658 l 438 743 q 434 788 438 765 q 420 830 431 810 q 390 862 410 850 q 347 874 369 874 q 305 862 325 874 q 274 830 285 850 q 260 788 264 810 q 257 743 257 765 l 257 515 m 347 147 q 390 159 369 147 q 420 191 410 171 q 434 233 431 211 q 438 278 438 256 l 438 506 l 257 363 l 257 278 q 260 233 257 256 q 274 191 264 211 q 305 159 285 171 q 347 147 325 147 z "},"1":{"ha":694,"x_min":69,"x_max":483,"o":"m 294 0 l 294 839 l 169 715 l 69 799 l 294 1021 l 483 1021 l 483 0 l 294 0 z "},"2":{"ha":694,"x_min":75,"x_max":622,"o":"m 78 0 l 78 1 q 78 72 78 36 q 84 142 79 107 q 97 212 89 178 q 119 279 106 246 q 150 343 132 313 q 190 401 168 374 q 236 454 211 429 q 289 501 261 479 q 344 546 317 524 q 392 597 371 568 q 422 660 413 626 q 432 731 432 694 q 431 761 432 746 q 426 792 429 776 q 417 822 424 807 q 402 848 411 836 q 378 867 393 860 q 349 874 364 874 q 310 863 328 874 q 283 833 293 851 q 269 795 272 815 q 265 754 265 775 l 265 750 l 75 750 l 75 760 q 83 832 75 796 q 107 900 90 868 q 149 958 124 932 q 208 1002 175 985 q 276 1026 240 1019 q 349 1032 313 1032 q 426 1024 388 1032 q 497 997 464 1017 q 556 947 531 976 q 596 881 581 917 q 617 808 611 846 q 622 731 622 769 q 613 645 622 688 q 582 565 603 603 q 532 496 561 528 q 472 435 503 464 q 410 377 440 407 q 353 313 379 347 q 309 239 328 278 q 281 158 290 200 l 617 158 l 617 0 l 78 0 z "},"3":{"ha":694,"x_min":64,"x_max":639,"o":"m 351 -11 q 277 -5 314 -11 q 206 17 240 1 q 144 60 172 33 q 99 119 117 86 q 72 188 81 151 q 64 263 64 225 l 64 271 l 254 271 l 254 267 q 259 224 254 246 q 276 185 264 203 q 309 157 289 167 q 351 147 329 147 q 396 160 375 147 q 428 192 417 172 q 444 236 440 213 q 449 283 449 260 q 445 326 449 304 q 433 367 442 347 q 410 402 425 386 q 376 428 396 418 q 336 440 357 438 q 293 443 315 443 l 293 601 q 331 603 313 601 q 367 615 350 606 q 396 640 383 625 q 415 672 408 654 q 424 709 422 690 q 426 747 426 728 q 424 788 426 768 q 413 827 421 808 q 388 860 404 846 q 351 874 372 874 q 315 861 332 874 q 290 831 299 849 q 279 794 282 814 q 276 754 276 775 l 276 750 l 86 750 l 86 761 q 94 833 86 797 q 117 900 101 868 q 157 958 132 932 q 213 1001 182 985 q 280 1025 244 1018 q 351 1032 315 1032 q 424 1025 388 1032 q 491 1000 460 1018 q 547 954 522 982 q 586 894 571 926 q 609 826 601 861 q 617 754 617 790 q 610 686 617 719 q 588 623 603 653 q 549 568 572 593 q 497 525 526 543 q 558 481 531 507 q 603 422 585 454 q 631 352 622 389 q 639 278 639 315 q 631 201 639 239 q 605 129 622 164 q 560 67 588 94 q 499 21 533 39 q 428 -4 465 3 q 351 -11 390 -11 z "},"4":{"ha":694,"x_min":67,"x_max":617,"o":"m 364 0 l 364 247 l 67 247 l 67 406 l 353 1021 l 528 1021 l 242 406 l 364 406 l 364 586 l 553 586 l 553 406 l 617 406 l 617 247 l 553 247 l 553 0 l 364 0 z "},"5":{"ha":694,"x_min":75,"x_max":628,"o":"m 351 -11 q 281 -5 315 -11 q 214 17 246 1 q 156 58 182 33 q 113 114 131 83 q 87 178 96 144 q 75 249 78 213 l 267 249 q 273 213 268 231 q 288 179 278 194 q 315 156 299 164 q 351 147 332 147 q 385 158 369 147 q 410 184 400 168 q 424 218 419 200 q 433 254 429 236 q 437 290 436 272 q 438 326 438 308 q 437 364 438 346 q 433 399 436 382 q 426 434 431 417 q 412 467 421 451 q 388 494 403 483 q 356 506 374 506 q 326 501 340 506 q 301 486 311 497 q 285 460 290 475 q 279 431 279 446 l 89 431 l 89 1021 l 590 1021 l 590 863 l 279 863 l 279 657 q 317 663 297 661 q 356 664 336 664 q 438 653 397 664 q 510 619 478 643 q 567 561 543 596 q 604 488 590 526 q 623 409 618 450 q 628 326 628 368 q 623 244 628 285 q 603 164 618 203 q 565 91 589 125 q 507 33 540 57 q 433 -1 474 10 q 351 -11 392 -11 z "},"6":{"ha":694,"x_min":67,"x_max":628,"o":"m 347 -11 q 265 -1 306 -11 q 191 31 225 8 q 132 88 157 54 q 92 159 107 121 q 72 238 78 197 q 67 321 67 279 q 75 434 67 378 q 99 545 83 490 q 136 652 114 600 q 182 757 158 704 l 306 1021 l 510 1021 l 354 689 q 335 647 344 668 q 317 606 325 626 q 369 640 339 628 q 431 651 399 651 q 500 636 467 651 q 556 593 533 621 q 593 532 579 565 q 615 463 607 499 q 625 392 622 428 q 628 321 628 356 q 622 238 628 279 q 602 159 617 197 q 563 88 588 121 q 503 31 538 54 q 429 -1 469 8 q 347 -11 389 -11 m 347 147 q 381 157 365 147 q 407 181 397 167 q 423 213 417 196 q 433 249 429 231 q 437 285 436 267 q 438 321 438 303 q 437 357 438 339 q 433 392 436 375 q 423 427 429 410 q 407 460 417 444 q 381 484 397 475 q 347 493 365 493 q 308 481 326 493 q 281 449 290 468 q 266 410 271 431 q 258 368 261 389 l 257 340 l 257 321 q 258 285 257 303 q 262 249 258 267 q 272 213 265 231 q 288 181 278 196 q 313 157 297 167 q 347 147 329 147 z "},"7":{"ha":694,"x_min":78,"x_max":617,"o":"m 176 0 l 422 863 l 78 863 l 78 1021 l 617 1021 l 617 863 l 371 0 l 176 0 z "},"8":{"ha":694,"x_min":67,"x_max":628,"o":"m 347 -11 q 274 -5 311 -11 q 205 18 238 1 q 145 60 172 35 q 101 119 118 86 q 75 188 83 151 q 67 260 67 224 q 77 337 67 299 q 107 409 88 375 q 153 472 126 443 q 208 526 179 501 q 161 578 183 550 q 122 637 139 606 q 97 702 106 668 q 89 772 89 736 q 97 840 89 806 q 119 905 104 874 q 159 961 135 936 q 214 1003 183 986 q 278 1026 244 1019 q 347 1032 313 1032 q 416 1026 382 1032 q 481 1003 450 1019 q 535 961 511 986 q 575 905 560 936 q 598 840 590 874 q 606 772 606 806 q 597 702 606 736 q 572 637 589 668 q 533 578 556 606 q 486 526 511 550 q 542 472 515 501 q 588 409 568 443 q 617 337 607 375 q 628 260 628 299 q 619 188 628 224 q 594 119 611 151 q 549 60 576 86 q 490 18 522 35 q 420 -5 457 1 q 347 -11 383 -11 m 347 631 q 396 694 376 658 q 415 771 415 731 q 413 805 415 788 q 402 838 410 822 q 379 863 394 853 q 347 874 364 874 q 315 863 331 874 q 292 838 300 853 q 282 805 285 822 q 279 771 279 788 q 299 694 279 731 q 347 631 318 658 m 347 147 q 387 156 368 147 q 417 183 406 165 q 433 220 428 200 q 439 261 439 240 q 431 308 439 285 q 411 351 424 331 q 382 388 399 371 q 347 419 365 404 q 313 388 329 404 q 283 351 296 371 q 263 308 271 331 q 256 261 256 285 q 261 220 256 240 q 278 183 267 200 q 308 156 289 165 q 347 147 326 147 z "},"9":{"ha":694,"x_min":67,"x_max":628,"o":"m 185 0 l 340 332 q 360 374 350 353 q 378 415 369 394 q 326 381 356 393 q 264 369 296 369 q 194 385 228 369 q 138 428 161 400 q 101 489 115 456 q 80 558 88 522 q 69 629 72 593 q 67 700 67 665 q 72 783 67 742 q 92 862 78 824 q 132 933 107 900 q 191 990 157 967 q 265 1022 225 1013 q 347 1032 306 1032 q 429 1022 389 1032 q 503 990 469 1013 q 563 933 538 967 q 602 862 588 900 q 622 783 617 824 q 628 700 628 742 q 619 587 628 643 q 596 476 611 531 q 558 369 581 421 q 513 264 536 317 l 389 0 l 185 0 m 347 528 q 386 540 368 528 q 414 572 404 553 q 428 611 424 590 q 436 653 433 632 l 438 681 l 438 700 q 437 736 438 718 q 433 772 436 754 q 423 808 429 790 q 407 840 417 825 q 381 864 397 854 q 347 874 365 874 q 313 864 329 874 q 288 840 297 854 q 272 808 278 825 q 262 772 265 790 q 258 736 258 754 q 257 700 257 718 q 258 664 257 682 q 262 628 258 646 q 272 594 265 611 q 288 561 278 576 q 313 537 297 546 q 347 528 329 528 z "},"\r":{"ha":0,"x_min":0,"x_max":0,"o":""}," ":{"ha":694,"x_min":0,"x_max":0,"o":""},"!":{"ha":694,"x_min":211,"x_max":483,"o":"m 253 408 l 253 1021 l 442 1021 l 442 408 l 253 408 m 347 -11 q 293 -3 319 -11 q 247 25 267 6 q 219 71 228 44 q 211 125 211 97 q 219 179 211 153 q 247 225 228 206 q 293 253 267 244 q 347 261 319 261 q 401 253 375 261 q 447 225 428 244 q 475 179 467 206 q 483 125 483 153 q 475 71 483 97 q 447 25 467 44 q 401 -3 428 6 q 347 -11 375 -11 z "},"\"":{"ha":694,"x_min":104,"x_max":590,"o":"m 299 614 l 118 614 q 108 842 111 728 q 104 1072 104 957 l 313 1072 q 309 842 313 957 q 299 614 306 728 m 576 614 l 396 614 q 385 842 389 728 q 382 1072 382 957 l 590 1072 q 587 842 590 957 q 576 614 583 728 z "},"#":{"ha":694,"x_min":10,"x_max":685,"o":"m 114 25 l 114 238 l 10 238 l 10 396 l 114 396 l 114 625 l 10 625 l 10 783 l 114 783 l 114 996 l 278 996 l 278 783 l 417 783 l 417 996 l 581 996 l 581 783 l 685 783 l 685 625 l 581 625 l 581 396 l 685 396 l 685 238 l 581 238 l 581 25 l 417 25 l 417 238 l 278 238 l 278 25 l 114 25 m 278 396 l 417 396 l 417 625 l 278 625 l 278 396 z "},"$":{"ha":694,"x_min":64,"x_max":628,"o":"m 269 -149 l 269 46 q 185 78 225 56 q 117 138 144 101 q 77 218 90 174 q 64 308 64 263 l 64 322 l 254 322 l 254 315 q 256 285 254 300 q 264 257 258 271 q 278 231 269 243 q 300 210 288 218 l 300 440 q 215 489 256 461 q 144 555 175 517 q 95 640 113 593 q 78 735 78 686 q 90 818 78 778 q 128 891 103 858 q 192 944 154 924 q 269 974 229 965 l 269 1171 l 425 1171 l 425 974 q 506 940 468 964 q 570 881 544 917 q 608 801 596 844 q 619 713 619 757 l 619 699 l 429 699 l 429 706 q 428 733 429 719 q 422 759 426 746 q 411 785 418 772 q 394 807 404 797 l 394 586 l 396 586 l 396 585 q 484 536 442 564 q 558 470 526 508 q 609 384 590 432 q 628 286 628 336 q 614 201 628 243 q 572 127 600 160 q 506 74 544 94 q 425 46 467 54 l 425 -149 l 269 -149 m 300 649 l 300 808 q 276 775 283 796 q 268 733 268 754 q 276 688 268 710 q 300 649 285 665 m 394 208 q 426 242 415 219 q 438 289 438 264 q 426 340 438 315 q 394 385 414 365 l 394 208 z "},"%":{"ha":694,"x_min":28,"x_max":667,"o":"m 193 500 q 128 509 160 500 q 72 540 96 518 q 38 594 49 563 q 28 660 28 626 l 28 872 q 38 936 28 904 q 72 991 49 968 q 128 1023 96 1014 q 193 1032 160 1032 q 258 1023 226 1032 q 314 991 290 1014 q 348 936 338 968 q 358 872 358 904 l 358 660 q 348 594 358 626 q 314 540 338 563 q 258 509 290 518 q 193 500 226 500 m 400 597 l 485 1021 l 656 1021 l 540 597 l 400 597 m 193 617 q 206 622 200 617 q 214 633 211 626 q 217 646 217 639 q 218 660 218 653 l 218 872 q 217 886 218 879 q 214 899 217 893 q 206 910 211 906 q 193 915 200 915 q 181 910 186 915 q 172 899 175 906 q 169 886 169 893 q 168 872 168 879 l 168 660 q 169 646 168 653 q 172 633 169 639 q 181 622 175 626 q 193 617 186 617 m 501 -11 q 436 -2 468 -11 q 381 30 404 7 q 347 85 357 53 q 336 150 336 117 l 336 361 q 347 426 336 394 q 381 481 357 458 q 436 512 404 503 q 501 521 468 521 q 567 512 535 521 q 622 481 599 503 q 656 426 646 458 q 667 361 667 394 l 667 150 q 656 85 667 117 q 622 30 646 53 q 567 -2 599 7 q 501 -11 535 -11 m 39 0 l 154 424 l 294 424 l 210 0 l 39 0 m 501 106 q 514 110 508 106 q 522 122 519 115 q 526 135 525 128 q 526 150 526 142 l 526 361 q 526 375 526 368 q 522 388 525 382 q 514 399 519 394 q 501 404 508 404 q 489 399 494 404 q 481 388 483 394 q 477 375 478 382 q 476 361 476 368 l 476 150 q 477 135 476 142 q 481 122 478 128 q 489 110 483 115 q 501 106 494 106 z "},"&":{"ha":694,"x_min":67,"x_max":689,"o":"m 304 -11 q 237 -3 271 -11 q 174 25 203 6 q 125 73 146 44 q 92 133 104 101 q 73 199 79 165 q 67 267 67 233 q 75 342 67 306 q 101 413 83 379 q 142 477 118 447 q 194 532 167 507 q 161 591 178 561 q 132 652 144 621 q 112 717 119 683 q 104 785 104 750 q 110 847 104 815 q 130 907 117 878 q 164 961 143 936 q 212 1002 185 986 q 270 1025 239 1018 q 333 1032 301 1032 q 397 1025 365 1032 q 455 1002 428 1018 q 503 961 482 986 q 536 907 524 936 q 555 847 549 878 q 561 783 561 815 q 550 701 561 742 q 517 624 539 660 q 466 557 496 588 q 404 500 436 526 q 408 494 406 497 q 413 486 410 490 l 486 357 l 525 454 l 688 454 l 599 228 q 590 207 594 217 q 582 188 586 197 l 689 0 l 499 0 l 458 69 q 401 15 436 38 q 326 -10 367 -7 l 304 -11 m 322 636 q 370 703 351 665 q 389 783 389 742 q 387 817 389 800 q 379 849 385 833 q 361 876 374 864 q 333 889 349 889 q 305 876 317 889 q 288 847 293 863 q 279 815 282 832 q 276 782 276 799 q 290 706 276 743 q 322 636 303 669 m 333 132 q 371 142 353 132 q 403 168 389 153 l 279 386 q 249 330 260 360 q 239 268 239 300 q 243 222 239 244 q 258 178 247 199 q 290 145 269 158 q 333 132 310 132 z "},"'":{"ha":694,"x_min":243,"x_max":451,"o":"m 438 614 l 257 614 q 247 842 250 728 q 243 1072 243 957 l 451 1072 q 448 842 451 957 q 438 614 444 728 z "},"(":{"ha":694,"x_min":136,"x_max":592,"o":"m 496 -224 q 384 -145 436 -190 q 290 -45 332 -100 q 219 72 249 10 q 170 200 189 133 q 144 335 151 267 q 136 472 136 404 q 144 609 136 540 q 170 744 151 678 q 219 873 189 811 q 290 990 249 935 q 384 1090 332 1044 q 496 1168 436 1135 l 592 1032 q 469 926 522 989 q 385 789 417 864 q 340 633 353 714 q 326 472 326 553 q 340 311 326 392 q 385 156 353 231 q 469 18 417 81 q 592 -87 522 -44 l 496 -224 z "},")":{"ha":694,"x_min":103,"x_max":558,"o":"m 199 -224 l 103 -87 q 225 18 172 -44 q 310 156 278 81 q 355 311 342 231 q 368 472 368 392 q 355 633 368 553 q 310 789 342 714 q 225 926 278 864 q 103 1032 172 989 l 199 1168 q 310 1090 258 1135 q 404 990 363 1044 q 476 873 446 935 q 524 744 506 811 q 551 609 543 678 q 558 472 558 540 q 551 335 558 404 q 524 200 543 267 q 476 72 506 133 q 404 -45 446 10 q 310 -145 363 -100 q 199 -224 258 -190 z "},"*":{"ha":694,"x_min":40,"x_max":654,"o":"m 253 560 l 99 653 l 226 807 l 40 857 l 99 1007 l 265 943 l 253 1133 l 442 1133 l 429 943 l 596 1007 l 654 857 l 468 807 l 596 653 l 442 560 l 347 708 l 253 560 z "},"+":{"ha":694,"x_min":78,"x_max":617,"o":"m 265 192 l 265 404 l 78 404 l 78 540 l 265 540 l 265 753 l 429 753 l 429 540 l 617 540 l 617 404 l 429 404 l 429 192 l 265 192 z "},",":{"ha":694,"x_min":165,"x_max":497,"o":"m 278 -299 l 165 -196 q 257 -111 214 -157 q 329 -11 300 -65 q 275 3 301 -8 q 231 35 249 14 q 205 83 213 56 q 197 139 197 111 q 206 199 197 169 q 237 249 215 228 q 288 280 258 271 q 347 289 317 289 q 408 280 378 289 q 459 249 438 271 q 489 197 481 226 q 497 136 497 167 q 479 13 497 74 q 431 -102 461 -47 q 361 -206 400 -157 q 278 -299 322 -254 z "},"-":{"ha":694,"x_min":78,"x_max":617,"o":"m 78 393 l 78 551 l 617 551 l 617 393 l 78 393 z "},".":{"ha":694,"x_min":197,"x_max":497,"o":"m 347 -11 q 288 -2 317 -11 q 237 28 258 7 q 206 79 215 50 q 197 139 197 108 q 206 199 197 169 q 237 249 215 228 q 288 280 258 271 q 347 289 317 289 q 407 280 378 289 q 458 249 436 271 q 488 199 479 228 q 497 139 497 169 q 488 79 497 108 q 458 28 479 50 q 407 -2 436 7 q 347 -11 378 -11 z "},"/":{"ha":694,"x_min":61,"x_max":633,"o":"m 253 -199 l 61 -199 l 442 1143 l 633 1143 l 253 -199 z "},":":{"ha":694,"x_min":197,"x_max":497,"o":"m 347 -11 q 288 -2 317 -11 q 237 28 258 7 q 206 79 215 50 q 197 139 197 108 q 206 199 197 169 q 237 249 215 228 q 288 280 258 271 q 347 289 317 289 q 407 280 378 289 q 458 249 436 271 q 488 199 479 228 q 497 139 497 169 q 488 79 497 108 q 458 28 479 50 q 407 -2 436 7 q 347 -11 378 -11 m 347 433 q 288 442 317 433 q 237 473 258 451 q 206 524 215 494 q 197 583 197 553 q 206 643 197 614 q 237 694 215 672 q 288 724 258 715 q 347 733 317 733 q 407 724 378 733 q 458 694 436 715 q 488 643 479 672 q 497 583 497 614 q 488 524 497 553 q 458 473 479 494 q 407 442 436 451 q 347 433 378 433 z "},";":{"ha":694,"x_min":165,"x_max":497,"o":"m 278 -299 l 165 -196 q 257 -111 214 -157 q 329 -11 300 -65 q 275 3 301 -8 q 231 35 249 14 q 205 83 213 56 q 197 139 197 111 q 206 199 197 169 q 237 249 215 228 q 288 280 258 271 q 347 289 317 289 q 408 280 378 289 q 459 249 438 271 q 489 197 481 226 q 497 136 497 167 q 479 13 497 74 q 431 -102 461 -47 q 361 -206 400 -157 q 278 -299 322 -254 m 347 433 q 288 442 317 433 q 237 473 258 451 q 206 524 215 494 q 197 583 197 553 q 206 643 197 614 q 237 694 215 672 q 288 724 258 715 q 347 733 317 733 q 407 724 378 733 q 458 694 436 715 q 488 643 479 672 q 497 583 497 614 q 488 524 497 553 q 458 473 479 494 q 407 442 436 451 q 347 433 378 433 z "},"<":{"ha":694,"x_min":78,"x_max":660,"o":"m 574 82 l 78 392 l 78 553 l 574 863 l 660 746 l 210 472 l 660 199 l 574 82 z "},"=":{"ha":694,"x_min":78,"x_max":617,"o":"m 78 533 l 78 669 l 617 669 l 617 533 l 78 533 m 78 275 l 78 411 l 617 411 l 617 275 l 78 275 z "},">":{"ha":694,"x_min":35,"x_max":617,"o":"m 121 82 l 35 199 l 485 472 l 35 746 l 121 863 l 617 553 l 617 392 l 121 82 z "},"?":{"ha":694,"x_min":75,"x_max":617,"o":"m 253 375 q 254 431 253 403 q 263 485 256 458 q 284 537 271 513 q 314 583 297 561 q 350 626 331 606 q 387 667 369 646 q 416 715 404 689 q 428 768 428 740 q 423 806 428 788 q 408 840 418 824 q 381 865 399 856 q 346 874 364 874 q 309 863 326 874 q 282 833 292 851 q 269 796 272 815 q 265 756 265 776 l 265 750 l 75 750 l 75 764 q 83 835 75 800 q 107 903 90 871 q 149 960 124 935 q 207 1003 175 986 q 274 1026 239 1019 q 346 1032 310 1032 q 417 1026 382 1032 q 484 1003 453 1019 q 541 963 515 988 q 583 906 567 938 q 608 839 600 874 q 617 768 617 804 q 612 713 617 740 q 597 660 607 686 q 572 611 586 635 q 541 565 558 588 q 504 523 524 543 q 469 480 485 503 q 448 430 454 457 q 442 375 442 403 l 253 375 m 347 -11 q 293 -3 319 -11 q 247 25 267 6 q 219 71 228 44 q 211 125 211 97 q 219 179 211 153 q 247 225 228 206 q 293 253 267 244 q 347 261 319 261 q 401 253 375 261 q 447 225 428 244 q 475 179 467 206 q 483 125 483 153 q 475 71 483 97 q 447 25 467 44 q 401 -3 428 6 q 347 -11 375 -11 z "},"@":{"ha":694,"x_min":78,"x_max":617,"o":"m 538 -114 l 347 -114 q 270 -105 308 -114 q 199 -76 232 -96 q 142 -24 165 -56 q 103 43 118 7 q 83 118 89 79 q 78 196 78 157 l 78 749 q 83 826 78 788 q 103 901 89 865 q 141 969 117 938 q 199 1021 165 1000 q 270 1050 232 1042 q 347 1058 308 1058 q 421 1051 385 1058 q 489 1024 457 1043 q 546 977 521 1006 q 586 915 571 949 q 608 844 601 881 q 617 771 615 808 l 617 333 q 614 281 617 307 q 603 231 611 256 q 580 183 594 206 q 545 146 565 161 q 499 124 525 131 q 449 117 474 117 q 397 124 422 117 q 351 146 371 131 q 316 183 331 161 q 294 231 301 206 q 283 281 286 256 q 279 333 279 307 l 279 554 q 283 607 279 581 q 295 658 286 633 q 319 705 304 683 q 355 742 333 726 q 403 764 376 757 q 456 771 429 771 l 476 771 q 465 821 474 796 q 440 864 457 846 q 397 891 422 882 q 347 900 372 900 q 292 889 319 900 q 248 856 265 878 q 224 805 231 833 q 218 749 218 776 l 218 196 q 224 140 218 168 q 248 89 231 111 q 292 56 265 67 q 347 44 319 44 l 538 44 l 538 -114 m 449 233 q 462 242 457 233 q 469 260 467 251 q 473 278 472 269 q 475 297 474 288 q 476 315 476 306 q 476 333 476 324 l 476 654 l 456 654 q 440 646 446 654 q 430 629 433 638 q 424 611 426 621 q 422 592 422 601 q 420 574 421 583 q 419 554 419 564 l 419 333 q 420 315 419 324 q 422 297 421 306 q 424 278 422 288 q 427 260 425 269 q 434 242 429 251 q 449 233 439 233 z "},"A":{"ha":694,"x_min":46,"x_max":649,"o":"m 46 0 l 238 1021 l 457 1021 l 649 0 l 456 0 l 428 203 l 267 203 l 239 0 l 46 0 m 289 361 l 406 361 l 363 681 q 355 733 358 707 q 347 785 351 758 q 340 733 343 758 q 332 681 336 707 l 289 361 z "},"B":{"ha":694,"x_min":78,"x_max":639,"o":"m 328 0 l 78 0 l 78 1021 l 328 1021 q 402 1014 365 1021 q 472 990 439 1007 q 530 944 504 972 q 572 883 556 917 q 595 813 589 850 q 601 739 601 776 q 597 679 601 708 q 580 622 592 650 q 548 572 568 594 q 504 533 528 549 q 563 492 536 517 q 608 438 590 468 q 632 371 625 407 q 639 300 639 335 q 631 218 639 258 q 604 142 624 178 q 554 77 585 106 q 487 31 524 49 q 409 7 450 14 q 328 0 368 0 m 268 607 l 328 607 q 368 619 350 607 q 396 651 386 632 q 408 692 406 671 q 411 735 411 714 q 408 778 411 757 q 396 819 406 800 q 367 850 386 838 q 328 863 349 863 l 268 863 l 268 607 m 268 158 l 328 158 q 380 169 354 158 q 422 201 406 179 q 443 249 438 222 q 449 303 449 276 q 443 356 449 329 q 422 405 438 383 q 380 438 406 426 q 328 449 354 449 l 268 449 l 268 158 z "},"C":{"ha":694,"x_min":67,"x_max":619,"o":"m 343 -11 q 265 -3 304 -11 q 192 26 226 6 q 133 77 158 46 q 93 144 108 108 q 72 220 78 181 q 67 299 67 260 l 67 722 q 72 801 67 761 q 93 876 78 840 q 133 944 108 913 q 192 995 158 975 q 265 1024 226 1015 q 343 1032 304 1032 q 416 1026 379 1032 q 485 1002 453 1019 q 544 958 518 985 q 586 899 569 932 q 611 831 603 867 q 619 758 619 794 l 619 750 l 429 750 l 429 753 q 425 794 429 774 q 410 833 421 815 q 382 863 400 851 q 343 874 364 874 q 312 866 326 874 q 288 846 297 858 q 272 818 278 833 q 262 787 265 803 q 258 755 258 771 q 257 722 257 739 l 257 299 q 258 266 257 282 q 262 234 258 250 q 272 203 265 218 q 288 175 278 188 q 312 155 297 163 q 343 147 326 147 q 382 158 364 147 q 410 188 400 169 q 425 226 421 206 q 429 268 429 247 l 429 271 l 619 271 l 619 263 q 611 190 619 226 q 586 122 603 154 q 544 63 569 89 q 485 19 518 36 q 416 -5 453 1 q 343 -11 379 -11 z "},"D":{"ha":694,"x_min":78,"x_max":628,"o":"m 78 0 l 78 1021 l 289 1021 q 378 1013 333 1021 q 463 987 422 1006 q 536 937 503 968 q 590 866 569 906 q 619 782 611 826 q 628 692 628 738 l 628 329 q 619 239 628 283 q 590 155 611 194 q 536 84 569 115 q 463 34 503 53 q 378 8 422 15 q 288 0 333 0 l 78 0 m 268 158 l 289 158 q 351 170 321 158 q 402 207 382 182 q 430 264 422 232 q 438 329 438 296 l 438 693 q 430 757 438 725 q 402 814 422 789 q 351 851 382 839 q 288 863 321 863 l 268 863 l 268 158 z "},"E":{"ha":694,"x_min":89,"x_max":617,"o":"m 89 0 l 89 1021 l 617 1021 l 617 863 l 279 863 l 279 610 l 536 610 l 536 451 l 279 451 l 279 158 l 617 158 l 617 0 l 89 0 z "},"F":{"ha":694,"x_min":117,"x_max":617,"o":"m 117 0 l 117 1021 l 617 1021 l 617 863 l 307 863 l 307 610 l 536 610 l 536 451 l 307 451 l 307 0 l 117 0 z "},"G":{"ha":694,"x_min":67,"x_max":619,"o":"m 258 -11 q 192 3 224 -11 q 138 42 160 17 q 101 99 115 68 q 80 164 88 131 q 69 231 72 197 q 67 299 67 265 l 67 722 q 72 801 67 761 q 93 876 78 840 q 133 944 108 913 q 192 995 158 975 q 265 1024 226 1015 q 343 1032 304 1032 q 417 1026 381 1032 q 485 1002 453 1019 q 544 958 518 985 q 586 899 569 932 q 611 831 603 867 q 619 758 619 794 l 619 750 l 429 750 l 429 753 q 425 794 429 774 q 410 833 421 815 q 382 863 400 851 q 343 874 364 874 q 312 866 326 874 q 288 846 297 858 q 272 818 278 833 q 262 787 265 803 q 258 755 258 771 q 257 722 257 739 l 257 299 q 258 266 257 282 q 262 235 258 250 q 271 204 265 219 q 286 176 276 189 q 310 155 296 163 q 342 147 325 147 q 373 155 358 147 q 397 176 388 163 q 413 203 407 189 q 422 234 418 218 q 426 266 425 250 q 426 299 426 282 l 426 413 l 347 413 l 347 571 l 617 571 l 617 0 l 438 0 l 438 172 q 417 106 431 139 q 381 45 404 72 q 326 3 358 18 q 258 -11 293 -11 z "},"H":{"ha":694,"x_min":78,"x_max":617,"o":"m 78 0 l 78 1021 l 268 1021 l 268 601 l 426 601 l 426 1021 l 617 1021 l 617 0 l 426 0 l 426 443 l 268 443 l 268 0 l 78 0 z "},"I":{"ha":694,"x_min":104,"x_max":590,"o":"m 104 0 l 104 158 l 253 158 l 253 863 l 104 863 l 104 1021 l 590 1021 l 590 863 l 442 863 l 442 158 l 590 158 l 590 0 l 104 0 z "},"J":{"ha":694,"x_min":56,"x_max":567,"o":"m 311 -11 q 241 -4 276 -11 q 176 21 206 3 q 122 66 146 39 q 84 126 99 93 q 63 193 69 158 q 56 263 56 228 l 56 271 l 246 271 l 246 268 q 248 230 246 249 q 257 193 250 211 q 278 161 264 175 q 311 147 292 147 q 338 158 326 147 q 357 181 350 168 q 367 209 364 194 q 374 238 371 224 q 377 268 376 253 q 378 299 378 283 l 378 863 l 229 863 l 229 1021 l 567 1021 l 567 299 q 563 223 567 261 q 545 149 558 185 q 509 82 532 114 q 455 28 486 50 q 387 -2 424 7 q 311 -11 350 -11 z "},"K":{"ha":694,"x_min":100,"x_max":644,"o":"m 446 0 l 308 368 l 289 332 l 289 0 l 100 0 l 100 1021 l 289 1021 l 289 676 l 443 1021 l 644 1021 l 404 554 l 644 0 l 446 0 z "},"L":{"ha":694,"x_min":117,"x_max":625,"o":"m 117 0 l 117 1021 l 307 1021 l 307 158 l 625 158 l 625 0 l 117 0 z "},"M":{"ha":694,"x_min":51,"x_max":643,"o":"m 51 0 l 51 1021 l 229 1021 l 347 542 l 465 1021 l 643 1021 l 643 0 l 471 0 l 471 204 q 473 331 471 268 q 480 457 475 394 q 491 583 485 519 q 504 708 497 646 l 404 307 l 290 307 l 190 708 q 203 583 197 646 q 215 457 210 519 q 222 331 219 394 q 224 204 224 268 l 224 0 l 51 0 z "},"N":{"ha":694,"x_min":78,"x_max":617,"o":"m 78 0 l 78 1021 l 249 1021 l 435 440 q 428 526 431 483 q 426 613 426 569 l 426 1021 l 617 1021 l 617 0 l 446 0 l 260 581 q 266 494 264 538 q 268 408 268 451 l 268 0 l 78 0 z "},"O":{"ha":694,"x_min":67,"x_max":628,"o":"m 347 -11 q 268 -3 307 -11 q 195 26 229 6 q 135 76 161 46 q 94 144 110 107 q 72 219 78 181 q 67 299 67 258 l 67 722 q 72 801 67 763 q 94 877 78 840 q 135 944 110 914 q 195 995 161 975 q 268 1024 229 1015 q 347 1032 307 1032 q 426 1024 388 1032 q 499 995 465 1015 q 559 944 533 975 q 601 877 585 914 q 622 801 617 840 q 628 722 628 763 l 628 299 q 622 219 628 258 q 601 144 617 181 q 559 76 585 107 q 499 26 533 46 q 426 -3 465 6 q 347 -11 388 -11 m 347 147 q 379 154 364 147 q 405 174 394 161 q 422 201 415 186 q 431 233 428 217 q 436 266 435 250 q 438 299 438 282 l 438 722 q 436 755 438 739 q 431 788 435 771 q 422 819 428 804 q 405 847 415 835 q 379 867 394 860 q 347 874 364 874 q 315 867 331 874 q 290 847 300 860 q 273 819 279 835 q 263 788 267 804 q 258 755 260 771 q 257 722 257 739 l 257 299 q 258 266 257 282 q 263 233 260 250 q 273 201 267 217 q 290 174 279 186 q 315 154 300 161 q 347 147 331 147 z "},"P":{"ha":694,"x_min":97,"x_max":639,"o":"m 97 0 l 97 1021 l 353 1021 q 433 1013 393 1021 q 508 983 474 1004 q 569 931 543 963 q 612 861 596 899 q 633 783 628 824 q 639 701 639 742 q 633 620 639 661 q 612 542 628 579 q 569 473 596 504 q 508 421 543 442 q 433 391 474 400 q 353 382 393 382 l 288 382 l 288 0 l 97 0 m 353 540 q 387 548 371 540 q 414 569 403 556 q 432 599 425 582 q 442 632 439 615 q 447 666 446 649 q 449 701 449 683 q 447 737 449 719 q 442 771 446 754 q 432 804 439 788 q 414 834 425 821 q 387 855 403 847 q 353 863 371 863 l 288 863 l 288 540 l 353 540 z "},"Q":{"ha":694,"x_min":67,"x_max":628,"o":"m 543 -271 q 472 -265 507 -271 q 403 -242 436 -258 q 345 -201 371 -226 q 303 -143 319 -175 q 279 -76 286 -111 q 272 -4 272 -40 q 210 18 240 3 q 155 56 179 33 q 113 107 131 78 q 85 167 96 136 q 70 232 74 199 q 67 299 67 265 l 67 722 q 72 801 67 763 q 94 877 78 840 q 135 944 110 914 q 195 995 161 975 q 268 1024 229 1015 q 347 1032 307 1032 q 426 1024 388 1032 q 499 995 465 1015 q 559 944 533 975 q 601 877 585 914 q 622 801 617 840 q 628 722 628 763 l 628 299 q 620 210 628 254 q 592 125 613 165 q 538 54 572 85 q 463 7 504 24 l 463 0 q 466 -39 463 -19 q 479 -76 469 -58 q 506 -103 489 -93 q 543 -112 524 -112 l 583 -112 l 583 -271 l 543 -271 m 347 147 q 379 154 364 147 q 405 174 394 161 q 422 201 415 186 q 431 233 428 217 q 436 266 435 250 q 438 299 438 282 l 438 722 q 436 755 438 739 q 431 788 435 771 q 422 819 428 804 q 405 847 415 835 q 379 867 394 860 q 347 874 364 874 q 315 867 331 874 q 290 847 300 860 q 273 819 279 835 q 263 788 267 804 q 258 755 260 771 q 257 722 257 739 l 257 299 q 258 266 257 282 q 263 233 260 250 q 273 201 267 217 q 290 174 279 186 q 315 154 300 161 q 347 147 331 147 z "},"R":{"ha":694,"x_min":78,"x_max":650,"o":"m 78 0 l 78 1021 l 353 1021 q 432 1012 393 1021 q 505 981 471 1003 q 563 928 539 960 q 602 858 588 896 q 622 781 617 821 q 628 701 628 742 q 621 613 628 657 q 596 530 614 569 q 547 458 578 490 q 476 407 517 425 l 650 0 l 449 0 l 286 382 l 268 382 l 268 0 l 78 0 m 353 540 q 385 549 369 540 q 409 572 400 558 q 424 602 418 586 q 433 635 429 618 q 437 668 436 651 q 438 701 438 685 q 437 735 438 718 q 433 768 436 751 q 424 801 429 785 q 409 831 418 817 q 385 854 400 846 q 353 863 369 863 l 268 863 l 268 540 l 353 540 z "},"S":{"ha":694,"x_min":64,"x_max":628,"o":"m 346 -11 q 273 -5 310 -11 q 203 17 236 1 q 143 58 171 33 q 98 116 115 83 q 72 184 81 149 q 64 257 64 219 l 64 271 l 254 271 l 254 265 q 259 222 254 243 q 275 184 264 201 q 306 157 286 167 q 346 147 325 147 q 385 156 367 147 q 416 182 404 165 q 433 219 428 199 q 438 258 438 239 q 425 323 438 292 q 390 378 413 354 q 338 418 367 401 q 281 451 310 435 q 226 486 253 467 q 177 529 200 506 q 135 580 154 553 q 103 637 117 607 q 84 699 90 667 q 78 765 78 732 q 85 835 78 800 q 110 903 93 871 q 152 960 126 935 q 210 1003 178 986 q 277 1026 242 1019 q 349 1032 313 1032 q 420 1026 385 1032 q 488 1003 456 1019 q 545 960 519 986 q 588 903 571 935 q 612 835 604 871 q 619 764 619 800 l 619 750 l 429 750 l 429 756 q 426 796 429 776 q 413 833 422 815 q 385 863 403 851 q 349 874 368 874 q 312 864 329 874 q 285 838 294 854 q 272 801 275 821 q 268 763 268 782 q 278 705 268 733 q 307 653 288 676 q 351 614 326 631 q 403 582 376 597 q 490 526 449 557 q 563 452 532 494 q 611 359 594 410 q 628 257 628 308 q 619 184 628 219 q 594 116 611 149 q 549 58 576 83 q 488 17 521 33 q 419 -5 456 1 q 346 -11 382 -11 z "},"T":{"ha":694,"x_min":69,"x_max":625,"o":"m 253 0 l 253 863 l 69 863 l 69 1021 l 625 1021 l 625 863 l 442 863 l 442 0 l 253 0 z "},"U":{"ha":694,"x_min":78,"x_max":617,"o":"m 347 -11 q 270 -3 308 -11 q 199 26 232 6 q 141 78 165 47 q 103 146 117 110 q 83 221 89 182 q 78 299 78 260 l 78 1021 l 268 1021 l 268 299 q 269 267 268 283 q 272 236 269 251 q 281 206 275 221 q 294 177 286 190 q 317 156 303 164 q 347 147 332 147 q 377 156 363 147 q 400 177 392 164 q 414 206 408 190 q 422 236 419 221 q 426 267 425 251 q 426 299 426 283 l 426 1021 l 617 1021 l 617 299 q 611 221 617 260 q 592 146 606 182 q 553 78 578 110 q 496 26 529 47 q 424 -3 463 6 q 347 -11 386 -11 z "},"V":{"ha":694,"x_min":46,"x_max":649,"o":"m 238 0 l 46 1021 l 239 1021 l 332 340 q 340 288 336 314 q 347 236 343 263 q 355 288 351 263 q 363 340 358 314 l 456 1021 l 649 1021 l 457 0 l 238 0 z "},"W":{"ha":694,"x_min":29,"x_max":665,"o":"m 146 0 l 29 1021 l 201 1021 l 229 333 l 276 735 l 418 735 l 465 333 l 493 1021 l 665 1021 l 549 0 l 408 0 l 347 467 l 286 0 l 146 0 z "},"X":{"ha":694,"x_min":43,"x_max":651,"o":"m 249 0 l 43 0 l 264 510 l 43 1021 l 249 1021 l 347 739 l 446 1021 l 651 1021 l 431 511 l 651 0 l 446 0 l 347 282 l 249 0 z "},"Y":{"ha":694,"x_min":40,"x_max":654,"o":"m 253 0 l 253 446 l 40 1021 l 242 1021 l 347 672 l 453 1021 l 654 1021 l 442 446 l 442 0 l 253 0 z "},"Z":{"ha":694,"x_min":78,"x_max":617,"o":"m 78 0 l 78 158 l 399 863 l 78 863 l 78 1021 l 617 1021 l 617 863 l 296 158 l 617 158 l 617 0 l 78 0 z "},"[":{"ha":694,"x_min":147,"x_max":563,"o":"m 147 -199 l 147 1143 l 563 1143 l 563 985 l 338 985 l 338 -40 l 563 -40 l 563 -199 l 147 -199 z "},"\\":{"ha":694,"x_min":61,"x_max":633,"o":"m 442 -199 l 61 1143 l 253 1143 l 633 -199 l 442 -199 z "},"]":{"ha":694,"x_min":132,"x_max":547,"o":"m 132 -199 l 132 -40 l 357 -40 l 357 985 l 132 985 l 132 1143 l 547 1143 l 547 -199 l 132 -199 z "},"^":{"ha":694,"x_min":14,"x_max":681,"o":"m 182 604 l 14 693 l 254 1042 l 440 1042 l 681 693 l 513 604 l 347 883 l 182 604 z "},"_":{"ha":694,"x_min":78,"x_max":617,"o":"m 617 -158 l 78 -158 l 78 0 l 617 0 l 617 -158 z "},"`":{"ha":694,"x_min":92,"x_max":522,"o":"m 397 725 l 92 1028 l 244 1147 l 522 822 l 397 725 z "},"a":{"ha":694,"x_min":67,"x_max":617,"o":"m 257 -11 q 178 3 217 -11 q 113 49 139 18 q 77 121 88 81 q 67 201 67 161 q 76 276 67 239 q 106 343 85 313 q 160 395 128 374 q 227 429 192 417 q 299 446 263 442 q 374 450 336 450 l 426 450 l 426 482 q 422 517 426 500 q 408 548 418 535 q 381 568 397 561 q 346 575 364 575 q 315 571 331 575 q 288 557 300 567 q 271 533 276 547 q 265 503 265 518 l 265 500 l 75 500 l 75 508 q 85 573 75 540 q 113 633 94 606 q 158 680 131 660 q 216 713 185 700 q 280 729 247 725 q 346 733 313 733 q 415 728 381 733 q 483 708 450 722 q 542 671 515 694 q 585 617 568 647 q 610 551 603 586 q 617 482 617 517 l 617 0 l 426 0 l 426 108 q 401 60 417 83 q 363 20 385 36 q 313 -3 340 4 q 257 -11 285 -11 m 342 147 q 378 155 360 147 q 407 178 396 163 q 422 212 418 193 q 426 250 426 231 l 426 292 l 374 292 q 348 291 361 292 q 322 288 335 290 q 298 279 310 285 q 276 265 286 274 q 262 244 267 257 q 257 219 257 232 q 263 189 257 204 q 282 164 269 174 q 310 151 294 154 q 342 147 325 147 z "},"b":{"ha":694,"x_min":78,"x_max":628,"o":"m 436 -11 q 380 -2 408 -11 q 330 26 351 7 q 293 69 308 44 q 268 122 278 94 l 268 0 l 78 0 l 78 1021 l 268 1021 l 268 600 q 293 653 278 628 q 330 697 308 678 q 380 724 351 715 q 436 733 408 733 q 500 722 469 733 q 553 687 531 710 q 591 634 576 664 q 614 573 606 604 q 625 509 622 542 q 628 444 628 476 l 628 278 q 625 213 628 246 q 614 149 622 181 q 591 88 606 118 q 553 35 576 58 q 500 1 531 13 q 436 -11 469 -11 m 353 147 q 394 160 375 147 q 422 192 413 172 q 435 234 432 213 q 438 278 438 256 l 438 444 q 435 488 438 467 q 422 530 432 510 q 394 563 413 550 q 353 575 375 575 q 312 563 331 575 q 283 530 293 550 q 271 488 274 510 q 268 444 268 467 l 268 278 q 271 234 268 256 q 283 192 274 213 q 312 160 293 172 q 353 147 331 147 z "},"c":{"ha":694,"x_min":67,"x_max":619,"o":"m 343 -11 q 268 -4 306 -11 q 197 21 231 3 q 137 67 163 39 q 95 130 111 96 q 73 202 79 164 q 67 278 67 240 l 67 444 q 73 520 67 482 q 95 592 79 558 q 137 655 111 626 q 197 701 163 683 q 268 726 231 719 q 343 733 306 733 q 415 727 379 733 q 484 704 451 721 q 543 662 517 688 q 586 604 569 636 q 611 536 603 572 q 619 464 619 500 l 619 451 l 429 451 l 429 457 q 425 498 429 478 q 410 536 421 518 q 382 565 400 554 q 343 575 364 575 q 302 563 321 575 q 274 531 283 550 q 260 489 264 511 q 257 444 257 467 l 257 278 q 260 233 257 256 q 274 192 264 211 q 302 160 283 172 q 343 147 321 147 q 382 158 364 147 q 410 186 400 168 q 425 224 421 204 q 429 265 429 244 l 429 271 l 619 271 l 619 258 q 611 186 619 222 q 586 118 603 150 q 543 60 569 86 q 484 18 517 35 q 415 -5 451 1 q 343 -11 379 -11 z "},"d":{"ha":694,"x_min":67,"x_max":617,"o":"m 258 -11 q 194 1 225 -11 q 141 35 164 13 q 103 88 118 58 q 81 149 89 118 q 69 213 72 181 q 67 278 67 246 l 67 444 q 69 509 67 476 q 81 573 72 542 q 103 634 89 604 q 141 687 118 664 q 194 722 164 710 q 258 733 225 733 q 315 724 286 733 q 365 697 343 715 q 401 653 386 678 q 426 600 417 628 l 426 1021 l 617 1021 l 617 0 l 426 0 l 426 122 q 401 69 417 94 q 365 26 386 44 q 315 -2 343 7 q 258 -11 286 -11 m 342 147 q 383 160 364 147 q 411 192 401 172 q 424 234 421 213 q 426 278 426 256 l 426 444 q 424 488 426 467 q 411 530 421 510 q 383 563 401 550 q 342 575 364 575 q 301 563 319 575 q 272 530 282 550 q 260 488 263 510 q 257 444 257 467 l 257 278 q 260 234 257 256 q 272 192 263 213 q 301 160 282 172 q 342 147 319 147 z "},"e":{"ha":694,"x_min":67,"x_max":628,"o":"m 346 -11 q 270 -4 308 -11 q 199 21 232 3 q 139 67 165 39 q 96 129 113 94 q 73 202 79 164 q 67 278 67 240 l 67 444 q 73 521 67 483 q 96 593 79 558 q 139 656 113 628 q 199 701 165 683 q 271 726 233 719 q 347 733 308 733 q 424 726 386 733 q 495 701 461 719 q 556 656 529 683 q 599 593 582 628 q 622 521 615 558 q 628 444 628 483 l 628 282 l 257 282 l 257 278 q 260 233 257 256 q 274 191 264 211 q 304 159 285 171 q 346 147 324 147 q 379 151 363 147 q 408 165 396 156 q 428 190 421 175 q 435 222 435 206 l 625 222 l 625 221 q 615 154 625 188 q 586 93 606 121 q 540 44 567 65 q 481 11 513 24 q 415 -6 449 -1 q 346 -11 381 -11 m 257 440 l 438 440 l 438 444 q 434 489 438 467 q 420 531 431 511 q 390 563 410 551 q 347 575 369 575 q 305 563 325 575 q 274 531 285 551 q 260 489 264 511 q 257 444 257 467 l 257 440 z "},"f":{"ha":694,"x_min":78,"x_max":654,"o":"m 219 0 l 219 514 l 78 514 l 78 672 l 219 672 l 219 782 q 224 845 219 814 q 240 906 228 876 q 271 960 251 935 q 317 1001 290 985 q 374 1025 343 1018 q 438 1032 406 1032 q 522 1019 479 1032 q 594 976 564 1007 q 640 905 625 946 q 654 821 654 864 l 654 818 l 464 818 q 463 835 464 826 q 460 852 463 844 q 451 867 457 860 q 438 874 446 874 q 423 865 428 874 q 416 849 418 857 q 413 833 414 842 q 410 816 411 825 q 409 799 410 807 q 408 782 408 790 l 408 671 l 590 671 l 590 514 l 408 514 l 408 0 l 219 0 z "},"g":{"ha":694,"x_min":67,"x_max":617,"o":"m 344 -310 q 280 -306 313 -310 q 217 -290 247 -301 q 160 -258 186 -278 q 114 -212 133 -239 q 85 -154 94 -186 q 75 -90 75 -122 l 265 -90 q 272 -117 265 -104 q 291 -138 279 -131 q 317 -149 303 -146 q 344 -151 331 -151 q 385 -138 367 -151 q 412 -106 403 -125 q 424 -65 421 -86 q 426 -21 426 -43 l 426 122 q 401 69 417 94 q 365 26 386 44 q 315 -2 343 7 q 258 -11 286 -11 q 194 1 225 -11 q 141 35 164 13 q 103 88 118 58 q 81 149 89 118 q 69 213 72 181 q 67 278 67 246 l 67 444 q 69 509 67 476 q 81 573 72 542 q 103 634 89 604 q 141 687 118 664 q 194 722 164 710 q 258 733 225 733 q 315 724 286 733 q 365 697 343 715 q 401 653 386 678 q 426 600 417 628 l 426 722 l 617 722 l 617 -21 q 611 -96 617 -58 q 590 -167 606 -133 q 548 -230 574 -201 q 490 -277 522 -258 q 419 -303 457 -296 q 344 -310 382 -310 m 342 147 q 383 160 364 147 q 411 192 401 172 q 424 234 421 213 q 426 278 426 256 l 426 444 q 424 488 426 467 q 411 530 421 510 q 383 563 401 550 q 342 575 364 575 q 301 563 319 575 q 272 530 282 550 q 260 488 263 510 q 257 444 257 467 l 257 278 q 260 234 257 256 q 272 192 263 213 q 301 160 282 172 q 342 147 319 147 z "},"h":{"ha":694,"x_min":78,"x_max":617,"o":"m 78 0 l 78 1021 l 268 1021 l 268 603 q 291 653 276 629 q 327 697 306 678 q 376 724 349 715 q 431 733 403 733 q 493 721 463 733 q 546 685 524 708 q 582 633 568 663 q 603 572 596 603 q 614 508 611 540 q 617 444 617 476 l 617 0 l 426 0 l 426 444 q 424 487 426 465 q 413 528 421 508 q 386 561 404 547 q 347 575 368 575 q 308 561 326 575 q 282 528 290 547 q 271 487 274 508 q 268 444 268 465 l 268 0 l 78 0 z "},"i":{"ha":694,"x_min":104,"x_max":590,"o":"m 104 0 l 104 158 l 263 158 l 263 564 l 124 564 l 124 722 l 451 722 l 451 158 l 590 158 l 590 0 l 104 0 m 354 806 q 304 813 329 806 q 262 838 279 821 q 237 881 244 856 q 229 931 229 906 q 237 981 229 956 q 262 1023 244 1006 q 304 1048 279 1040 q 354 1056 329 1056 q 404 1048 379 1056 q 447 1023 429 1040 q 472 981 464 1006 q 479 931 479 956 q 472 881 479 906 q 447 838 464 856 q 404 813 429 821 q 354 806 379 806 z "},"j":{"ha":694,"x_min":-12,"x_max":550,"o":"m 257 -310 q 190 -305 224 -310 q 124 -286 156 -300 q 67 -250 93 -272 q 23 -199 40 -228 q -3 -136 6 -169 q -12 -69 -12 -103 l 176 -69 q 182 -101 176 -86 q 199 -128 188 -117 q 226 -146 210 -140 q 257 -151 242 -151 q 288 -144 274 -151 q 311 -123 301 -136 q 326 -94 321 -110 q 335 -63 332 -79 q 339 -32 338 -47 q 340 0 340 -17 l 340 564 l 192 564 l 192 722 l 529 722 l 529 0 q 524 -78 529 -39 q 504 -153 519 -117 q 465 -220 489 -189 q 407 -272 440 -251 q 335 -301 374 -293 q 257 -310 296 -310 m 424 806 q 374 813 399 806 q 331 838 349 821 q 306 881 314 856 q 299 931 299 906 q 306 981 299 956 q 331 1023 314 1006 q 374 1048 349 1040 q 424 1056 399 1056 q 474 1048 449 1056 q 516 1023 499 1040 q 541 981 533 1006 q 549 931 549 956 q 541 881 549 906 q 516 838 533 856 q 474 813 499 821 q 424 806 449 806 z "},"k":{"ha":694,"x_min":100,"x_max":647,"o":"m 442 0 l 322 242 l 289 192 l 289 0 l 100 0 l 100 1021 l 289 1021 l 289 467 l 438 722 l 647 722 l 424 390 l 647 0 l 442 0 z "},"l":{"ha":694,"x_min":104,"x_max":590,"o":"m 104 0 l 104 158 l 263 158 l 263 863 l 124 863 l 124 1021 l 451 1021 l 451 158 l 590 158 l 590 0 l 104 0 z "},"m":{"ha":694,"x_min":51,"x_max":643,"o":"m 51 0 l 51 722 l 207 722 l 207 643 q 221 676 213 660 q 242 706 229 693 q 272 726 254 719 q 307 733 289 733 q 349 723 329 733 q 383 694 369 713 q 405 656 397 676 q 417 613 413 635 q 430 656 422 635 q 450 694 438 676 q 483 723 463 713 q 525 733 503 733 q 568 723 547 733 q 602 694 589 713 q 624 656 615 676 q 636 613 632 635 q 642 568 640 590 q 643 524 643 546 l 643 0 l 488 0 l 488 524 q 487 547 488 536 q 483 570 486 558 q 474 593 481 582 q 457 604 468 604 q 438 593 444 604 q 429 570 432 582 q 426 547 426 558 q 425 524 425 536 l 425 0 l 269 0 l 269 524 q 269 547 269 536 q 265 570 268 558 q 256 593 263 582 q 238 604 250 604 q 220 593 226 604 q 211 570 214 582 q 208 547 208 558 q 207 524 207 536 l 207 0 l 51 0 z "},"n":{"ha":694,"x_min":78,"x_max":617,"o":"m 78 0 l 78 722 l 268 722 l 268 603 q 291 653 276 629 q 327 697 306 678 q 376 724 349 715 q 431 733 403 733 q 493 721 463 733 q 546 685 524 708 q 582 633 568 663 q 603 572 596 603 q 614 508 611 540 q 617 444 617 476 l 617 0 l 426 0 l 426 444 q 424 487 426 465 q 413 528 421 508 q 386 561 404 547 q 347 575 368 575 q 308 561 326 575 q 282 528 290 547 q 271 487 274 508 q 268 444 268 465 l 268 0 l 78 0 z "},"o":{"ha":694,"x_min":67,"x_max":628,"o":"m 347 -11 q 271 -4 308 -11 q 199 21 233 3 q 139 67 165 39 q 96 129 113 94 q 73 201 79 164 q 67 278 67 239 l 67 444 q 73 521 67 483 q 96 593 79 558 q 139 656 113 628 q 199 701 165 683 q 271 726 233 719 q 347 733 308 733 q 424 726 386 733 q 495 701 461 719 q 556 656 529 683 q 599 593 582 628 q 622 521 615 558 q 628 444 628 483 l 628 278 q 622 201 628 239 q 599 129 615 164 q 556 67 582 94 q 495 21 529 39 q 424 -4 461 3 q 347 -11 386 -11 m 347 147 q 390 159 369 147 q 420 191 410 171 q 434 233 431 211 q 438 278 438 256 l 438 444 q 434 489 438 467 q 420 531 431 511 q 390 563 410 551 q 347 575 369 575 q 305 563 325 575 q 274 531 285 551 q 260 489 264 511 q 257 444 257 467 l 257 278 q 260 233 257 256 q 274 191 264 211 q 305 159 285 171 q 347 147 325 147 z "},"p":{"ha":694,"x_min":78,"x_max":628,"o":"m 78 -299 l 78 722 l 268 722 l 268 600 q 293 653 278 628 q 330 697 308 678 q 380 724 351 715 q 436 733 408 733 q 500 722 469 733 q 553 687 531 710 q 591 634 576 664 q 614 573 606 604 q 625 509 622 542 q 628 444 628 476 l 628 278 q 625 213 628 246 q 614 149 622 181 q 591 88 606 118 q 553 35 576 58 q 500 1 531 13 q 436 -11 469 -11 q 380 -2 408 -11 q 330 26 351 7 q 293 69 308 44 q 268 122 278 94 l 268 -299 l 78 -299 m 353 147 q 394 160 375 147 q 422 192 413 172 q 435 234 432 213 q 438 278 438 256 l 438 444 q 435 488 438 467 q 422 530 432 510 q 394 563 413 550 q 353 575 375 575 q 312 563 331 575 q 283 530 293 550 q 271 488 274 510 q 268 444 268 467 l 268 278 q 271 234 268 256 q 283 192 274 213 q 312 160 293 172 q 353 147 331 147 z "},"q":{"ha":694,"x_min":67,"x_max":617,"o":"m 426 -299 l 426 122 q 401 69 417 94 q 365 26 386 44 q 315 -2 343 7 q 258 -11 286 -11 q 194 1 225 -11 q 141 35 164 13 q 103 88 118 58 q 81 149 89 118 q 69 213 72 181 q 67 278 67 246 l 67 444 q 69 509 67 476 q 81 573 72 542 q 103 634 89 604 q 141 687 118 664 q 194 722 164 710 q 258 733 225 733 q 315 724 286 733 q 365 697 343 715 q 401 653 386 678 q 426 600 417 628 l 426 722 l 617 722 l 617 -299 l 426 -299 m 342 147 q 383 160 364 147 q 411 192 401 172 q 424 234 421 213 q 426 278 426 256 l 426 444 q 424 488 426 467 q 411 530 421 510 q 383 563 401 550 q 342 575 364 575 q 301 563 319 575 q 272 530 282 550 q 260 488 263 510 q 257 444 257 467 l 257 278 q 260 234 257 256 q 272 192 263 213 q 301 160 282 172 q 342 147 319 147 z "},"r":{"ha":694,"x_min":147,"x_max":651,"o":"m 147 0 l 147 722 l 338 722 l 338 575 q 359 633 346 606 q 392 684 372 661 q 440 720 411 707 q 499 733 468 733 q 551 724 525 733 q 595 694 576 714 q 624 649 614 674 q 641 597 635 624 q 649 544 647 571 q 651 490 651 517 l 461 490 q 460 518 461 504 q 453 544 458 532 q 436 566 447 557 q 411 575 425 575 q 380 561 393 575 q 359 530 367 547 q 347 494 351 513 q 341 458 343 476 q 338 420 339 439 q 338 383 338 401 l 338 0 l 147 0 z "},"s":{"ha":694,"x_min":75,"x_max":617,"o":"m 346 -11 q 282 -8 314 -11 q 219 6 250 -4 q 162 35 189 17 q 115 78 135 53 q 85 135 96 104 q 75 197 75 165 l 75 208 l 265 208 l 265 206 q 273 179 265 192 q 292 160 281 167 q 318 150 304 153 q 346 147 332 147 q 373 149 360 147 q 398 156 386 151 q 418 172 410 161 q 426 196 426 183 q 415 229 426 214 q 389 255 404 244 q 356 271 374 265 q 322 282 339 276 q 287 294 304 288 q 253 308 269 300 q 221 325 236 315 q 191 346 206 335 q 163 369 176 357 q 139 396 150 382 q 118 426 128 410 q 102 458 108 442 q 92 493 96 475 q 89 529 89 511 q 99 590 89 560 q 127 644 108 619 q 172 688 146 669 q 226 716 197 706 q 287 730 256 726 q 349 733 318 733 q 412 729 381 733 q 472 715 443 725 q 527 686 501 704 q 572 642 553 668 q 599 586 590 617 q 608 525 608 556 l 608 514 l 418 514 l 418 517 q 413 542 418 529 q 397 562 407 554 q 374 572 388 569 q 349 575 361 575 q 324 573 336 575 q 302 565 313 571 q 285 549 292 560 q 279 526 279 539 q 290 493 279 508 q 317 468 301 478 q 349 452 332 458 q 384 440 367 446 q 418 429 401 435 q 451 415 435 424 q 484 398 468 407 q 514 378 500 389 q 541 354 528 367 q 566 327 554 342 q 587 297 578 313 q 603 265 596 282 q 613 230 610 247 q 617 193 617 213 q 606 131 617 163 q 576 76 596 100 q 528 34 556 51 q 472 6 501 17 q 410 -8 442 -4 q 346 -11 378 -11 z "},"t":{"ha":694,"x_min":97,"x_max":644,"o":"m 417 -11 q 349 -2 383 -11 q 288 26 315 7 q 240 75 260 46 q 210 136 221 104 q 194 202 199 168 q 190 271 190 236 l 190 564 l 97 564 l 97 722 l 190 722 l 190 1021 l 379 1021 l 379 722 l 583 722 l 583 564 l 379 564 l 379 271 q 380 248 379 260 q 381 225 381 236 q 384 203 382 214 q 390 181 386 192 q 399 158 393 169 q 417 147 406 147 q 434 158 428 147 q 444 178 440 168 q 449 199 447 189 q 452 221 451 210 q 453 243 453 232 q 454 265 454 254 l 454 271 l 644 271 l 644 257 q 639 191 644 224 q 622 128 633 158 q 590 70 610 97 q 542 24 569 43 q 483 -3 515 6 q 417 -11 450 -11 z "},"u":{"ha":694,"x_min":78,"x_max":617,"o":"m 264 -11 q 201 1 232 -11 q 149 37 171 14 q 113 90 126 60 q 91 151 99 119 q 81 214 83 182 q 78 278 78 246 l 78 722 l 268 722 l 268 278 q 271 235 268 257 q 282 194 274 214 q 308 161 290 175 q 347 147 326 147 q 386 161 368 147 q 413 194 404 175 q 424 235 421 214 q 426 278 426 257 l 426 722 l 617 722 l 617 0 l 426 0 l 426 119 q 403 69 418 93 q 367 26 389 44 q 319 -2 346 7 q 264 -11 292 -11 z "},"v":{"ha":694,"x_min":46,"x_max":649,"o":"m 238 0 l 46 722 l 242 722 l 335 240 q 341 209 338 225 q 347 178 344 193 q 353 209 350 193 q 360 240 357 225 l 453 722 l 649 722 l 457 0 l 238 0 z "},"w":{"ha":694,"x_min":29,"x_max":665,"o":"m 549 0 l 408 0 l 347 329 l 286 0 l 146 0 l 29 722 l 203 722 l 229 239 l 276 519 l 418 519 l 465 239 l 492 722 l 665 722 l 549 0 z "},"x":{"ha":694,"x_min":53,"x_max":642,"o":"m 53 0 l 261 361 l 53 722 l 269 722 l 347 547 l 425 722 l 642 722 l 433 361 l 642 0 l 425 0 l 347 175 l 269 0 l 53 0 z "},"y":{"ha":694,"x_min":63,"x_max":632,"o":"m 368 -299 l 174 -299 q 203 -187 189 -243 q 232 -75 218 -132 l 253 6 l 63 722 l 257 722 l 354 243 l 438 722 l 632 722 l 368 -299 z "},"z":{"ha":694,"x_min":78,"x_max":617,"o":"m 78 0 l 78 158 l 424 564 l 78 564 l 78 722 l 617 722 l 617 564 l 271 158 l 617 158 l 617 0 l 78 0 z "},"{":{"ha":694,"x_min":104,"x_max":563,"o":"m 563 -212 q 478 -208 521 -212 q 396 -190 436 -203 q 318 -158 356 -178 q 251 -106 281 -137 q 208 -35 222 -75 q 193 47 193 6 q 197 90 193 69 q 206 132 200 111 q 220 172 211 153 q 238 210 229 192 q 254 250 247 229 q 261 292 261 271 q 255 325 261 308 q 236 354 249 342 q 208 374 224 367 q 174 386 192 382 q 140 392 157 390 q 104 393 122 393 l 104 551 q 140 553 122 551 q 174 558 157 554 q 208 570 192 563 q 236 590 224 578 q 255 619 249 603 q 261 653 261 636 q 254 694 261 674 q 238 734 247 715 q 220 772 229 753 q 206 813 211 792 q 197 854 200 833 q 193 897 193 875 q 208 979 193 939 q 251 1051 222 1019 q 318 1102 281 1082 q 396 1135 356 1122 q 478 1152 436 1147 q 563 1157 521 1157 l 563 999 q 524 997 543 999 q 487 990 506 994 q 450 979 468 986 q 417 961 432 972 q 392 933 401 950 q 383 897 383 915 q 390 855 383 875 q 406 815 397 835 q 424 776 415 796 q 438 737 432 757 q 448 695 444 717 q 451 653 451 674 q 444 595 451 624 q 419 543 436 567 q 378 502 401 519 q 326 472 354 485 q 378 442 354 460 q 419 401 401 425 q 444 349 436 378 q 451 292 451 321 q 448 249 451 271 q 438 208 444 228 q 424 168 432 188 q 406 129 415 149 q 390 90 397 110 q 383 47 383 69 q 392 12 383 29 q 417 -17 401 -6 q 450 -35 432 -28 q 487 -46 468 -42 q 524 -52 506 -50 q 563 -54 543 -54 l 563 -212 z "},"|":{"ha":694,"x_min":253,"x_max":442,"o":"m 253 -199 l 253 1143 l 442 1143 l 442 -199 l 253 -199 z "},"}":{"ha":694,"x_min":132,"x_max":590,"o":"m 132 -212 l 132 -54 q 170 -52 151 -54 q 208 -46 189 -50 q 244 -35 226 -42 q 278 -17 263 -28 q 302 12 293 -6 q 311 47 311 29 q 304 90 311 69 q 288 129 297 110 q 271 168 279 149 q 256 208 263 188 q 247 249 250 228 q 243 292 243 271 q 251 349 243 321 q 276 401 258 378 q 317 442 293 425 q 368 472 340 460 q 317 502 340 485 q 276 543 293 519 q 251 595 258 567 q 243 653 243 624 q 247 695 243 674 q 256 737 250 717 q 271 776 263 757 q 288 815 279 796 q 304 855 297 835 q 311 897 311 875 q 302 933 311 915 q 278 961 293 950 q 244 979 263 972 q 208 990 226 986 q 170 997 189 994 q 132 999 151 999 l 132 1157 q 216 1152 174 1157 q 299 1135 258 1147 q 376 1102 339 1122 q 443 1051 414 1082 q 487 979 472 1019 q 501 897 501 939 q 498 854 501 875 q 489 813 494 833 q 474 772 483 792 q 456 734 465 753 q 440 694 447 715 q 433 653 433 674 q 440 619 433 636 q 458 590 446 603 q 487 570 471 578 q 520 558 503 563 q 555 553 538 554 q 590 551 572 551 l 590 393 q 555 392 572 393 q 520 386 538 390 q 487 374 503 382 q 458 354 471 367 q 440 325 446 342 q 433 292 433 308 q 440 250 433 271 q 456 210 447 229 q 474 172 465 192 q 489 132 483 153 q 498 90 494 111 q 501 47 501 69 q 487 -35 501 6 q 443 -106 472 -75 q 376 -158 414 -137 q 299 -190 339 -178 q 216 -208 258 -203 q 132 -212 174 -212 z "},"~":{"ha":694,"x_min":1,"x_max":693,"o":"m 451 251 q 431 253 440 251 q 412 257 421 254 q 394 263 403 260 q 376 272 385 267 q 359 283 367 276 q 345 294 351 289 q 332 308 339 300 q 319 323 325 315 q 306 339 313 331 q 295 355 300 347 q 285 369 290 363 q 274 387 281 376 q 262 406 268 397 q 251 423 256 415 q 238 438 246 431 q 231 449 231 446 q 236 448 232 449 q 244 447 240 447 q 251 448 247 447 q 256 449 254 449 q 251 441 256 444 q 242 430 247 438 q 233 418 236 422 q 228 410 231 414 q 223 403 225 407 q 218 394 221 399 q 213 384 215 389 q 207 374 210 379 q 201 362 204 368 q 194 349 197 356 q 188 336 192 343 q 181 322 185 329 q 175 308 178 315 q 168 292 172 300 q 160 274 164 283 q 154 257 157 265 l 1 308 q 25 363 14 338 q 47 410 36 388 q 69 451 58 432 q 92 485 81 469 q 118 520 103 501 q 153 553 133 539 q 196 576 172 567 q 243 585 219 585 q 264 583 254 585 q 283 578 274 581 q 301 573 292 576 q 319 564 310 569 q 335 553 328 558 q 349 541 343 547 q 363 527 356 535 q 376 512 369 519 q 388 497 382 504 q 399 481 394 489 q 409 465 404 472 q 420 449 414 458 q 433 430 426 439 q 444 413 439 421 q 456 397 449 406 q 464 386 464 389 q 458 387 463 386 q 450 388 454 388 q 444 387 447 388 q 439 386 440 386 l 439 388 q 443 394 439 390 q 453 406 447 399 q 461 417 458 413 q 467 424 464 421 q 472 433 469 428 q 476 442 474 438 q 482 451 479 446 q 488 462 485 457 q 494 473 490 467 q 500 485 497 479 q 506 499 503 492 q 513 513 510 506 q 519 528 517 521 q 526 544 522 536 q 534 561 531 553 q 540 579 538 569 l 693 528 q 669 473 681 499 q 647 425 658 447 q 625 384 636 403 q 603 349 614 365 q 576 315 592 333 q 542 282 561 296 q 499 260 522 268 q 451 251 475 251 z "},"":{"ha":694,"x_min":0,"x_max":0,"o":""},"":{"ha":694,"x_min":211,"x_max":483,"o":"m 347 461 q 293 469 319 461 q 247 497 267 478 q 219 543 228 517 q 211 597 211 569 q 219 651 211 625 q 247 697 228 678 q 293 725 267 717 q 347 733 319 733 q 401 725 375 733 q 447 697 428 717 q 475 651 467 678 q 483 597 483 625 q 475 543 483 569 q 447 497 467 517 q 401 469 428 478 q 347 461 375 461 m 253 -299 l 253 314 l 442 314 l 442 -299 l 253 -299 z "},"":{"ha":694,"x_min":67,"x_max":619,"o":"m 269 -149 l 269 -4 q 210 15 239 1 q 156 49 181 28 q 114 97 132 69 q 85 153 96 124 q 71 215 75 183 q 67 278 67 246 l 67 444 q 71 508 67 476 q 85 569 75 539 q 114 626 96 599 q 156 674 132 653 q 210 708 181 694 q 269 726 239 721 l 269 872 l 425 872 l 425 725 q 506 691 468 715 q 570 631 544 667 q 608 551 596 594 q 619 464 619 508 l 619 451 l 429 451 l 429 457 q 422 512 429 485 q 394 557 414 539 l 394 165 q 422 210 414 183 q 429 265 429 238 l 429 271 l 619 271 l 619 258 q 608 171 619 214 q 570 92 596 128 q 506 31 544 56 q 425 -3 468 7 l 425 -149 l 269 -149 m 300 160 l 300 563 q 278 539 288 553 q 265 509 269 525 q 258 477 260 493 q 257 444 257 461 l 257 278 q 258 245 257 261 q 265 213 260 229 q 278 183 269 197 q 300 160 288 169 z "},"":{"ha":694,"x_min":78,"x_max":617,"o":"m 78 0 l 78 158 q 124 212 104 182 q 154 276 143 242 q 167 346 165 310 q 169 417 169 382 l 169 454 l 99 454 l 99 567 l 169 567 l 169 797 q 174 858 169 828 q 191 915 179 888 q 223 966 203 943 q 269 1004 243 989 q 324 1026 294 1019 q 385 1032 354 1032 q 472 1017 429 1032 q 544 968 515 1001 q 587 891 574 935 q 600 803 600 847 l 600 790 l 410 790 l 410 794 q 410 809 410 801 q 409 824 410 817 q 407 839 408 832 q 403 853 406 846 q 397 867 401 860 q 385 874 392 874 q 374 867 378 874 q 367 854 369 861 q 363 840 364 847 q 360 826 361 833 q 360 811 360 818 q 360 797 360 804 l 360 567 l 463 567 l 463 454 l 360 454 l 360 417 q 359 350 360 383 q 353 284 358 317 q 338 219 347 251 q 313 158 328 188 l 617 158 l 617 0 l 78 0 z "},"":{"ha":694,"x_min":28,"x_max":667,"o":"m 567 161 l 482 247 q 417 224 451 231 q 347 218 382 218 q 278 224 313 218 q 213 247 243 231 l 128 161 l 28 244 l 122 338 q 99 403 106 368 q 93 472 93 438 q 99 542 93 507 q 122 607 106 576 l 28 700 l 128 783 l 213 697 q 278 720 243 714 q 347 726 313 726 q 417 720 382 726 q 482 697 451 714 l 567 783 l 667 700 l 572 607 q 595 542 589 576 q 601 472 601 507 q 595 403 601 438 q 572 338 589 368 l 667 244 l 567 161 m 347 336 q 396 347 372 336 q 435 377 419 357 q 456 422 450 397 q 461 472 461 447 q 456 522 461 497 q 435 567 450 547 q 396 598 419 588 q 347 608 372 608 q 299 598 322 608 q 260 567 275 588 q 239 522 244 547 q 233 472 233 497 q 239 422 233 447 q 260 377 244 397 q 299 347 275 357 q 347 336 322 336 z "},"":{"ha":694,"x_min":40,"x_max":654,"o":"m 253 0 l 253 149 l 78 149 l 78 260 l 253 260 l 253 353 l 78 353 l 78 464 l 246 464 l 40 1021 l 242 1021 l 347 672 l 453 1021 l 654 1021 l 449 464 l 617 464 l 617 353 l 442 353 l 442 260 l 617 260 l 617 149 l 442 149 l 442 0 l 253 0 z "},"":{"ha":694,"x_min":253,"x_max":442,"o":"m 253 551 l 253 1143 l 442 1143 l 442 551 l 253 551 m 253 -199 l 253 393 l 442 393 l 442 -199 l 253 -199 z "},"":{"ha":694,"x_min":75,"x_max":619,"o":"m 346 -210 q 274 -203 310 -210 q 206 -179 238 -196 q 148 -135 174 -162 q 106 -76 122 -108 q 83 -8 90 -43 q 75 64 75 28 l 75 72 l 265 72 l 265 69 q 269 28 265 49 q 281 -10 272 8 q 308 -40 290 -28 q 346 -51 325 -51 q 384 -38 367 -51 q 410 -6 401 -25 q 424 33 419 13 q 428 75 428 54 q 414 130 428 103 q 376 174 400 157 q 325 199 353 190 q 270 217 297 208 q 217 239 243 226 q 167 269 190 251 q 127 311 144 288 q 99 361 110 335 q 83 417 88 388 q 78 474 78 446 q 82 529 78 501 q 94 583 86 557 q 116 635 103 610 q 147 681 129 660 q 94 765 111 717 q 78 864 78 814 q 85 938 78 901 q 108 1009 93 975 q 149 1072 124 1043 q 206 1119 174 1100 q 274 1147 238 1139 q 349 1154 311 1154 q 421 1147 385 1154 q 489 1124 457 1140 q 547 1080 521 1107 q 588 1020 572 1053 q 612 952 604 988 q 619 881 619 917 l 619 872 l 429 872 l 429 875 q 426 916 429 896 q 413 954 422 936 q 387 984 404 972 q 349 996 369 996 q 310 983 328 996 q 284 951 293 969 q 271 911 275 932 q 267 869 267 890 q 281 815 267 842 q 318 771 294 788 q 369 745 342 754 q 424 727 397 736 q 478 706 451 718 q 527 675 504 693 q 567 633 550 657 q 596 583 585 610 q 612 528 607 557 q 617 471 617 499 q 613 415 617 443 q 600 361 608 388 q 578 310 592 335 q 547 264 565 285 q 600 179 583 228 q 617 81 617 131 q 609 6 617 43 q 586 -65 601 -31 q 546 -127 571 -99 q 489 -175 521 -156 q 420 -202 457 -194 q 346 -210 383 -210 m 385 350 q 406 372 397 358 q 418 401 414 386 q 425 431 422 415 q 428 461 428 446 q 419 508 428 485 q 392 547 410 531 q 353 575 375 564 q 310 594 332 586 q 289 572 297 586 q 276 544 281 558 q 269 514 272 529 q 267 483 267 499 q 276 437 267 460 q 302 397 285 414 q 341 369 319 381 q 385 350 363 358 z "},"":{"ha":694,"x_min":104,"x_max":590,"o":"m 486 826 q 444 833 465 826 q 409 853 424 839 q 388 889 394 868 q 382 931 382 910 q 388 972 382 951 q 409 1008 394 993 q 444 1028 424 1022 q 486 1035 465 1035 q 528 1028 507 1035 q 563 1008 549 1022 q 584 972 578 993 q 590 931 590 951 q 584 889 590 910 q 563 853 578 868 q 528 833 549 839 q 486 826 507 826 m 208 826 q 167 833 188 826 q 131 853 146 839 q 110 889 117 868 q 104 931 104 910 q 110 972 104 951 q 131 1008 117 993 q 167 1028 146 1022 q 208 1035 188 1035 q 250 1028 229 1035 q 285 1008 271 1022 q 306 972 300 993 q 313 931 313 951 q 306 889 313 910 q 285 853 300 868 q 250 833 271 839 q 208 826 229 826 z "},"":{"ha":694,"x_min":138,"x_max":550,"o":"m 282 440 q 223 450 251 440 q 174 481 194 460 q 146 532 154 503 q 138 590 138 561 q 144 645 138 618 q 169 693 151 672 q 210 728 186 714 q 259 752 233 743 q 313 764 285 761 q 368 767 340 767 l 410 767 l 410 788 q 405 812 410 800 q 391 831 400 824 q 370 842 382 839 q 346 844 358 844 q 324 843 335 844 q 304 836 314 842 q 289 821 294 831 q 283 800 283 811 l 283 799 l 143 799 l 143 804 q 160 874 143 840 q 208 927 178 907 q 274 955 238 947 q 346 963 310 963 q 397 959 372 963 q 446 946 422 956 q 490 921 469 936 q 524 884 510 906 q 544 838 538 863 q 550 788 550 813 l 550 449 l 410 449 l 410 525 q 389 490 401 506 q 359 462 376 474 q 322 445 342 450 q 282 440 301 440 m 343 558 q 369 562 357 558 q 392 575 382 565 q 406 597 401 585 q 410 624 410 610 l 410 650 l 368 650 q 339 649 353 650 q 312 642 325 647 q 288 628 299 638 q 278 604 278 618 q 284 583 278 593 q 300 567 290 572 q 321 560 310 561 q 343 558 332 558 m 144 258 l 144 347 l 550 347 l 550 258 l 144 258 z "},"":{"ha":694,"x_min":38,"x_max":663,"o":"m 544 118 q 501 210 525 165 q 448 296 476 254 q 384 374 419 338 q 307 440 349 411 l 307 504 q 384 570 349 533 q 448 649 419 607 q 501 735 476 690 q 544 826 525 779 l 663 789 q 585 622 631 703 q 478 472 540 540 q 585 323 540 404 q 663 156 631 242 l 544 118 m 275 118 q 231 210 256 165 q 178 296 207 254 q 115 374 150 338 q 38 440 79 411 l 38 504 q 115 570 79 533 q 178 649 150 607 q 231 735 207 690 q 275 826 256 779 l 393 789 q 316 622 361 703 q 208 472 271 540 q 316 323 271 404 q 393 156 361 242 l 275 118 z "},"":{"ha":694,"x_min":78,"x_max":617,"o":"m 453 176 l 453 404 l 78 404 l 78 540 l 617 540 l 617 176 l 453 176 z "},"":{"ha":694,"x_min":78,"x_max":617,"o":"m 78 393 l 78 551 l 617 551 l 617 393 l 78 393 z "},"":{"ha":694,"x_min":18,"x_max":676,"o":"m 224 714 l 224 1122 l 356 1122 q 405 1113 381 1122 q 446 1085 429 1104 q 469 1041 463 1065 q 475 990 475 1017 q 472 954 475 972 q 461 920 469 936 q 440 891 453 904 q 411 869 428 878 l 483 714 l 389 714 l 321 860 l 313 860 l 313 714 l 224 714 m 356 933 q 372 940 365 933 q 381 956 378 947 q 385 973 385 964 q 386 990 386 982 q 385 1009 386 1000 q 381 1026 385 1018 q 372 1042 378 1035 q 356 1049 365 1049 l 313 1049 l 313 933 l 356 933 m 347 589 q 259 597 303 589 q 176 624 215 604 q 104 675 136 643 q 53 747 72 707 q 26 830 33 786 q 18 918 18 874 q 26 1006 18 963 q 53 1090 33 1050 q 104 1161 72 1129 q 176 1213 136 1193 q 259 1240 215 1232 q 347 1247 303 1247 q 435 1240 392 1247 q 519 1213 479 1232 q 590 1161 558 1193 q 642 1090 622 1129 q 669 1006 661 1050 q 676 918 676 963 q 669 830 676 874 q 642 747 661 786 q 590 675 622 707 q 519 624 558 643 q 435 597 479 604 q 347 589 392 589 m 347 663 q 413 669 381 663 q 475 692 446 675 q 527 733 504 708 q 564 788 550 758 q 583 851 578 818 q 588 918 588 885 q 583 985 588 951 q 564 1048 578 1018 q 527 1103 550 1078 q 475 1144 504 1128 q 413 1167 446 1161 q 347 1174 381 1174 q 281 1167 314 1174 q 219 1144 249 1161 q 167 1103 190 1128 q 131 1048 144 1078 q 112 985 117 1018 q 107 918 107 951 q 112 851 107 885 q 131 788 117 818 q 167 733 144 758 q 219 692 190 708 q 281 669 249 675 q 347 663 314 663 z "},"":{"ha":694,"x_min":78,"x_max":617,"o":"m 78 871 l 78 990 l 617 990 l 617 871 l 78 871 z "},"":{"ha":694,"x_min":161,"x_max":533,"o":"m 347 722 q 273 733 310 722 q 210 771 236 744 q 173 834 185 797 q 161 908 161 871 q 173 982 161 946 q 210 1044 185 1018 q 273 1082 236 1071 q 347 1093 310 1093 q 422 1082 385 1093 q 484 1044 458 1071 q 522 982 510 1018 q 533 908 533 946 q 522 834 533 871 q 484 771 510 797 q 422 733 458 744 q 347 722 385 722 m 347 846 q 372 849 360 846 q 394 862 385 853 q 406 883 403 871 q 410 908 410 896 q 406 933 410 921 q 394 954 403 946 q 372 967 385 963 q 347 971 360 971 q 322 967 335 971 q 301 954 310 963 q 288 933 292 946 q 285 908 285 921 q 288 883 285 896 q 301 862 292 871 q 322 849 310 853 q 347 846 335 846 z "},"":{"ha":694,"x_min":78,"x_max":617,"o":"m 265 192 l 265 404 l 78 404 l 78 540 l 265 540 l 265 753 l 429 753 l 429 540 l 617 540 l 617 404 l 429 404 l 429 192 l 265 192 m 78 0 l 78 136 l 617 136 l 617 0 l 78 0 z "},"":{"ha":694,"x_min":143,"x_max":553,"o":"m 144 449 l 144 450 q 146 510 144 479 q 153 570 147 540 q 169 628 158 600 q 194 683 179 657 q 229 733 210 710 q 272 775 249 756 q 320 811 294 794 q 367 849 346 828 q 401 899 389 871 q 413 957 413 928 q 410 990 413 974 q 401 1022 408 1007 q 378 1045 393 1036 q 349 1054 364 1054 q 320 1048 333 1054 q 299 1030 307 1042 q 287 1004 290 1018 q 283 976 283 990 l 283 974 l 143 974 l 143 981 q 158 1058 143 1019 q 201 1122 172 1096 q 269 1160 231 1149 q 349 1171 308 1171 q 404 1166 376 1171 q 457 1147 432 1161 q 501 1113 482 1133 q 533 1067 521 1092 q 549 1014 544 1042 q 553 957 553 986 q 546 898 553 928 q 524 842 539 868 q 488 794 508 815 q 443 753 467 772 q 397 714 419 733 q 354 672 374 694 q 320 622 335 649 q 297 565 306 594 l 550 565 l 550 449 l 144 449 z "},"":{"ha":694,"x_min":135,"x_max":565,"o":"m 350 440 q 269 451 310 440 q 198 488 229 461 q 151 553 167 514 q 135 632 135 592 l 135 639 l 275 639 l 275 636 q 280 606 275 621 q 295 579 285 590 q 320 563 306 568 q 350 558 335 558 q 382 565 367 558 q 407 584 397 571 q 421 614 417 597 q 425 646 425 631 q 417 692 425 669 q 392 729 408 714 q 352 749 375 744 q 307 754 329 754 l 307 872 q 348 877 328 872 q 383 897 368 882 q 403 931 397 911 q 410 972 410 951 q 407 1000 410 986 q 397 1026 404 1014 q 376 1047 389 1039 q 350 1054 364 1054 q 324 1047 336 1054 q 304 1029 311 1040 q 294 1004 297 1018 q 292 976 292 990 l 292 974 l 151 974 l 151 981 q 165 1057 151 1019 q 206 1122 178 1094 q 273 1160 235 1149 q 350 1171 311 1171 q 428 1159 390 1171 q 494 1119 467 1147 q 536 1052 522 1090 q 550 975 550 1014 q 544 928 550 951 q 528 883 539 904 q 500 845 517 863 q 463 815 483 828 q 506 785 486 803 q 538 744 525 767 q 558 697 551 722 q 565 644 565 671 q 550 562 565 601 q 504 494 535 522 q 433 453 474 465 q 350 440 392 440 z "},"":{"ha":694,"x_min":172,"x_max":603,"o":"m 297 725 l 172 822 l 450 1147 l 603 1028 l 297 725 z "},"":{"ha":694,"x_min":78,"x_max":617,"o":"m 78 -299 l 78 722 l 268 722 l 268 278 q 271 235 268 257 q 282 194 274 214 q 308 161 290 175 q 347 147 326 147 q 385 160 368 147 q 410 191 401 172 q 423 230 419 210 q 426 271 426 250 l 426 722 l 617 722 l 617 0 l 426 0 l 426 119 q 403 69 418 93 q 367 26 389 44 q 319 -2 346 7 q 264 -11 292 -11 l 256 -11 q 265 -79 263 -44 q 268 -149 268 -114 l 268 -299 l 78 -299 z "},"":{"ha":694,"x_min":78,"x_max":617,"o":"m 317 0 l 317 460 q 248 468 282 460 q 184 495 214 476 q 133 542 154 514 q 100 603 113 571 q 83 671 88 636 q 78 740 78 706 q 83 810 78 775 q 100 877 88 844 q 133 938 113 910 q 184 985 154 967 q 248 1013 214 1004 q 317 1021 282 1021 l 617 1021 l 617 0 l 494 0 l 494 919 l 439 919 l 439 0 l 317 0 z "},"":{"ha":694,"x_min":197,"x_max":497,"o":"m 347 322 q 288 331 317 322 q 237 362 258 340 q 206 413 215 383 q 197 472 197 442 q 206 532 197 503 q 237 583 215 561 q 288 613 258 604 q 347 622 317 622 q 407 613 378 622 q 458 583 436 604 q 488 532 479 561 q 497 472 497 503 q 488 413 497 442 q 458 362 479 383 q 407 331 436 340 q 347 322 378 322 z "},"":{"ha":694,"x_min":208,"x_max":497,"o":"m 208 -306 l 208 -186 l 347 -186 q 362 -185 354 -186 q 376 -181 369 -183 q 388 -172 383 -178 q 392 -158 392 -165 q 388 -142 392 -150 q 378 -128 385 -133 q 364 -120 372 -122 q 347 -118 356 -118 l 275 -118 l 275 0 l 419 0 l 419 -74 q 451 -90 436 -79 q 477 -115 467 -100 q 492 -147 488 -129 q 497 -183 497 -165 q 485 -237 497 -211 q 451 -278 474 -262 q 402 -300 429 -294 q 347 -306 375 -306 l 208 -306 z "},"":{"ha":694,"x_min":153,"x_max":447,"o":"m 306 449 l 306 1026 l 226 946 l 153 1007 l 306 1164 l 447 1164 l 447 449 l 306 449 z "},"":{"ha":694,"x_min":138,"x_max":557,"o":"m 347 440 q 292 445 319 440 q 239 462 264 450 q 194 493 214 474 q 160 537 174 513 q 142 588 147 561 q 138 643 138 615 l 138 760 q 142 815 138 788 q 160 866 147 842 q 194 910 174 890 q 239 941 214 929 q 292 958 264 953 q 347 963 319 963 q 403 958 375 963 q 456 941 431 953 q 501 910 481 929 q 534 866 521 890 q 552 815 547 842 q 557 760 557 788 l 557 643 q 552 588 557 615 q 534 537 547 561 q 501 493 521 513 q 456 462 481 474 q 403 445 431 450 q 347 440 375 440 m 347 558 q 377 565 363 558 q 401 583 392 571 q 413 612 410 596 q 417 643 417 628 l 417 760 q 413 791 417 775 q 401 819 410 807 q 377 838 392 832 q 347 844 363 844 q 317 838 332 844 q 294 819 303 832 q 281 791 285 807 q 278 760 278 775 l 278 643 q 281 612 278 628 q 294 583 285 596 q 317 565 303 571 q 347 558 332 558 m 144 258 l 144 347 l 550 347 l 550 258 l 144 258 z "},"":{"ha":694,"x_min":32,"x_max":657,"o":"m 419 118 l 301 156 q 378 323 333 242 q 486 472 424 404 q 378 622 424 540 q 301 789 333 703 l 419 826 q 463 735 439 779 q 516 649 488 690 q 580 570 544 607 q 657 504 615 533 l 657 440 q 580 374 615 411 q 516 296 544 338 q 463 210 488 254 q 419 118 439 165 m 150 118 l 32 156 q 109 323 64 242 q 217 472 154 404 q 109 622 154 540 q 32 789 64 703 l 150 826 q 194 735 169 779 q 247 649 218 690 q 310 570 275 607 q 388 504 346 533 l 388 440 q 310 374 346 411 q 247 296 275 338 q 194 210 218 254 q 150 118 169 165 z "},"":{"ha":694,"x_min":78,"x_max":617,"o":"m 78 424 l 78 521 l 617 521 l 617 424 l 78 424 m 307 617 l 307 1053 l 260 1001 l 193 1053 l 307 1178 l 435 1178 l 435 617 l 307 617 m 481 -233 l 353 -233 l 353 -106 l 172 -106 l 172 3 l 346 328 l 464 328 l 290 3 l 353 3 l 353 79 l 481 79 l 481 3 l 518 3 l 518 -106 l 481 -106 l 481 -233 z "},"":{"ha":694,"x_min":78,"x_max":617,"o":"m 78 424 l 78 521 l 617 521 l 617 424 l 78 424 m 307 617 l 307 1053 l 260 1001 l 193 1053 l 307 1178 l 435 1178 l 435 617 l 307 617 m 178 -233 l 178 -232 q 179 -185 178 -208 q 184 -138 181 -161 q 196 -92 188 -115 q 215 -49 204 -69 q 242 -10 226 -29 q 275 24 257 8 q 314 51 293 39 q 353 78 335 64 q 381 115 371 93 q 392 161 392 138 q 390 183 392 172 q 384 204 389 194 q 369 220 379 214 q 349 226 360 226 q 331 224 340 226 q 317 214 322 221 q 308 198 311 207 q 306 181 306 189 l 306 179 l 176 179 l 176 183 q 190 246 176 215 q 228 297 203 276 q 285 326 253 318 q 349 335 317 335 q 417 324 383 335 q 476 288 451 313 q 510 230 500 264 q 521 161 521 196 q 511 101 521 131 q 483 49 501 72 q 440 7 464 25 q 394 -31 417 -11 q 352 -74 371 -50 q 322 -126 333 -99 l 518 -126 l 518 -233 l 178 -233 z "},"":{"ha":694,"x_min":78,"x_max":617,"o":"m 78 424 l 78 521 l 617 521 l 617 424 l 78 424 m 350 611 q 284 619 317 611 q 225 647 251 626 q 185 697 199 667 q 171 761 171 728 l 171 765 l 300 765 l 300 764 q 303 745 300 754 q 314 730 307 736 q 331 721 321 724 q 350 718 340 718 q 372 722 361 718 q 389 735 382 726 q 399 753 396 743 q 401 775 401 764 q 394 806 401 790 q 375 831 388 821 q 347 845 363 842 q 314 849 331 849 l 314 956 q 343 959 329 956 q 368 972 357 963 q 384 996 379 982 q 389 1025 389 1010 q 387 1042 389 1033 q 381 1060 385 1051 q 368 1072 376 1068 q 350 1076 360 1076 q 334 1073 342 1076 q 321 1063 326 1069 q 313 1047 315 1056 q 311 1031 311 1039 l 311 1029 l 183 1029 l 183 1035 q 196 1096 183 1065 q 232 1147 208 1126 q 287 1176 256 1168 q 350 1185 318 1185 q 414 1175 382 1185 q 470 1143 446 1165 q 506 1090 494 1121 q 518 1026 518 1058 q 500 957 518 990 q 451 904 482 924 q 484 881 469 894 q 509 849 499 867 q 525 813 519 832 q 531 772 531 793 q 517 706 531 739 q 477 651 503 674 q 418 620 451 629 q 350 611 385 611 m 481 -233 l 353 -233 l 353 -106 l 172 -106 l 172 3 l 346 328 l 464 328 l 290 3 l 353 3 l 353 79 l 481 79 l 481 3 l 518 3 l 518 -106 l 481 -106 l 481 -233 z "},"":{"ha":694,"x_min":78,"x_max":619,"o":"m 347 461 q 293 469 319 461 q 247 497 267 478 q 219 543 228 517 q 211 597 211 569 q 219 651 211 625 q 247 697 228 678 q 293 725 267 717 q 347 733 319 733 q 401 725 375 733 q 447 697 428 717 q 475 651 467 678 q 483 597 483 625 q 475 543 483 569 q 447 497 467 517 q 401 469 428 478 q 347 461 375 461 m 349 -310 q 277 -303 313 -310 q 210 -281 242 -297 q 153 -240 179 -265 q 111 -183 128 -215 q 86 -117 94 -151 q 78 -46 78 -82 q 83 9 78 -18 q 98 62 88 36 q 122 111 108 88 q 153 157 136 135 q 190 199 171 179 q 225 242 210 219 q 247 292 240 265 q 253 347 253 319 l 442 347 q 440 292 442 319 q 431 237 439 264 q 410 185 424 210 q 381 139 397 161 q 344 97 364 117 q 308 55 325 76 q 278 8 290 33 q 267 -46 267 -18 q 272 -83 267 -65 q 286 -117 276 -101 q 313 -142 296 -133 q 349 -151 331 -151 q 385 -140 368 -151 q 413 -111 403 -129 q 426 -74 422 -93 q 429 -33 429 -54 l 429 -28 l 619 -28 l 619 -42 q 612 -113 619 -78 q 588 -181 604 -149 q 545 -238 571 -212 q 488 -281 519 -264 q 420 -303 456 -297 q 349 -310 385 -310 z "},"":{"ha":694,"x_min":46,"x_max":649,"o":"m 46 0 l 238 1021 l 457 1021 l 649 0 l 456 0 l 428 203 l 267 203 l 239 0 l 46 0 m 289 361 l 406 361 l 363 681 q 355 733 358 707 q 347 785 351 758 q 340 733 343 758 q 332 681 336 707 l 289 361 m 367 1094 l 168 1281 l 283 1372 l 460 1169 l 367 1094 z "},"":{"ha":694,"x_min":46,"x_max":649,"o":"m 46 0 l 238 1021 l 457 1021 l 649 0 l 456 0 l 428 203 l 267 203 l 239 0 l 46 0 m 289 361 l 406 361 l 363 681 q 355 733 358 707 q 347 785 351 758 q 340 733 343 758 q 332 681 336 707 l 289 361 m 328 1094 l 235 1169 l 411 1372 l 526 1281 l 328 1094 z "},"":{"ha":694,"x_min":46,"x_max":649,"o":"m 46 0 l 238 1021 l 457 1021 l 649 0 l 456 0 l 428 203 l 267 203 l 239 0 l 46 0 m 289 361 l 406 361 l 363 681 q 355 733 358 707 q 347 785 351 758 q 340 733 343 758 q 332 681 336 707 l 289 361 m 217 1117 l 133 1171 l 258 1364 l 436 1364 l 561 1171 l 478 1117 l 347 1264 l 217 1117 z "},"":{"ha":694,"x_min":46,"x_max":649,"o":"m 46 0 l 238 1021 l 457 1021 l 649 0 l 456 0 l 428 203 l 267 203 l 239 0 l 46 0 m 289 361 l 406 361 l 363 681 q 355 733 358 707 q 347 785 351 758 q 340 733 343 758 q 332 681 336 707 l 289 361 m 426 1128 q 413 1128 419 1128 q 399 1131 406 1129 q 388 1133 393 1132 q 376 1138 382 1135 q 363 1143 369 1140 q 352 1149 357 1146 q 342 1156 347 1153 q 331 1165 336 1160 q 320 1174 325 1169 q 311 1183 315 1178 q 303 1192 307 1188 q 295 1200 299 1196 q 286 1211 292 1204 q 276 1223 281 1218 q 266 1232 271 1228 q 261 1238 261 1236 l 261 1239 q 263 1239 261 1239 l 265 1239 q 269 1238 267 1238 l 275 1238 q 272 1234 275 1236 q 265 1228 269 1232 q 260 1222 261 1224 q 257 1217 258 1219 q 253 1213 256 1215 q 249 1208 251 1211 q 245 1203 247 1206 q 241 1197 243 1200 q 237 1191 239 1194 q 233 1184 235 1188 q 228 1176 231 1181 q 224 1168 226 1172 q 218 1160 221 1164 q 213 1151 215 1156 q 208 1141 211 1146 q 203 1131 206 1136 l 75 1188 q 94 1222 85 1206 q 114 1252 104 1238 q 133 1278 124 1267 q 151 1301 142 1290 q 175 1322 161 1311 q 203 1341 189 1333 q 235 1353 218 1349 q 268 1358 251 1358 q 282 1358 275 1358 q 295 1356 289 1357 q 307 1352 301 1354 q 319 1348 313 1350 q 331 1342 325 1346 q 342 1336 338 1339 q 353 1329 347 1333 q 364 1321 358 1325 q 374 1312 369 1317 q 383 1302 379 1307 q 392 1293 388 1297 q 399 1285 396 1289 q 408 1274 403 1281 q 419 1263 414 1268 q 428 1253 424 1258 q 433 1247 433 1249 l 419 1247 q 422 1252 419 1250 q 429 1258 425 1254 q 435 1264 433 1263 q 438 1267 436 1265 q 441 1272 439 1269 q 445 1277 443 1275 q 449 1282 447 1279 q 453 1288 451 1285 q 458 1295 456 1292 q 462 1302 460 1299 q 466 1309 464 1306 q 471 1317 468 1313 q 476 1326 474 1321 q 481 1335 479 1331 q 486 1344 483 1339 q 492 1354 489 1350 l 619 1299 q 600 1263 610 1279 q 581 1233 590 1247 q 562 1208 571 1219 q 543 1185 553 1196 q 519 1163 533 1175 q 491 1144 506 1151 q 460 1132 476 1136 q 426 1128 443 1128 z "},"":{"ha":694,"x_min":46,"x_max":649,"o":"m 46 0 l 238 1021 l 457 1021 l 649 0 l 456 0 l 428 203 l 267 203 l 239 0 l 46 0 m 289 361 l 406 361 l 363 681 q 355 733 358 707 q 347 785 351 758 q 340 733 343 758 q 332 681 336 707 l 289 361 m 486 1125 q 444 1131 465 1125 q 409 1152 424 1138 q 388 1188 394 1167 q 382 1229 382 1208 q 388 1271 382 1250 q 409 1306 394 1292 q 444 1327 424 1321 q 486 1333 465 1333 q 528 1327 507 1333 q 563 1306 549 1321 q 584 1271 578 1292 q 590 1229 590 1250 q 584 1188 590 1208 q 563 1152 578 1167 q 528 1131 549 1138 q 486 1125 507 1125 m 208 1125 q 167 1131 188 1125 q 131 1152 146 1138 q 110 1188 117 1167 q 104 1229 104 1208 q 110 1271 104 1250 q 131 1306 117 1292 q 167 1327 146 1321 q 208 1333 188 1333 q 250 1327 229 1333 q 285 1306 271 1321 q 306 1271 300 1292 q 313 1229 313 1250 q 306 1188 313 1208 q 285 1152 300 1167 q 250 1131 271 1138 q 208 1125 229 1125 z "},"":{"ha":694,"x_min":46,"x_max":649,"o":"m 46 0 l 238 1021 l 457 1021 l 649 0 l 456 0 l 428 203 l 267 203 l 239 0 l 46 0 m 289 361 l 406 361 l 363 681 q 355 733 358 707 q 347 785 351 758 q 340 733 343 758 q 332 681 336 707 l 289 361 m 347 1086 q 290 1094 318 1086 q 242 1124 263 1103 q 213 1172 221 1144 q 204 1229 204 1200 q 213 1286 204 1258 q 242 1335 221 1314 q 290 1364 263 1356 q 347 1372 318 1372 q 404 1364 376 1372 q 453 1335 432 1356 q 482 1286 474 1314 q 490 1229 490 1258 q 482 1172 490 1200 q 453 1124 474 1144 q 404 1094 432 1103 q 347 1086 376 1086 m 347 1181 q 367 1183 357 1181 q 383 1193 376 1186 q 393 1210 390 1200 q 396 1229 396 1219 q 393 1249 396 1239 q 383 1265 390 1258 q 367 1275 376 1272 q 347 1278 357 1278 q 328 1275 338 1278 q 311 1265 318 1272 q 301 1249 304 1258 q 299 1229 299 1239 q 301 1210 299 1219 q 311 1193 304 1200 q 328 1183 318 1186 q 347 1181 338 1181 z "},"":{"ha":694,"x_min":31,"x_max":643,"o":"m 31 0 l 231 1021 l 643 1021 l 643 863 l 464 863 l 464 610 l 611 610 l 611 451 l 464 451 l 464 158 l 643 158 l 643 0 l 308 0 l 308 232 l 226 232 l 186 0 l 31 0 m 250 361 l 308 361 l 308 697 q 308 692 308 694 q 307 689 307 690 l 250 361 z "},"":{"ha":694,"x_min":67,"x_max":619,"o":"m 343 -11 q 265 -3 304 -11 q 192 26 226 6 q 133 77 158 46 q 93 144 108 108 q 72 220 78 181 q 67 299 67 260 l 67 722 q 72 801 67 761 q 93 876 78 840 q 133 944 108 913 q 192 995 158 975 q 265 1024 226 1015 q 343 1032 304 1032 q 416 1026 379 1032 q 485 1002 453 1019 q 544 958 518 985 q 586 899 569 932 q 611 831 603 867 q 619 758 619 794 l 619 750 l 429 750 l 429 753 q 425 794 429 774 q 410 833 421 815 q 382 863 400 851 q 343 874 364 874 q 312 866 326 874 q 288 846 297 858 q 272 818 278 833 q 262 787 265 803 q 258 755 258 771 q 257 722 257 739 l 257 299 q 258 266 257 282 q 262 234 258 250 q 272 203 265 218 q 288 175 278 188 q 312 155 297 163 q 343 147 326 147 q 382 158 364 147 q 410 188 400 169 q 425 226 421 206 q 429 268 429 247 l 429 271 l 619 271 l 619 263 q 611 190 619 226 q 586 122 603 154 q 544 63 569 89 q 485 19 518 36 q 416 -5 453 1 q 343 -11 379 -11 m 208 -306 l 208 -186 l 347 -186 q 362 -185 354 -186 q 376 -181 369 -183 q 388 -172 383 -178 q 392 -158 392 -165 q 388 -142 392 -150 q 378 -128 385 -133 q 364 -120 372 -122 q 347 -118 356 -118 l 275 -118 l 275 147 l 419 147 l 419 -74 q 451 -90 436 -79 q 477 -115 467 -100 q 492 -147 488 -129 q 497 -183 497 -165 q 485 -237 497 -211 q 451 -278 474 -262 q 402 -300 429 -294 q 347 -306 375 -306 l 208 -306 z "},"":{"ha":694,"x_min":89,"x_max":617,"o":"m 89 0 l 89 1021 l 617 1021 l 617 863 l 279 863 l 279 610 l 536 610 l 536 451 l 279 451 l 279 158 l 617 158 l 617 0 l 89 0 m 367 1094 l 168 1281 l 283 1372 l 460 1169 l 367 1094 z "},"":{"ha":694,"x_min":89,"x_max":617,"o":"m 89 0 l 89 1021 l 617 1021 l 617 863 l 279 863 l 279 610 l 536 610 l 536 451 l 279 451 l 279 158 l 617 158 l 617 0 l 89 0 m 328 1094 l 235 1169 l 411 1372 l 526 1281 l 328 1094 z "},"":{"ha":694,"x_min":89,"x_max":617,"o":"m 89 0 l 89 1021 l 617 1021 l 617 863 l 279 863 l 279 610 l 536 610 l 536 451 l 279 451 l 279 158 l 617 158 l 617 0 l 89 0 m 217 1117 l 133 1171 l 258 1364 l 436 1364 l 561 1171 l 478 1117 l 347 1264 l 217 1117 z "},"":{"ha":694,"x_min":89,"x_max":617,"o":"m 89 0 l 89 1021 l 617 1021 l 617 863 l 279 863 l 279 610 l 536 610 l 536 451 l 279 451 l 279 158 l 617 158 l 617 0 l 89 0 m 486 1125 q 444 1131 465 1125 q 409 1152 424 1138 q 388 1188 394 1167 q 382 1229 382 1208 q 388 1271 382 1250 q 409 1306 394 1292 q 444 1327 424 1321 q 486 1333 465 1333 q 528 1327 507 1333 q 563 1306 549 1321 q 584 1271 578 1292 q 590 1229 590 1250 q 584 1188 590 1208 q 563 1152 578 1167 q 528 1131 549 1138 q 486 1125 507 1125 m 208 1125 q 167 1131 188 1125 q 131 1152 146 1138 q 110 1188 117 1167 q 104 1229 104 1208 q 110 1271 104 1250 q 131 1306 117 1292 q 167 1327 146 1321 q 208 1333 188 1333 q 250 1327 229 1333 q 285 1306 271 1321 q 306 1271 300 1292 q 313 1229 313 1250 q 306 1188 313 1208 q 285 1152 300 1167 q 250 1131 271 1138 q 208 1125 229 1125 z "},"":{"ha":694,"x_min":104,"x_max":590,"o":"m 104 0 l 104 158 l 253 158 l 253 863 l 104 863 l 104 1021 l 590 1021 l 590 863 l 442 863 l 442 158 l 590 158 l 590 0 l 104 0 m 367 1094 l 168 1281 l 283 1372 l 460 1169 l 367 1094 z "},"":{"ha":694,"x_min":104,"x_max":590,"o":"m 104 0 l 104 158 l 253 158 l 253 863 l 104 863 l 104 1021 l 590 1021 l 590 863 l 442 863 l 442 158 l 590 158 l 590 0 l 104 0 m 328 1094 l 235 1169 l 411 1372 l 526 1281 l 328 1094 z "},"":{"ha":694,"x_min":104,"x_max":590,"o":"m 104 0 l 104 158 l 253 158 l 253 863 l 104 863 l 104 1021 l 590 1021 l 590 863 l 442 863 l 442 158 l 590 158 l 590 0 l 104 0 m 217 1117 l 133 1171 l 258 1364 l 436 1364 l 561 1171 l 478 1117 l 347 1264 l 217 1117 z "},"":{"ha":694,"x_min":104,"x_max":590,"o":"m 104 0 l 104 158 l 253 158 l 253 863 l 104 863 l 104 1021 l 590 1021 l 590 863 l 442 863 l 442 158 l 590 158 l 590 0 l 104 0 m 486 1125 q 444 1131 465 1125 q 409 1152 424 1138 q 388 1188 394 1167 q 382 1229 382 1208 q 388 1271 382 1250 q 409 1306 394 1292 q 444 1327 424 1321 q 486 1333 465 1333 q 528 1327 507 1333 q 563 1306 549 1321 q 584 1271 578 1292 q 590 1229 590 1250 q 584 1188 590 1208 q 563 1152 578 1167 q 528 1131 549 1138 q 486 1125 507 1125 m 208 1125 q 167 1131 188 1125 q 131 1152 146 1138 q 110 1188 117 1167 q 104 1229 104 1208 q 110 1271 104 1250 q 131 1306 117 1292 q 167 1327 146 1321 q 208 1333 188 1333 q 250 1327 229 1333 q 285 1306 271 1321 q 306 1271 300 1292 q 313 1229 313 1250 q 306 1188 313 1208 q 285 1152 300 1167 q 250 1131 271 1138 q 208 1125 229 1125 z "},"":{"ha":694,"x_min":24,"x_max":628,"o":"m 78 0 l 78 454 l 24 454 l 24 567 l 78 567 l 78 1021 l 289 1021 q 378 1013 333 1021 q 463 987 422 1006 q 536 937 503 968 q 590 866 569 906 q 619 782 611 826 q 628 692 628 738 l 628 329 q 619 239 628 283 q 590 155 611 194 q 536 84 569 115 q 463 34 503 53 q 378 8 422 15 q 288 0 333 0 l 78 0 m 268 158 l 289 158 q 351 170 321 158 q 402 207 382 182 q 430 264 422 232 q 438 329 438 296 l 438 693 q 430 757 438 725 q 402 814 422 789 q 351 851 382 839 q 288 863 321 863 l 268 863 l 268 567 l 371 567 l 371 454 l 268 454 l 268 158 z "},"":{"ha":694,"x_min":75,"x_max":619,"o":"m 78 0 l 78 1021 l 249 1021 l 435 440 q 428 526 431 483 q 426 613 426 569 l 426 1021 l 617 1021 l 617 0 l 446 0 l 260 581 q 266 494 264 538 q 268 408 268 451 l 268 0 l 78 0 m 426 1128 q 413 1128 419 1128 q 399 1131 406 1129 q 388 1133 393 1132 q 376 1138 382 1135 q 363 1143 369 1140 q 352 1149 357 1146 q 342 1156 347 1153 q 331 1165 336 1160 q 320 1174 325 1169 q 311 1183 315 1178 q 303 1192 307 1188 q 295 1200 299 1196 q 286 1211 292 1204 q 276 1223 281 1218 q 266 1232 271 1228 q 261 1238 261 1236 l 261 1239 q 263 1239 261 1239 l 265 1239 q 269 1238 267 1238 l 275 1238 q 272 1234 275 1236 q 265 1228 269 1232 q 260 1222 261 1224 q 257 1217 258 1219 q 253 1213 256 1215 q 249 1208 251 1211 q 245 1203 247 1206 q 241 1197 243 1200 q 237 1191 239 1194 q 233 1184 235 1188 q 228 1176 231 1181 q 224 1168 226 1172 q 218 1160 221 1164 q 213 1151 215 1156 q 208 1141 211 1146 q 203 1131 206 1136 l 75 1188 q 94 1222 85 1206 q 114 1252 104 1238 q 133 1278 124 1267 q 151 1301 142 1290 q 175 1322 161 1311 q 203 1341 189 1333 q 235 1353 218 1349 q 268 1358 251 1358 q 282 1358 275 1358 q 295 1356 289 1357 q 307 1352 301 1354 q 319 1348 313 1350 q 331 1342 325 1346 q 342 1336 338 1339 q 353 1329 347 1333 q 364 1321 358 1325 q 374 1312 369 1317 q 383 1302 379 1307 q 392 1293 388 1297 q 399 1285 396 1289 q 408 1274 403 1281 q 419 1263 414 1268 q 428 1253 424 1258 q 433 1247 433 1249 l 419 1247 q 422 1252 419 1250 q 429 1258 425 1254 q 435 1264 433 1263 q 438 1267 436 1265 q 441 1272 439 1269 q 445 1277 443 1275 q 449 1282 447 1279 q 453 1288 451 1285 q 458 1295 456 1292 q 462 1302 460 1299 q 466 1309 464 1306 q 471 1317 468 1313 q 476 1326 474 1321 q 481 1335 479 1331 q 486 1344 483 1339 q 492 1354 489 1350 l 619 1299 q 600 1263 610 1279 q 581 1233 590 1247 q 562 1208 571 1219 q 543 1185 553 1196 q 519 1163 533 1175 q 491 1144 506 1151 q 460 1132 476 1136 q 426 1128 443 1128 z "},"":{"ha":694,"x_min":67,"x_max":628,"o":"m 347 -11 q 268 -3 307 -11 q 195 26 229 6 q 135 76 161 46 q 94 144 110 107 q 72 219 78 181 q 67 299 67 258 l 67 722 q 72 801 67 763 q 94 877 78 840 q 135 944 110 914 q 195 995 161 975 q 268 1024 229 1015 q 347 1032 307 1032 q 426 1024 388 1032 q 499 995 465 1015 q 559 944 533 975 q 601 877 585 914 q 622 801 617 840 q 628 722 628 763 l 628 299 q 622 219 628 258 q 601 144 617 181 q 559 76 585 107 q 499 26 533 46 q 426 -3 465 6 q 347 -11 388 -11 m 347 147 q 379 154 364 147 q 405 174 394 161 q 422 201 415 186 q 431 233 428 217 q 436 266 435 250 q 438 299 438 282 l 438 722 q 436 755 438 739 q 431 788 435 771 q 422 819 428 804 q 405 847 415 835 q 379 867 394 860 q 347 874 364 874 q 315 867 331 874 q 290 847 300 860 q 273 819 279 835 q 263 788 267 804 q 258 755 260 771 q 257 722 257 739 l 257 299 q 258 266 257 282 q 263 233 260 250 q 273 201 267 217 q 290 174 279 186 q 315 154 300 161 q 347 147 331 147 m 367 1094 l 168 1281 l 283 1372 l 460 1169 l 367 1094 z "},"":{"ha":694,"x_min":67,"x_max":628,"o":"m 347 -11 q 268 -3 307 -11 q 195 26 229 6 q 135 76 161 46 q 94 144 110 107 q 72 219 78 181 q 67 299 67 258 l 67 722 q 72 801 67 763 q 94 877 78 840 q 135 944 110 914 q 195 995 161 975 q 268 1024 229 1015 q 347 1032 307 1032 q 426 1024 388 1032 q 499 995 465 1015 q 559 944 533 975 q 601 877 585 914 q 622 801 617 840 q 628 722 628 763 l 628 299 q 622 219 628 258 q 601 144 617 181 q 559 76 585 107 q 499 26 533 46 q 426 -3 465 6 q 347 -11 388 -11 m 347 147 q 379 154 364 147 q 405 174 394 161 q 422 201 415 186 q 431 233 428 217 q 436 266 435 250 q 438 299 438 282 l 438 722 q 436 755 438 739 q 431 788 435 771 q 422 819 428 804 q 405 847 415 835 q 379 867 394 860 q 347 874 364 874 q 315 867 331 874 q 290 847 300 860 q 273 819 279 835 q 263 788 267 804 q 258 755 260 771 q 257 722 257 739 l 257 299 q 258 266 257 282 q 263 233 260 250 q 273 201 267 217 q 290 174 279 186 q 315 154 300 161 q 347 147 331 147 m 328 1094 l 235 1169 l 411 1372 l 526 1281 l 328 1094 z "},"":{"ha":694,"x_min":67,"x_max":628,"o":"m 347 -11 q 268 -3 307 -11 q 195 26 229 6 q 135 76 161 46 q 94 144 110 107 q 72 219 78 181 q 67 299 67 258 l 67 722 q 72 801 67 763 q 94 877 78 840 q 135 944 110 914 q 195 995 161 975 q 268 1024 229 1015 q 347 1032 307 1032 q 426 1024 388 1032 q 499 995 465 1015 q 559 944 533 975 q 601 877 585 914 q 622 801 617 840 q 628 722 628 763 l 628 299 q 622 219 628 258 q 601 144 617 181 q 559 76 585 107 q 499 26 533 46 q 426 -3 465 6 q 347 -11 388 -11 m 347 147 q 379 154 364 147 q 405 174 394 161 q 422 201 415 186 q 431 233 428 217 q 436 266 435 250 q 438 299 438 282 l 438 722 q 436 755 438 739 q 431 788 435 771 q 422 819 428 804 q 405 847 415 835 q 379 867 394 860 q 347 874 364 874 q 315 867 331 874 q 290 847 300 860 q 273 819 279 835 q 263 788 267 804 q 258 755 260 771 q 257 722 257 739 l 257 299 q 258 266 257 282 q 263 233 260 250 q 273 201 267 217 q 290 174 279 186 q 315 154 300 161 q 347 147 331 147 m 217 1117 l 133 1171 l 258 1364 l 436 1364 l 561 1171 l 478 1117 l 347 1264 l 217 1117 z "},"":{"ha":694,"x_min":67,"x_max":628,"o":"m 347 -11 q 268 -3 307 -11 q 195 26 229 6 q 135 76 161 46 q 94 144 110 107 q 72 219 78 181 q 67 299 67 258 l 67 722 q 72 801 67 763 q 94 877 78 840 q 135 944 110 914 q 195 995 161 975 q 268 1024 229 1015 q 347 1032 307 1032 q 426 1024 388 1032 q 499 995 465 1015 q 559 944 533 975 q 601 877 585 914 q 622 801 617 840 q 628 722 628 763 l 628 299 q 622 219 628 258 q 601 144 617 181 q 559 76 585 107 q 499 26 533 46 q 426 -3 465 6 q 347 -11 388 -11 m 347 147 q 379 154 364 147 q 405 174 394 161 q 422 201 415 186 q 431 233 428 217 q 436 266 435 250 q 438 299 438 282 l 438 722 q 436 755 438 739 q 431 788 435 771 q 422 819 428 804 q 405 847 415 835 q 379 867 394 860 q 347 874 364 874 q 315 867 331 874 q 290 847 300 860 q 273 819 279 835 q 263 788 267 804 q 258 755 260 771 q 257 722 257 739 l 257 299 q 258 266 257 282 q 263 233 260 250 q 273 201 267 217 q 290 174 279 186 q 315 154 300 161 q 347 147 331 147 m 426 1128 q 413 1128 419 1128 q 399 1131 406 1129 q 388 1133 393 1132 q 376 1138 382 1135 q 363 1143 369 1140 q 352 1149 357 1146 q 342 1156 347 1153 q 331 1165 336 1160 q 320 1174 325 1169 q 311 1183 315 1178 q 303 1192 307 1188 q 295 1200 299 1196 q 286 1211 292 1204 q 276 1223 281 1218 q 266 1232 271 1228 q 261 1238 261 1236 l 261 1239 q 263 1239 261 1239 l 265 1239 q 269 1238 267 1238 l 275 1238 q 272 1234 275 1236 q 265 1228 269 1232 q 260 1222 261 1224 q 257 1217 258 1219 q 253 1213 256 1215 q 249 1208 251 1211 q 245 1203 247 1206 q 241 1197 243 1200 q 237 1191 239 1194 q 233 1184 235 1188 q 228 1176 231 1181 q 224 1168 226 1172 q 218 1160 221 1164 q 213 1151 215 1156 q 208 1141 211 1146 q 203 1131 206 1136 l 75 1188 q 94 1222 85 1206 q 114 1252 104 1238 q 133 1278 124 1267 q 151 1301 142 1290 q 175 1322 161 1311 q 203 1341 189 1333 q 235 1353 218 1349 q 268 1358 251 1358 q 282 1358 275 1358 q 295 1356 289 1357 q 307 1352 301 1354 q 319 1348 313 1350 q 331 1342 325 1346 q 342 1336 338 1339 q 353 1329 347 1333 q 364 1321 358 1325 q 374 1312 369 1317 q 383 1302 379 1307 q 392 1293 388 1297 q 399 1285 396 1289 q 408 1274 403 1281 q 419 1263 414 1268 q 428 1253 424 1258 q 433 1247 433 1249 l 419 1247 q 422 1252 419 1250 q 429 1258 425 1254 q 435 1264 433 1263 q 438 1267 436 1265 q 441 1272 439 1269 q 445 1277 443 1275 q 449 1282 447 1279 q 453 1288 451 1285 q 458 1295 456 1292 q 462 1302 460 1299 q 466 1309 464 1306 q 471 1317 468 1313 q 476 1326 474 1321 q 481 1335 479 1331 q 486 1344 483 1339 q 492 1354 489 1350 l 619 1299 q 600 1263 610 1279 q 581 1233 590 1247 q 562 1208 571 1219 q 543 1185 553 1196 q 519 1163 533 1175 q 491 1144 506 1151 q 460 1132 476 1136 q 426 1128 443 1128 z "},"":{"ha":694,"x_min":67,"x_max":628,"o":"m 347 -11 q 268 -3 307 -11 q 195 26 229 6 q 135 76 161 46 q 94 144 110 107 q 72 219 78 181 q 67 299 67 258 l 67 722 q 72 801 67 763 q 94 877 78 840 q 135 944 110 914 q 195 995 161 975 q 268 1024 229 1015 q 347 1032 307 1032 q 426 1024 388 1032 q 499 995 465 1015 q 559 944 533 975 q 601 877 585 914 q 622 801 617 840 q 628 722 628 763 l 628 299 q 622 219 628 258 q 601 144 617 181 q 559 76 585 107 q 499 26 533 46 q 426 -3 465 6 q 347 -11 388 -11 m 347 147 q 379 154 364 147 q 405 174 394 161 q 422 201 415 186 q 431 233 428 217 q 436 266 435 250 q 438 299 438 282 l 438 722 q 436 755 438 739 q 431 788 435 771 q 422 819 428 804 q 405 847 415 835 q 379 867 394 860 q 347 874 364 874 q 315 867 331 874 q 290 847 300 860 q 273 819 279 835 q 263 788 267 804 q 258 755 260 771 q 257 722 257 739 l 257 299 q 258 266 257 282 q 263 233 260 250 q 273 201 267 217 q 290 174 279 186 q 315 154 300 161 q 347 147 331 147 m 486 1125 q 444 1131 465 1125 q 409 1152 424 1138 q 388 1188 394 1167 q 382 1229 382 1208 q 388 1271 382 1250 q 409 1306 394 1292 q 444 1327 424 1321 q 486 1333 465 1333 q 528 1327 507 1333 q 563 1306 549 1321 q 584 1271 578 1292 q 590 1229 590 1250 q 584 1188 590 1208 q 563 1152 578 1167 q 528 1131 549 1138 q 486 1125 507 1125 m 208 1125 q 167 1131 188 1125 q 131 1152 146 1138 q 110 1188 117 1167 q 104 1229 104 1208 q 110 1271 104 1250 q 131 1306 117 1292 q 167 1327 146 1321 q 208 1333 188 1333 q 250 1327 229 1333 q 285 1306 271 1321 q 306 1271 300 1292 q 313 1229 313 1250 q 306 1188 313 1208 q 285 1152 300 1167 q 250 1131 271 1138 q 208 1125 229 1125 z "},"":{"ha":694,"x_min":0,"x_max":694,"o":"m 117 135 l 0 232 l 242 472 l 0 713 l 117 810 l 347 578 l 578 810 l 694 713 l 453 472 l 694 232 l 578 135 l 347 367 l 117 135 z "},"":{"ha":694,"x_min":60,"x_max":635,"o":"m 185 -72 l 60 -31 l 114 104 q 92 150 101 126 q 76 198 82 174 q 69 248 71 222 q 67 299 67 274 l 67 722 q 72 801 67 763 q 94 877 78 840 q 135 944 110 914 q 195 995 161 975 q 268 1024 229 1015 q 347 1032 307 1032 q 413 1026 381 1032 q 476 1007 446 1021 l 510 1093 l 635 1051 l 581 917 q 603 871 593 894 q 618 823 613 847 q 626 773 624 799 q 628 722 628 747 l 628 299 q 622 219 628 258 q 601 144 617 181 q 559 76 585 107 q 499 26 533 46 q 426 -3 465 6 q 347 -11 388 -11 q 281 -6 314 -11 q 218 14 249 0 l 185 -72 m 257 460 l 410 840 q 382 865 399 856 q 347 874 365 874 q 315 867 331 874 q 290 847 300 860 q 273 819 279 835 q 263 788 267 804 q 258 755 260 771 q 257 722 257 739 l 257 460 m 347 147 q 379 154 364 147 q 405 174 394 161 q 422 201 415 186 q 431 233 428 217 q 436 266 435 250 q 438 299 438 282 l 438 561 l 285 181 q 313 156 296 165 q 347 147 329 147 z "},"":{"ha":694,"x_min":78,"x_max":617,"o":"m 347 -11 q 270 -3 308 -11 q 199 26 232 6 q 141 78 165 47 q 103 146 117 110 q 83 221 89 182 q 78 299 78 260 l 78 1021 l 268 1021 l 268 299 q 269 267 268 283 q 272 236 269 251 q 281 206 275 221 q 294 177 286 190 q 317 156 303 164 q 347 147 332 147 q 377 156 363 147 q 400 177 392 164 q 414 206 408 190 q 422 236 419 221 q 426 267 425 251 q 426 299 426 283 l 426 1021 l 617 1021 l 617 299 q 611 221 617 260 q 592 146 606 182 q 553 78 578 110 q 496 26 529 47 q 424 -3 463 6 q 347 -11 386 -11 m 367 1094 l 168 1281 l 283 1372 l 460 1169 l 367 1094 z "},"":{"ha":694,"x_min":78,"x_max":617,"o":"m 347 -11 q 270 -3 308 -11 q 199 26 232 6 q 141 78 165 47 q 103 146 117 110 q 83 221 89 182 q 78 299 78 260 l 78 1021 l 268 1021 l 268 299 q 269 267 268 283 q 272 236 269 251 q 281 206 275 221 q 294 177 286 190 q 317 156 303 164 q 347 147 332 147 q 377 156 363 147 q 400 177 392 164 q 414 206 408 190 q 422 236 419 221 q 426 267 425 251 q 426 299 426 283 l 426 1021 l 617 1021 l 617 299 q 611 221 617 260 q 592 146 606 182 q 553 78 578 110 q 496 26 529 47 q 424 -3 463 6 q 347 -11 386 -11 m 328 1094 l 235 1169 l 411 1372 l 526 1281 l 328 1094 z "},"":{"ha":694,"x_min":78,"x_max":617,"o":"m 347 -11 q 270 -3 308 -11 q 199 26 232 6 q 141 78 165 47 q 103 146 117 110 q 83 221 89 182 q 78 299 78 260 l 78 1021 l 268 1021 l 268 299 q 269 267 268 283 q 272 236 269 251 q 281 206 275 221 q 294 177 286 190 q 317 156 303 164 q 347 147 332 147 q 377 156 363 147 q 400 177 392 164 q 414 206 408 190 q 422 236 419 221 q 426 267 425 251 q 426 299 426 283 l 426 1021 l 617 1021 l 617 299 q 611 221 617 260 q 592 146 606 182 q 553 78 578 110 q 496 26 529 47 q 424 -3 463 6 q 347 -11 386 -11 m 217 1117 l 133 1171 l 258 1364 l 436 1364 l 561 1171 l 478 1117 l 347 1264 l 217 1117 z "},"":{"ha":694,"x_min":78,"x_max":617,"o":"m 347 -11 q 270 -3 308 -11 q 199 26 232 6 q 141 78 165 47 q 103 146 117 110 q 83 221 89 182 q 78 299 78 260 l 78 1021 l 268 1021 l 268 299 q 269 267 268 283 q 272 236 269 251 q 281 206 275 221 q 294 177 286 190 q 317 156 303 164 q 347 147 332 147 q 377 156 363 147 q 400 177 392 164 q 414 206 408 190 q 422 236 419 221 q 426 267 425 251 q 426 299 426 283 l 426 1021 l 617 1021 l 617 299 q 611 221 617 260 q 592 146 606 182 q 553 78 578 110 q 496 26 529 47 q 424 -3 463 6 q 347 -11 386 -11 m 486 1125 q 444 1131 465 1125 q 409 1152 424 1138 q 388 1188 394 1167 q 382 1229 382 1208 q 388 1271 382 1250 q 409 1306 394 1292 q 444 1327 424 1321 q 486 1333 465 1333 q 528 1327 507 1333 q 563 1306 549 1321 q 584 1271 578 1292 q 590 1229 590 1250 q 584 1188 590 1208 q 563 1152 578 1167 q 528 1131 549 1138 q 486 1125 507 1125 m 208 1125 q 167 1131 188 1125 q 131 1152 146 1138 q 110 1188 117 1167 q 104 1229 104 1208 q 110 1271 104 1250 q 131 1306 117 1292 q 167 1327 146 1321 q 208 1333 188 1333 q 250 1327 229 1333 q 285 1306 271 1321 q 306 1271 300 1292 q 313 1229 313 1250 q 306 1188 313 1208 q 285 1152 300 1167 q 250 1131 271 1138 q 208 1125 229 1125 z "},"":{"ha":694,"x_min":40,"x_max":654,"o":"m 253 0 l 253 446 l 40 1021 l 242 1021 l 347 672 l 453 1021 l 654 1021 l 442 446 l 442 0 l 253 0 m 328 1094 l 235 1169 l 411 1372 l 526 1281 l 328 1094 z "},"":{"ha":694,"x_min":97,"x_max":628,"o":"m 97 0 l 97 1021 l 288 1021 l 288 826 l 300 826 q 386 819 343 826 q 468 794 429 813 q 539 746 507 776 q 592 677 571 715 q 620 597 613 639 q 628 511 628 554 q 620 424 628 467 q 592 344 613 382 q 539 275 571 306 q 468 226 507 244 q 386 201 429 208 q 300 194 343 194 l 288 194 l 288 0 l 97 0 m 300 353 q 358 364 331 353 q 405 399 386 375 q 431 451 424 422 q 438 511 438 481 q 431 569 438 540 q 405 622 424 599 q 358 657 386 646 q 300 668 331 668 l 288 668 l 288 353 l 300 353 z "},"":{"ha":694,"x_min":78,"x_max":628,"o":"m 78 0 l 78 722 q 83 798 78 760 q 101 872 88 836 q 137 940 114 908 q 191 992 160 971 q 260 1023 222 1014 q 336 1032 299 1032 q 408 1024 372 1032 q 475 997 444 1015 q 528 949 506 978 q 566 886 551 919 q 588 817 581 853 q 594 744 594 781 q 576 632 594 688 q 519 532 557 576 q 569 485 547 513 q 603 427 590 458 q 622 363 617 396 q 628 294 628 329 q 619 212 628 253 q 590 135 611 171 q 538 73 569 100 q 467 29 506 46 q 388 6 429 13 q 306 0 347 0 l 303 0 l 303 158 l 306 158 q 359 167 333 158 q 403 195 385 175 q 430 242 422 215 q 438 294 438 268 q 430 349 438 322 q 404 394 422 375 q 360 422 386 414 q 306 431 333 431 l 306 590 q 352 605 331 590 q 385 642 374 619 q 401 689 397 664 q 404 740 404 714 q 403 767 404 753 q 400 794 403 781 q 393 822 397 808 q 381 847 389 835 q 362 866 374 858 q 336 874 350 874 q 308 864 321 874 q 289 841 296 854 q 278 813 282 828 q 272 783 274 797 q 269 753 269 768 q 268 722 268 738 l 268 0 l 78 0 z "},"":{"ha":694,"x_min":67,"x_max":617,"o":"m 257 -11 q 178 3 217 -11 q 113 49 139 18 q 77 121 88 81 q 67 201 67 161 q 76 276 67 239 q 106 343 85 313 q 160 395 128 374 q 227 429 192 417 q 299 446 263 442 q 374 450 336 450 l 426 450 l 426 482 q 422 517 426 500 q 408 548 418 535 q 381 568 397 561 q 346 575 364 575 q 315 571 331 575 q 288 557 300 567 q 271 533 276 547 q 265 503 265 518 l 265 500 l 75 500 l 75 508 q 85 573 75 540 q 113 633 94 606 q 158 680 131 660 q 216 713 185 700 q 280 729 247 725 q 346 733 313 733 q 415 728 381 733 q 483 708 450 722 q 542 671 515 694 q 585 617 568 647 q 610 551 603 586 q 617 482 617 517 l 617 0 l 426 0 l 426 108 q 401 60 417 83 q 363 20 385 36 q 313 -3 340 4 q 257 -11 285 -11 m 342 147 q 378 155 360 147 q 407 178 396 163 q 422 212 418 193 q 426 250 426 231 l 426 292 l 374 292 q 348 291 361 292 q 322 288 335 290 q 298 279 310 285 q 276 265 286 274 q 262 244 267 257 q 257 219 257 232 q 263 189 257 204 q 282 164 269 174 q 310 151 294 154 q 342 147 325 147 m 367 796 l 168 982 l 283 1074 l 460 871 l 367 796 z "},"":{"ha":694,"x_min":67,"x_max":617,"o":"m 257 -11 q 178 3 217 -11 q 113 49 139 18 q 77 121 88 81 q 67 201 67 161 q 76 276 67 239 q 106 343 85 313 q 160 395 128 374 q 227 429 192 417 q 299 446 263 442 q 374 450 336 450 l 426 450 l 426 482 q 422 517 426 500 q 408 548 418 535 q 381 568 397 561 q 346 575 364 575 q 315 571 331 575 q 288 557 300 567 q 271 533 276 547 q 265 503 265 518 l 265 500 l 75 500 l 75 508 q 85 573 75 540 q 113 633 94 606 q 158 680 131 660 q 216 713 185 700 q 280 729 247 725 q 346 733 313 733 q 415 728 381 733 q 483 708 450 722 q 542 671 515 694 q 585 617 568 647 q 610 551 603 586 q 617 482 617 517 l 617 0 l 426 0 l 426 108 q 401 60 417 83 q 363 20 385 36 q 313 -3 340 4 q 257 -11 285 -11 m 342 147 q 378 155 360 147 q 407 178 396 163 q 422 212 418 193 q 426 250 426 231 l 426 292 l 374 292 q 348 291 361 292 q 322 288 335 290 q 298 279 310 285 q 276 265 286 274 q 262 244 267 257 q 257 219 257 232 q 263 189 257 204 q 282 164 269 174 q 310 151 294 154 q 342 147 325 147 m 328 796 l 235 871 l 411 1074 l 526 982 l 328 796 z "},"":{"ha":694,"x_min":67,"x_max":617,"o":"m 257 -11 q 178 3 217 -11 q 113 49 139 18 q 77 121 88 81 q 67 201 67 161 q 76 276 67 239 q 106 343 85 313 q 160 395 128 374 q 227 429 192 417 q 299 446 263 442 q 374 450 336 450 l 426 450 l 426 482 q 422 517 426 500 q 408 548 418 535 q 381 568 397 561 q 346 575 364 575 q 315 571 331 575 q 288 557 300 567 q 271 533 276 547 q 265 503 265 518 l 265 500 l 75 500 l 75 508 q 85 573 75 540 q 113 633 94 606 q 158 680 131 660 q 216 713 185 700 q 280 729 247 725 q 346 733 313 733 q 415 728 381 733 q 483 708 450 722 q 542 671 515 694 q 585 617 568 647 q 610 551 603 586 q 617 482 617 517 l 617 0 l 426 0 l 426 108 q 401 60 417 83 q 363 20 385 36 q 313 -3 340 4 q 257 -11 285 -11 m 342 147 q 378 155 360 147 q 407 178 396 163 q 422 212 418 193 q 426 250 426 231 l 426 292 l 374 292 q 348 291 361 292 q 322 288 335 290 q 298 279 310 285 q 276 265 286 274 q 262 244 267 257 q 257 219 257 232 q 263 189 257 204 q 282 164 269 174 q 310 151 294 154 q 342 147 325 147 m 217 818 l 133 872 l 258 1065 l 436 1065 l 561 872 l 478 818 l 347 965 l 217 818 z "},"":{"ha":694,"x_min":67,"x_max":619,"o":"m 257 -11 q 178 3 217 -11 q 113 49 139 18 q 77 121 88 81 q 67 201 67 161 q 76 276 67 239 q 106 343 85 313 q 160 395 128 374 q 227 429 192 417 q 299 446 263 442 q 374 450 336 450 l 426 450 l 426 482 q 422 517 426 500 q 408 548 418 535 q 381 568 397 561 q 346 575 364 575 q 315 571 331 575 q 288 557 300 567 q 271 533 276 547 q 265 503 265 518 l 265 500 l 75 500 l 75 508 q 85 573 75 540 q 113 633 94 606 q 158 680 131 660 q 216 713 185 700 q 280 729 247 725 q 346 733 313 733 q 415 728 381 733 q 483 708 450 722 q 542 671 515 694 q 585 617 568 647 q 610 551 603 586 q 617 482 617 517 l 617 0 l 426 0 l 426 108 q 401 60 417 83 q 363 20 385 36 q 313 -3 340 4 q 257 -11 285 -11 m 342 147 q 378 155 360 147 q 407 178 396 163 q 422 212 418 193 q 426 250 426 231 l 426 292 l 374 292 q 348 291 361 292 q 322 288 335 290 q 298 279 310 285 q 276 265 286 274 q 262 244 267 257 q 257 219 257 232 q 263 189 257 204 q 282 164 269 174 q 310 151 294 154 q 342 147 325 147 m 426 829 q 413 830 419 829 q 399 832 406 831 q 388 835 393 833 q 376 839 382 836 q 363 844 369 842 q 352 851 357 847 q 342 858 347 854 q 331 866 336 861 q 320 875 325 871 q 311 884 315 879 q 303 893 307 889 q 295 901 299 897 q 286 913 292 906 q 276 924 281 919 q 266 933 271 929 q 261 939 261 938 l 261 940 q 263 940 261 940 l 265 940 q 269 939 267 939 l 275 939 q 272 935 275 938 q 265 929 269 933 q 260 923 261 925 q 257 919 258 921 q 253 915 256 917 q 249 910 251 913 q 245 904 247 907 q 241 899 243 901 q 237 892 239 896 q 233 885 235 889 q 228 878 231 882 q 224 869 226 874 q 218 861 221 865 q 213 852 215 857 q 208 842 211 847 q 203 832 206 838 l 75 889 q 94 923 85 907 q 114 953 104 939 q 133 980 124 968 q 151 1002 142 992 q 175 1024 161 1013 q 203 1042 189 1035 q 235 1055 218 1050 q 268 1060 251 1060 q 282 1059 275 1060 q 295 1057 289 1058 q 307 1053 301 1056 q 319 1049 313 1051 q 331 1044 325 1047 q 342 1038 338 1040 q 353 1031 347 1035 q 364 1022 358 1026 q 374 1013 369 1018 q 383 1003 379 1008 q 392 994 388 999 q 399 986 396 990 q 408 976 403 982 q 419 965 414 969 q 428 955 424 960 q 433 949 433 950 l 419 949 q 422 953 419 951 q 429 960 425 956 q 435 965 433 964 q 438 969 436 967 q 441 974 439 971 q 445 978 443 976 q 449 983 447 981 q 453 990 451 986 q 458 997 456 993 q 462 1003 460 1000 q 466 1010 464 1007 q 471 1018 468 1014 q 476 1027 474 1022 q 481 1036 479 1032 q 486 1046 483 1040 q 492 1056 489 1051 l 619 1000 q 600 965 610 981 q 581 935 590 949 q 562 909 571 921 q 543 887 553 897 q 519 865 533 876 q 491 845 506 853 q 460 833 476 838 q 426 829 443 829 z "},"":{"ha":694,"x_min":67,"x_max":617,"o":"m 257 -11 q 178 3 217 -11 q 113 49 139 18 q 77 121 88 81 q 67 201 67 161 q 76 276 67 239 q 106 343 85 313 q 160 395 128 374 q 227 429 192 417 q 299 446 263 442 q 374 450 336 450 l 426 450 l 426 482 q 422 517 426 500 q 408 548 418 535 q 381 568 397 561 q 346 575 364 575 q 315 571 331 575 q 288 557 300 567 q 271 533 276 547 q 265 503 265 518 l 265 500 l 75 500 l 75 508 q 85 573 75 540 q 113 633 94 606 q 158 680 131 660 q 216 713 185 700 q 280 729 247 725 q 346 733 313 733 q 415 728 381 733 q 483 708 450 722 q 542 671 515 694 q 585 617 568 647 q 610 551 603 586 q 617 482 617 517 l 617 0 l 426 0 l 426 108 q 401 60 417 83 q 363 20 385 36 q 313 -3 340 4 q 257 -11 285 -11 m 342 147 q 378 155 360 147 q 407 178 396 163 q 422 212 418 193 q 426 250 426 231 l 426 292 l 374 292 q 348 291 361 292 q 322 288 335 290 q 298 279 310 285 q 276 265 286 274 q 262 244 267 257 q 257 219 257 232 q 263 189 257 204 q 282 164 269 174 q 310 151 294 154 q 342 147 325 147 m 486 826 q 444 833 465 826 q 409 853 424 839 q 388 889 394 868 q 382 931 382 910 q 388 972 382 951 q 409 1008 394 993 q 444 1028 424 1022 q 486 1035 465 1035 q 528 1028 507 1035 q 563 1008 549 1022 q 584 972 578 993 q 590 931 590 951 q 584 889 590 910 q 563 853 578 868 q 528 833 549 839 q 486 826 507 826 m 208 826 q 167 833 188 826 q 131 853 146 839 q 110 889 117 868 q 104 931 104 910 q 110 972 104 951 q 131 1008 117 993 q 167 1028 146 1022 q 208 1035 188 1035 q 250 1028 229 1035 q 285 1008 271 1022 q 306 972 300 993 q 313 931 313 951 q 306 889 313 910 q 285 853 300 868 q 250 833 271 839 q 208 826 229 826 z "},"":{"ha":694,"x_min":67,"x_max":617,"o":"m 257 -11 q 178 3 217 -11 q 113 49 139 18 q 77 121 88 81 q 67 201 67 161 q 76 276 67 239 q 106 343 85 313 q 160 395 128 374 q 227 429 192 417 q 299 446 263 442 q 374 450 336 450 l 426 450 l 426 482 q 422 517 426 500 q 408 548 418 535 q 381 568 397 561 q 346 575 364 575 q 315 571 331 575 q 288 557 300 567 q 271 533 276 547 q 265 503 265 518 l 265 500 l 75 500 l 75 508 q 85 573 75 540 q 113 633 94 606 q 158 680 131 660 q 216 713 185 700 q 280 729 247 725 q 346 733 313 733 q 415 728 381 733 q 483 708 450 722 q 542 671 515 694 q 585 617 568 647 q 610 551 603 586 q 617 482 617 517 l 617 0 l 426 0 l 426 108 q 401 60 417 83 q 363 20 385 36 q 313 -3 340 4 q 257 -11 285 -11 m 342 147 q 378 155 360 147 q 407 178 396 163 q 422 212 418 193 q 426 250 426 231 l 426 292 l 374 292 q 348 291 361 292 q 322 288 335 290 q 298 279 310 285 q 276 265 286 274 q 262 244 267 257 q 257 219 257 232 q 263 189 257 204 q 282 164 269 174 q 310 151 294 154 q 342 147 325 147 m 347 788 q 290 796 318 788 q 242 825 263 804 q 213 874 221 846 q 204 931 204 901 q 213 988 204 960 q 242 1036 221 1015 q 290 1065 263 1057 q 347 1074 318 1074 q 404 1065 376 1074 q 453 1036 432 1057 q 482 988 474 1015 q 490 931 490 960 q 482 874 490 901 q 453 825 474 846 q 404 796 432 804 q 347 788 376 788 m 347 882 q 367 885 357 882 q 383 894 376 888 q 393 911 390 901 q 396 931 396 921 q 393 950 396 940 q 383 967 390 960 q 367 976 376 974 q 347 979 357 979 q 328 976 338 979 q 311 967 318 974 q 301 950 304 960 q 299 931 299 940 q 301 911 299 921 q 311 894 304 901 q 328 885 318 888 q 347 882 338 882 z "},"":{"ha":694,"x_min":40,"x_max":654,"o":"m 232 -11 q 152 4 192 -11 q 86 51 113 19 q 50 124 60 83 q 40 206 40 165 q 44 266 40 236 q 61 324 49 296 q 94 374 74 351 q 140 412 114 397 q 197 432 167 426 q 257 438 226 438 l 269 438 l 269 551 q 268 569 269 561 q 263 585 267 578 q 253 599 260 593 q 238 604 246 604 q 222 596 228 604 q 213 578 217 588 q 208 560 210 569 q 206 542 207 551 q 204 524 204 533 q 204 506 204 514 l 204 500 l 49 500 l 49 511 q 53 566 49 539 q 67 619 57 593 q 94 667 78 644 q 133 705 111 689 q 183 727 156 721 q 238 733 210 733 q 296 727 267 733 q 350 706 325 721 q 404 727 375 721 q 463 733 433 733 q 515 728 489 733 q 565 711 542 724 q 606 678 588 699 q 635 635 624 658 q 650 585 646 611 q 654 532 654 558 l 654 296 l 425 296 l 425 190 q 426 168 425 179 q 431 147 428 157 q 442 127 433 136 q 460 118 450 118 q 476 126 469 118 q 485 143 482 135 q 491 160 489 151 q 494 179 493 169 q 496 198 496 189 q 496 217 496 207 l 496 222 l 651 222 l 651 210 q 647 156 651 183 q 633 102 643 128 q 605 54 622 76 q 565 17 588 32 q 515 -5 542 1 q 460 -11 488 -11 q 399 -4 429 -11 q 344 21 369 3 q 291 -3 319 4 q 232 -11 263 -11 m 425 426 l 499 426 l 499 532 q 498 554 499 543 q 493 576 497 565 q 481 595 489 586 q 463 604 474 604 q 443 595 451 604 q 431 576 435 586 q 426 554 428 565 q 425 532 425 543 l 425 426 m 232 118 q 249 126 242 118 q 259 143 256 135 q 265 161 263 151 q 267 181 267 171 q 269 200 268 190 q 269 219 269 210 l 269 308 l 257 308 q 227 299 240 308 q 207 274 214 289 q 198 244 200 260 q 196 213 196 228 q 196 194 196 203 q 197 176 196 185 q 201 158 199 167 q 206 140 203 149 q 217 125 210 132 q 232 118 224 118 z "},"":{"ha":694,"x_min":67,"x_max":619,"o":"m 343 -11 q 268 -4 306 -11 q 197 21 231 3 q 137 67 163 39 q 95 130 111 96 q 73 202 79 164 q 67 278 67 240 l 67 444 q 73 520 67 482 q 95 592 79 558 q 137 655 111 626 q 197 701 163 683 q 268 726 231 719 q 343 733 306 733 q 415 727 379 733 q 484 704 451 721 q 543 662 517 688 q 586 604 569 636 q 611 536 603 572 q 619 464 619 500 l 619 451 l 429 451 l 429 457 q 425 498 429 478 q 410 536 421 518 q 382 565 400 554 q 343 575 364 575 q 302 563 321 575 q 274 531 283 550 q 260 489 264 511 q 257 444 257 467 l 257 278 q 260 233 257 256 q 274 192 264 211 q 302 160 283 172 q 343 147 321 147 q 382 158 364 147 q 410 186 400 168 q 425 224 421 204 q 429 265 429 244 l 429 271 l 619 271 l 619 258 q 611 186 619 222 q 586 118 603 150 q 543 60 569 86 q 484 18 517 35 q 415 -5 451 1 q 343 -11 379 -11 m 208 -306 l 208 -186 l 347 -186 q 362 -185 354 -186 q 376 -181 369 -183 q 388 -172 383 -178 q 392 -158 392 -165 q 388 -142 392 -150 q 378 -128 385 -133 q 364 -120 372 -122 q 347 -118 356 -118 l 275 -118 l 275 147 l 419 147 l 419 -74 q 451 -90 436 -79 q 477 -115 467 -100 q 492 -147 488 -129 q 497 -183 497 -165 q 485 -237 497 -211 q 451 -278 474 -262 q 402 -300 429 -294 q 347 -306 375 -306 l 208 -306 z "},"":{"ha":694,"x_min":67,"x_max":628,"o":"m 346 -11 q 270 -4 308 -11 q 199 21 232 3 q 139 67 165 39 q 96 129 113 94 q 73 202 79 164 q 67 278 67 240 l 67 444 q 73 521 67 483 q 96 593 79 558 q 139 656 113 628 q 199 701 165 683 q 271 726 233 719 q 347 733 308 733 q 424 726 386 733 q 495 701 461 719 q 556 656 529 683 q 599 593 582 628 q 622 521 615 558 q 628 444 628 483 l 628 282 l 257 282 l 257 278 q 260 233 257 256 q 274 191 264 211 q 304 159 285 171 q 346 147 324 147 q 379 151 363 147 q 408 165 396 156 q 428 190 421 175 q 435 222 435 206 l 625 222 l 625 221 q 615 154 625 188 q 586 93 606 121 q 540 44 567 65 q 481 11 513 24 q 415 -6 449 -1 q 346 -11 381 -11 m 257 440 l 438 440 l 438 444 q 434 489 438 467 q 420 531 431 511 q 390 563 410 551 q 347 575 369 575 q 305 563 325 575 q 274 531 285 551 q 260 489 264 511 q 257 444 257 467 l 257 440 m 367 796 l 168 982 l 283 1074 l 460 871 l 367 796 z "},"":{"ha":694,"x_min":67,"x_max":628,"o":"m 346 -11 q 270 -4 308 -11 q 199 21 232 3 q 139 67 165 39 q 96 129 113 94 q 73 202 79 164 q 67 278 67 240 l 67 444 q 73 521 67 483 q 96 593 79 558 q 139 656 113 628 q 199 701 165 683 q 271 726 233 719 q 347 733 308 733 q 424 726 386 733 q 495 701 461 719 q 556 656 529 683 q 599 593 582 628 q 622 521 615 558 q 628 444 628 483 l 628 282 l 257 282 l 257 278 q 260 233 257 256 q 274 191 264 211 q 304 159 285 171 q 346 147 324 147 q 379 151 363 147 q 408 165 396 156 q 428 190 421 175 q 435 222 435 206 l 625 222 l 625 221 q 615 154 625 188 q 586 93 606 121 q 540 44 567 65 q 481 11 513 24 q 415 -6 449 -1 q 346 -11 381 -11 m 257 440 l 438 440 l 438 444 q 434 489 438 467 q 420 531 431 511 q 390 563 410 551 q 347 575 369 575 q 305 563 325 575 q 274 531 285 551 q 260 489 264 511 q 257 444 257 467 l 257 440 m 328 796 l 235 871 l 411 1074 l 526 982 l 328 796 z "},"":{"ha":694,"x_min":67,"x_max":628,"o":"m 346 -11 q 270 -4 308 -11 q 199 21 232 3 q 139 67 165 39 q 96 129 113 94 q 73 202 79 164 q 67 278 67 240 l 67 444 q 73 521 67 483 q 96 593 79 558 q 139 656 113 628 q 199 701 165 683 q 271 726 233 719 q 347 733 308 733 q 424 726 386 733 q 495 701 461 719 q 556 656 529 683 q 599 593 582 628 q 622 521 615 558 q 628 444 628 483 l 628 282 l 257 282 l 257 278 q 260 233 257 256 q 274 191 264 211 q 304 159 285 171 q 346 147 324 147 q 379 151 363 147 q 408 165 396 156 q 428 190 421 175 q 435 222 435 206 l 625 222 l 625 221 q 615 154 625 188 q 586 93 606 121 q 540 44 567 65 q 481 11 513 24 q 415 -6 449 -1 q 346 -11 381 -11 m 257 440 l 438 440 l 438 444 q 434 489 438 467 q 420 531 431 511 q 390 563 410 551 q 347 575 369 575 q 305 563 325 575 q 274 531 285 551 q 260 489 264 511 q 257 444 257 467 l 257 440 m 217 818 l 133 872 l 258 1065 l 436 1065 l 561 872 l 478 818 l 347 965 l 217 818 z "},"":{"ha":694,"x_min":67,"x_max":628,"o":"m 346 -11 q 270 -4 308 -11 q 199 21 232 3 q 139 67 165 39 q 96 129 113 94 q 73 202 79 164 q 67 278 67 240 l 67 444 q 73 521 67 483 q 96 593 79 558 q 139 656 113 628 q 199 701 165 683 q 271 726 233 719 q 347 733 308 733 q 424 726 386 733 q 495 701 461 719 q 556 656 529 683 q 599 593 582 628 q 622 521 615 558 q 628 444 628 483 l 628 282 l 257 282 l 257 278 q 260 233 257 256 q 274 191 264 211 q 304 159 285 171 q 346 147 324 147 q 379 151 363 147 q 408 165 396 156 q 428 190 421 175 q 435 222 435 206 l 625 222 l 625 221 q 615 154 625 188 q 586 93 606 121 q 540 44 567 65 q 481 11 513 24 q 415 -6 449 -1 q 346 -11 381 -11 m 257 440 l 438 440 l 438 444 q 434 489 438 467 q 420 531 431 511 q 390 563 410 551 q 347 575 369 575 q 305 563 325 575 q 274 531 285 551 q 260 489 264 511 q 257 444 257 467 l 257 440 m 486 826 q 444 833 465 826 q 409 853 424 839 q 388 889 394 868 q 382 931 382 910 q 388 972 382 951 q 409 1008 394 993 q 444 1028 424 1022 q 486 1035 465 1035 q 528 1028 507 1035 q 563 1008 549 1022 q 584 972 578 993 q 590 931 590 951 q 584 889 590 910 q 563 853 578 868 q 528 833 549 839 q 486 826 507 826 m 208 826 q 167 833 188 826 q 131 853 146 839 q 110 889 117 868 q 104 931 104 910 q 110 972 104 951 q 131 1008 117 993 q 167 1028 146 1022 q 208 1035 188 1035 q 250 1028 229 1035 q 285 1008 271 1022 q 306 972 300 993 q 313 931 313 951 q 306 889 313 910 q 285 853 300 868 q 250 833 271 839 q 208 826 229 826 z "},"":{"ha":694,"x_min":104,"x_max":590,"o":"m 104 0 l 104 158 l 263 158 l 263 564 l 124 564 l 124 722 l 451 722 l 451 158 l 590 158 l 590 0 l 104 0 m 374 796 l 175 982 l 290 1074 l 467 871 l 374 796 z "},"":{"ha":694,"x_min":104,"x_max":590,"o":"m 104 0 l 104 158 l 263 158 l 263 564 l 124 564 l 124 722 l 451 722 l 451 158 l 590 158 l 590 0 l 104 0 m 335 796 l 242 871 l 418 1074 l 533 982 l 335 796 z "},"":{"ha":694,"x_min":104,"x_max":590,"o":"m 104 0 l 104 158 l 263 158 l 263 564 l 124 564 l 124 722 l 451 722 l 451 158 l 590 158 l 590 0 l 104 0 m 224 818 l 140 872 l 265 1065 l 443 1065 l 568 872 l 485 818 l 354 965 l 224 818 z "},"":{"ha":694,"x_min":104,"x_max":590,"o":"m 104 0 l 104 158 l 263 158 l 263 564 l 124 564 l 124 722 l 451 722 l 451 158 l 590 158 l 590 0 l 104 0 m 486 826 q 444 833 465 826 q 409 853 424 839 q 388 889 394 868 q 382 931 382 910 q 388 972 382 951 q 409 1008 394 993 q 444 1028 424 1022 q 486 1035 465 1035 q 528 1028 507 1035 q 563 1008 549 1022 q 584 972 578 993 q 590 931 590 951 q 584 889 590 910 q 563 853 578 868 q 528 833 549 839 q 486 826 507 826 m 208 826 q 167 833 188 826 q 131 853 146 839 q 110 889 117 868 q 104 931 104 910 q 110 972 104 951 q 131 1008 117 993 q 167 1028 146 1022 q 208 1035 188 1035 q 250 1028 229 1035 q 285 1008 271 1022 q 306 972 300 993 q 313 931 313 951 q 306 889 313 910 q 285 853 300 868 q 250 833 271 839 q 208 826 229 826 z "},"":{"ha":694,"x_min":67,"x_max":628,"o":"m 347 -11 q 267 -2 307 -11 q 192 28 226 7 q 132 83 157 50 q 92 153 107 115 q 72 231 76 190 q 67 313 67 272 q 70 381 67 347 q 82 449 74 415 q 104 514 90 482 q 141 571 118 546 q 197 610 164 596 q 264 624 229 624 q 318 615 292 624 q 366 590 344 607 q 403 549 388 572 q 429 500 418 525 q 406 608 421 554 q 364 710 390 661 l 149 654 l 115 761 l 289 807 q 241 844 267 828 q 188 872 215 860 l 251 1021 q 381 956 321 999 q 485 857 440 914 l 572 881 l 607 774 l 547 757 q 587 659 571 710 q 613 556 603 608 q 625 451 622 504 q 628 344 628 397 l 628 307 q 622 226 628 267 q 601 149 617 186 q 560 81 586 113 q 501 27 535 49 q 427 -3 467 6 q 347 -11 388 -11 m 347 147 q 380 155 364 147 q 406 176 396 163 q 422 206 417 190 q 431 239 428 222 q 436 272 435 256 q 438 306 438 289 q 436 340 438 324 q 431 374 435 357 q 422 406 428 390 q 406 436 417 422 q 380 458 396 450 q 347 465 364 465 q 315 458 331 465 q 288 437 299 450 q 272 408 278 424 q 263 375 267 392 q 258 341 260 358 q 257 307 257 324 q 258 273 257 290 q 263 239 260 256 q 272 206 267 222 q 288 176 278 190 q 315 155 299 163 q 347 147 331 147 z "},"":{"ha":694,"x_min":75,"x_max":619,"o":"m 78 0 l 78 722 l 268 722 l 268 603 q 291 653 276 629 q 327 697 306 678 q 376 724 349 715 q 431 733 403 733 q 493 721 463 733 q 546 685 524 708 q 582 633 568 663 q 603 572 596 603 q 614 508 611 540 q 617 444 617 476 l 617 0 l 426 0 l 426 444 q 424 487 426 465 q 413 528 421 508 q 386 561 404 547 q 347 575 368 575 q 308 561 326 575 q 282 528 290 547 q 271 487 274 508 q 268 444 268 465 l 268 0 l 78 0 m 426 829 q 413 830 419 829 q 399 832 406 831 q 388 835 393 833 q 376 839 382 836 q 363 844 369 842 q 352 851 357 847 q 342 858 347 854 q 331 866 336 861 q 320 875 325 871 q 311 884 315 879 q 303 893 307 889 q 295 901 299 897 q 286 913 292 906 q 276 924 281 919 q 266 933 271 929 q 261 939 261 938 l 261 940 q 263 940 261 940 l 265 940 q 269 939 267 939 l 275 939 q 272 935 275 938 q 265 929 269 933 q 260 923 261 925 q 257 919 258 921 q 253 915 256 917 q 249 910 251 913 q 245 904 247 907 q 241 899 243 901 q 237 892 239 896 q 233 885 235 889 q 228 878 231 882 q 224 869 226 874 q 218 861 221 865 q 213 852 215 857 q 208 842 211 847 q 203 832 206 838 l 75 889 q 94 923 85 907 q 114 953 104 939 q 133 980 124 968 q 151 1002 142 992 q 175 1024 161 1013 q 203 1042 189 1035 q 235 1055 218 1050 q 268 1060 251 1060 q 282 1059 275 1060 q 295 1057 289 1058 q 307 1053 301 1056 q 319 1049 313 1051 q 331 1044 325 1047 q 342 1038 338 1040 q 353 1031 347 1035 q 364 1022 358 1026 q 374 1013 369 1018 q 383 1003 379 1008 q 392 994 388 999 q 399 986 396 990 q 408 976 403 982 q 419 965 414 969 q 428 955 424 960 q 433 949 433 950 l 419 949 q 422 953 419 951 q 429 960 425 956 q 435 965 433 964 q 438 969 436 967 q 441 974 439 971 q 445 978 443 976 q 449 983 447 981 q 453 990 451 986 q 458 997 456 993 q 462 1003 460 1000 q 466 1010 464 1007 q 471 1018 468 1014 q 476 1027 474 1022 q 481 1036 479 1032 q 486 1046 483 1040 q 492 1056 489 1051 l 619 1000 q 600 965 610 981 q 581 935 590 949 q 562 909 571 921 q 543 887 553 897 q 519 865 533 876 q 491 845 506 853 q 460 833 476 838 q 426 829 443 829 z "},"":{"ha":694,"x_min":67,"x_max":628,"o":"m 347 -11 q 271 -4 308 -11 q 199 21 233 3 q 139 67 165 39 q 96 129 113 94 q 73 201 79 164 q 67 278 67 239 l 67 444 q 73 521 67 483 q 96 593 79 558 q 139 656 113 628 q 199 701 165 683 q 271 726 233 719 q 347 733 308 733 q 424 726 386 733 q 495 701 461 719 q 556 656 529 683 q 599 593 582 628 q 622 521 615 558 q 628 444 628 483 l 628 278 q 622 201 628 239 q 599 129 615 164 q 556 67 582 94 q 495 21 529 39 q 424 -4 461 3 q 347 -11 386 -11 m 347 147 q 390 159 369 147 q 420 191 410 171 q 434 233 431 211 q 438 278 438 256 l 438 444 q 434 489 438 467 q 420 531 431 511 q 390 563 410 551 q 347 575 369 575 q 305 563 325 575 q 274 531 285 551 q 260 489 264 511 q 257 444 257 467 l 257 278 q 260 233 257 256 q 274 191 264 211 q 305 159 285 171 q 347 147 325 147 m 367 796 l 168 982 l 283 1074 l 460 871 l 367 796 z "},"":{"ha":694,"x_min":67,"x_max":628,"o":"m 347 -11 q 271 -4 308 -11 q 199 21 233 3 q 139 67 165 39 q 96 129 113 94 q 73 201 79 164 q 67 278 67 239 l 67 444 q 73 521 67 483 q 96 593 79 558 q 139 656 113 628 q 199 701 165 683 q 271 726 233 719 q 347 733 308 733 q 424 726 386 733 q 495 701 461 719 q 556 656 529 683 q 599 593 582 628 q 622 521 615 558 q 628 444 628 483 l 628 278 q 622 201 628 239 q 599 129 615 164 q 556 67 582 94 q 495 21 529 39 q 424 -4 461 3 q 347 -11 386 -11 m 347 147 q 390 159 369 147 q 420 191 410 171 q 434 233 431 211 q 438 278 438 256 l 438 444 q 434 489 438 467 q 420 531 431 511 q 390 563 410 551 q 347 575 369 575 q 305 563 325 575 q 274 531 285 551 q 260 489 264 511 q 257 444 257 467 l 257 278 q 260 233 257 256 q 274 191 264 211 q 305 159 285 171 q 347 147 325 147 m 328 796 l 235 871 l 411 1074 l 526 982 l 328 796 z "},"":{"ha":694,"x_min":67,"x_max":628,"o":"m 347 -11 q 271 -4 308 -11 q 199 21 233 3 q 139 67 165 39 q 96 129 113 94 q 73 201 79 164 q 67 278 67 239 l 67 444 q 73 521 67 483 q 96 593 79 558 q 139 656 113 628 q 199 701 165 683 q 271 726 233 719 q 347 733 308 733 q 424 726 386 733 q 495 701 461 719 q 556 656 529 683 q 599 593 582 628 q 622 521 615 558 q 628 444 628 483 l 628 278 q 622 201 628 239 q 599 129 615 164 q 556 67 582 94 q 495 21 529 39 q 424 -4 461 3 q 347 -11 386 -11 m 347 147 q 390 159 369 147 q 420 191 410 171 q 434 233 431 211 q 438 278 438 256 l 438 444 q 434 489 438 467 q 420 531 431 511 q 390 563 410 551 q 347 575 369 575 q 305 563 325 575 q 274 531 285 551 q 260 489 264 511 q 257 444 257 467 l 257 278 q 260 233 257 256 q 274 191 264 211 q 305 159 285 171 q 347 147 325 147 m 217 818 l 133 872 l 258 1065 l 436 1065 l 561 872 l 478 818 l 347 965 l 217 818 z "},"":{"ha":694,"x_min":67,"x_max":628,"o":"m 347 -11 q 271 -4 308 -11 q 199 21 233 3 q 139 67 165 39 q 96 129 113 94 q 73 201 79 164 q 67 278 67 239 l 67 444 q 73 521 67 483 q 96 593 79 558 q 139 656 113 628 q 199 701 165 683 q 271 726 233 719 q 347 733 308 733 q 424 726 386 733 q 495 701 461 719 q 556 656 529 683 q 599 593 582 628 q 622 521 615 558 q 628 444 628 483 l 628 278 q 622 201 628 239 q 599 129 615 164 q 556 67 582 94 q 495 21 529 39 q 424 -4 461 3 q 347 -11 386 -11 m 347 147 q 390 159 369 147 q 420 191 410 171 q 434 233 431 211 q 438 278 438 256 l 438 444 q 434 489 438 467 q 420 531 431 511 q 390 563 410 551 q 347 575 369 575 q 305 563 325 575 q 274 531 285 551 q 260 489 264 511 q 257 444 257 467 l 257 278 q 260 233 257 256 q 274 191 264 211 q 305 159 285 171 q 347 147 325 147 m 426 829 q 413 830 419 829 q 399 832 406 831 q 388 835 393 833 q 376 839 382 836 q 363 844 369 842 q 352 851 357 847 q 342 858 347 854 q 331 866 336 861 q 320 875 325 871 q 311 884 315 879 q 303 893 307 889 q 295 901 299 897 q 286 913 292 906 q 276 924 281 919 q 266 933 271 929 q 261 939 261 938 l 261 940 q 263 940 261 940 l 265 940 q 269 939 267 939 l 275 939 q 272 935 275 938 q 265 929 269 933 q 260 923 261 925 q 257 919 258 921 q 253 915 256 917 q 249 910 251 913 q 245 904 247 907 q 241 899 243 901 q 237 892 239 896 q 233 885 235 889 q 228 878 231 882 q 224 869 226 874 q 218 861 221 865 q 213 852 215 857 q 208 842 211 847 q 203 832 206 838 l 75 889 q 94 923 85 907 q 114 953 104 939 q 133 980 124 968 q 151 1002 142 992 q 175 1024 161 1013 q 203 1042 189 1035 q 235 1055 218 1050 q 268 1060 251 1060 q 282 1059 275 1060 q 295 1057 289 1058 q 307 1053 301 1056 q 319 1049 313 1051 q 331 1044 325 1047 q 342 1038 338 1040 q 353 1031 347 1035 q 364 1022 358 1026 q 374 1013 369 1018 q 383 1003 379 1008 q 392 994 388 999 q 399 986 396 990 q 408 976 403 982 q 419 965 414 969 q 428 955 424 960 q 433 949 433 950 l 419 949 q 422 953 419 951 q 429 960 425 956 q 435 965 433 964 q 438 969 436 967 q 441 974 439 971 q 445 978 443 976 q 449 983 447 981 q 453 990 451 986 q 458 997 456 993 q 462 1003 460 1000 q 466 1010 464 1007 q 471 1018 468 1014 q 476 1027 474 1022 q 481 1036 479 1032 q 486 1046 483 1040 q 492 1056 489 1051 l 619 1000 q 600 965 610 981 q 581 935 590 949 q 562 909 571 921 q 543 887 553 897 q 519 865 533 876 q 491 845 506 853 q 460 833 476 838 q 426 829 443 829 z "},"":{"ha":694,"x_min":67,"x_max":628,"o":"m 347 -11 q 271 -4 308 -11 q 199 21 233 3 q 139 67 165 39 q 96 129 113 94 q 73 201 79 164 q 67 278 67 239 l 67 444 q 73 521 67 483 q 96 593 79 558 q 139 656 113 628 q 199 701 165 683 q 271 726 233 719 q 347 733 308 733 q 424 726 386 733 q 495 701 461 719 q 556 656 529 683 q 599 593 582 628 q 622 521 615 558 q 628 444 628 483 l 628 278 q 622 201 628 239 q 599 129 615 164 q 556 67 582 94 q 495 21 529 39 q 424 -4 461 3 q 347 -11 386 -11 m 347 147 q 390 159 369 147 q 420 191 410 171 q 434 233 431 211 q 438 278 438 256 l 438 444 q 434 489 438 467 q 420 531 431 511 q 390 563 410 551 q 347 575 369 575 q 305 563 325 575 q 274 531 285 551 q 260 489 264 511 q 257 444 257 467 l 257 278 q 260 233 257 256 q 274 191 264 211 q 305 159 285 171 q 347 147 325 147 m 486 826 q 444 833 465 826 q 409 853 424 839 q 388 889 394 868 q 382 931 382 910 q 388 972 382 951 q 409 1008 394 993 q 444 1028 424 1022 q 486 1035 465 1035 q 528 1028 507 1035 q 563 1008 549 1022 q 584 972 578 993 q 590 931 590 951 q 584 889 590 910 q 563 853 578 868 q 528 833 549 839 q 486 826 507 826 m 208 826 q 167 833 188 826 q 131 853 146 839 q 110 889 117 868 q 104 931 104 910 q 110 972 104 951 q 131 1008 117 993 q 167 1028 146 1022 q 208 1035 188 1035 q 250 1028 229 1035 q 285 1008 271 1022 q 306 972 300 993 q 313 931 313 951 q 306 889 313 910 q 285 853 300 868 q 250 833 271 839 q 208 826 229 826 z "},"":{"ha":694,"x_min":78,"x_max":617,"o":"m 347 622 q 300 630 324 622 q 260 654 276 638 q 235 694 243 671 q 228 742 228 718 q 235 789 228 765 q 260 829 243 813 q 300 853 276 846 q 347 861 324 861 q 394 853 371 861 q 435 829 418 846 q 459 789 451 813 q 467 742 467 765 q 459 694 467 718 q 435 654 451 671 q 394 630 418 638 q 347 622 371 622 m 617 404 l 78 404 l 78 540 l 617 540 l 617 404 m 347 83 q 300 91 324 83 q 260 115 276 99 q 235 156 243 132 q 228 203 228 179 q 235 250 228 226 q 260 290 243 274 q 300 315 276 307 q 347 322 324 322 q 394 315 371 322 q 435 290 418 307 q 459 250 451 274 q 467 203 467 226 q 459 156 467 179 q 435 115 451 132 q 394 91 418 99 q 347 83 371 83 z "},"":{"ha":694,"x_min":64,"x_max":631,"o":"m 181 -64 l 64 -8 l 119 89 q 94 133 106 110 q 77 179 83 156 q 69 228 71 203 q 67 278 67 253 l 67 444 q 73 521 67 483 q 96 593 79 558 q 139 656 113 628 q 199 701 165 683 q 271 726 233 719 q 347 733 308 733 q 411 728 379 733 q 472 713 443 724 l 514 786 l 631 731 l 575 633 q 600 590 589 613 q 617 543 611 567 q 626 494 624 519 q 628 444 628 469 l 628 278 q 622 201 628 239 q 599 129 615 164 q 556 67 582 94 q 495 21 529 39 q 424 -4 461 3 q 347 -11 386 -11 q 283 -6 315 -11 q 222 10 251 -1 l 181 -64 m 257 331 l 389 565 q 369 573 379 571 q 347 575 358 575 q 305 563 325 575 q 274 531 285 551 q 260 489 264 511 q 257 444 257 467 l 257 331 m 347 147 q 390 159 369 147 q 420 191 410 171 q 434 233 431 211 q 438 278 438 256 l 438 392 l 306 157 q 326 149 315 151 q 347 147 336 147 z "},"":{"ha":694,"x_min":78,"x_max":617,"o":"m 264 -11 q 201 1 232 -11 q 149 37 171 14 q 113 90 126 60 q 91 151 99 119 q 81 214 83 182 q 78 278 78 246 l 78 722 l 268 722 l 268 278 q 271 235 268 257 q 282 194 274 214 q 308 161 290 175 q 347 147 326 147 q 386 161 368 147 q 413 194 404 175 q 424 235 421 214 q 426 278 426 257 l 426 722 l 617 722 l 617 0 l 426 0 l 426 119 q 403 69 418 93 q 367 26 389 44 q 319 -2 346 7 q 264 -11 292 -11 m 367 796 l 168 982 l 283 1074 l 460 871 l 367 796 z "},"":{"ha":694,"x_min":78,"x_max":617,"o":"m 264 -11 q 201 1 232 -11 q 149 37 171 14 q 113 90 126 60 q 91 151 99 119 q 81 214 83 182 q 78 278 78 246 l 78 722 l 268 722 l 268 278 q 271 235 268 257 q 282 194 274 214 q 308 161 290 175 q 347 147 326 147 q 386 161 368 147 q 413 194 404 175 q 424 235 421 214 q 426 278 426 257 l 426 722 l 617 722 l 617 0 l 426 0 l 426 119 q 403 69 418 93 q 367 26 389 44 q 319 -2 346 7 q 264 -11 292 -11 m 328 796 l 235 871 l 411 1074 l 526 982 l 328 796 z "},"":{"ha":694,"x_min":78,"x_max":617,"o":"m 264 -11 q 201 1 232 -11 q 149 37 171 14 q 113 90 126 60 q 91 151 99 119 q 81 214 83 182 q 78 278 78 246 l 78 722 l 268 722 l 268 278 q 271 235 268 257 q 282 194 274 214 q 308 161 290 175 q 347 147 326 147 q 386 161 368 147 q 413 194 404 175 q 424 235 421 214 q 426 278 426 257 l 426 722 l 617 722 l 617 0 l 426 0 l 426 119 q 403 69 418 93 q 367 26 389 44 q 319 -2 346 7 q 264 -11 292 -11 m 217 818 l 133 872 l 258 1065 l 436 1065 l 561 872 l 478 818 l 347 965 l 217 818 z "},"":{"ha":694,"x_min":78,"x_max":617,"o":"m 264 -11 q 201 1 232 -11 q 149 37 171 14 q 113 90 126 60 q 91 151 99 119 q 81 214 83 182 q 78 278 78 246 l 78 722 l 268 722 l 268 278 q 271 235 268 257 q 282 194 274 214 q 308 161 290 175 q 347 147 326 147 q 386 161 368 147 q 413 194 404 175 q 424 235 421 214 q 426 278 426 257 l 426 722 l 617 722 l 617 0 l 426 0 l 426 119 q 403 69 418 93 q 367 26 389 44 q 319 -2 346 7 q 264 -11 292 -11 m 486 826 q 444 833 465 826 q 409 853 424 839 q 388 889 394 868 q 382 931 382 910 q 388 972 382 951 q 409 1008 394 993 q 444 1028 424 1022 q 486 1035 465 1035 q 528 1028 507 1035 q 563 1008 549 1022 q 584 972 578 993 q 590 931 590 951 q 584 889 590 910 q 563 853 578 868 q 528 833 549 839 q 486 826 507 826 m 208 826 q 167 833 188 826 q 131 853 146 839 q 110 889 117 868 q 104 931 104 910 q 110 972 104 951 q 131 1008 117 993 q 167 1028 146 1022 q 208 1035 188 1035 q 250 1028 229 1035 q 285 1008 271 1022 q 306 972 300 993 q 313 931 313 951 q 306 889 313 910 q 285 853 300 868 q 250 833 271 839 q 208 826 229 826 z "},"":{"ha":694,"x_min":63,"x_max":632,"o":"m 368 -299 l 174 -299 q 203 -187 189 -243 q 232 -75 218 -132 l 253 6 l 63 722 l 257 722 l 354 243 l 438 722 l 632 722 l 368 -299 m 328 796 l 235 871 l 411 1074 l 526 982 l 328 796 z "},"":{"ha":694,"x_min":78,"x_max":628,"o":"m 78 -299 l 78 1021 l 268 1021 l 268 600 q 293 653 278 628 q 330 697 308 678 q 380 724 351 715 q 436 733 408 733 q 500 722 469 733 q 553 687 531 710 q 591 634 576 664 q 614 573 606 604 q 625 509 622 542 q 628 444 628 476 l 628 278 q 625 213 628 246 q 614 149 622 181 q 591 88 606 118 q 553 35 576 58 q 500 1 531 13 q 436 -11 469 -11 q 380 -2 408 -11 q 330 26 351 7 q 293 69 308 44 q 268 122 278 94 l 268 -299 l 78 -299 m 353 147 q 394 160 375 147 q 422 192 413 172 q 435 234 432 213 q 438 278 438 256 l 438 444 q 435 488 438 467 q 422 530 432 510 q 394 563 413 550 q 353 575 375 575 q 312 563 331 575 q 283 530 293 550 q 271 488 274 510 q 268 444 268 467 l 268 278 q 271 234 268 256 q 283 192 274 213 q 312 160 293 172 q 353 147 331 147 z "},"":{"ha":694,"x_min":63,"x_max":632,"o":"m 368 -299 l 174 -299 q 203 -187 189 -243 q 232 -75 218 -132 l 253 6 l 63 722 l 257 722 l 354 243 l 438 722 l 632 722 l 368 -299 m 486 826 q 444 833 465 826 q 409 853 424 839 q 388 889 394 868 q 382 931 382 910 q 388 972 382 951 q 409 1008 394 993 q 444 1028 424 1022 q 486 1035 465 1035 q 528 1028 507 1035 q 563 1008 549 1022 q 584 972 578 993 q 590 931 590 951 q 584 889 590 910 q 563 853 578 868 q 528 833 549 839 q 486 826 507 826 m 208 826 q 167 833 188 826 q 131 853 146 839 q 110 889 117 868 q 104 931 104 910 q 110 972 104 951 q 131 1008 117 993 q 167 1028 146 1022 q 208 1035 188 1035 q 250 1028 229 1035 q 285 1008 271 1022 q 306 972 300 993 q 313 931 313 951 q 306 889 313 910 q 285 853 300 868 q 250 833 271 839 q 208 826 229 826 z "},"":{"ha":694,"x_min":46,"x_max":649,"o":"m 46 0 l 238 1021 l 457 1021 l 649 0 l 456 0 l 428 203 l 267 203 l 239 0 l 46 0 m 289 361 l 406 361 l 363 681 q 355 733 358 707 q 347 785 351 758 q 340 733 343 758 q 332 681 336 707 l 289 361 m 139 1169 l 139 1289 l 556 1289 l 556 1169 l 139 1169 z "},"":{"ha":694,"x_min":67,"x_max":617,"o":"m 257 -11 q 178 3 217 -11 q 113 49 139 18 q 77 121 88 81 q 67 201 67 161 q 76 276 67 239 q 106 343 85 313 q 160 395 128 374 q 227 429 192 417 q 299 446 263 442 q 374 450 336 450 l 426 450 l 426 482 q 422 517 426 500 q 408 548 418 535 q 381 568 397 561 q 346 575 364 575 q 315 571 331 575 q 288 557 300 567 q 271 533 276 547 q 265 503 265 518 l 265 500 l 75 500 l 75 508 q 85 573 75 540 q 113 633 94 606 q 158 680 131 660 q 216 713 185 700 q 280 729 247 725 q 346 733 313 733 q 415 728 381 733 q 483 708 450 722 q 542 671 515 694 q 585 617 568 647 q 610 551 603 586 q 617 482 617 517 l 617 0 l 426 0 l 426 108 q 401 60 417 83 q 363 20 385 36 q 313 -3 340 4 q 257 -11 285 -11 m 342 147 q 378 155 360 147 q 407 178 396 163 q 422 212 418 193 q 426 250 426 231 l 426 292 l 374 292 q 348 291 361 292 q 322 288 335 290 q 298 279 310 285 q 276 265 286 274 q 262 244 267 257 q 257 219 257 232 q 263 189 257 204 q 282 164 269 174 q 310 151 294 154 q 342 147 325 147 m 139 871 l 139 990 l 556 990 l 556 871 l 139 871 z "},"":{"ha":694,"x_min":46,"x_max":649,"o":"m 46 0 l 238 1021 l 457 1021 l 649 0 l 456 0 l 428 203 l 267 203 l 239 0 l 46 0 m 289 361 l 406 361 l 363 681 q 355 733 358 707 q 347 785 351 758 q 340 733 343 758 q 332 681 336 707 l 289 361 m 347 1132 q 289 1135 318 1132 q 233 1149 260 1139 q 181 1176 206 1158 q 140 1217 157 1193 q 116 1269 124 1240 q 108 1326 108 1297 l 253 1326 q 260 1294 253 1310 q 282 1268 268 1278 q 313 1255 296 1258 q 347 1251 331 1251 q 381 1255 364 1251 q 413 1268 399 1258 q 434 1294 426 1278 q 442 1326 442 1310 l 586 1326 q 578 1269 586 1297 q 554 1217 571 1240 q 513 1176 538 1193 q 462 1149 489 1158 q 406 1135 435 1139 q 347 1132 376 1132 z "},"":{"ha":694,"x_min":67,"x_max":617,"o":"m 257 -11 q 178 3 217 -11 q 113 49 139 18 q 77 121 88 81 q 67 201 67 161 q 76 276 67 239 q 106 343 85 313 q 160 395 128 374 q 227 429 192 417 q 299 446 263 442 q 374 450 336 450 l 426 450 l 426 482 q 422 517 426 500 q 408 548 418 535 q 381 568 397 561 q 346 575 364 575 q 315 571 331 575 q 288 557 300 567 q 271 533 276 547 q 265 503 265 518 l 265 500 l 75 500 l 75 508 q 85 573 75 540 q 113 633 94 606 q 158 680 131 660 q 216 713 185 700 q 280 729 247 725 q 346 733 313 733 q 415 728 381 733 q 483 708 450 722 q 542 671 515 694 q 585 617 568 647 q 610 551 603 586 q 617 482 617 517 l 617 0 l 426 0 l 426 108 q 401 60 417 83 q 363 20 385 36 q 313 -3 340 4 q 257 -11 285 -11 m 342 147 q 378 155 360 147 q 407 178 396 163 q 422 212 418 193 q 426 250 426 231 l 426 292 l 374 292 q 348 291 361 292 q 322 288 335 290 q 298 279 310 285 q 276 265 286 274 q 262 244 267 257 q 257 219 257 232 q 263 189 257 204 q 282 164 269 174 q 310 151 294 154 q 342 147 325 147 m 347 833 q 289 837 318 833 q 233 850 260 840 q 181 877 206 860 q 140 918 157 894 q 116 970 124 942 q 108 1028 108 999 l 253 1028 q 260 995 253 1011 q 282 969 268 979 q 313 956 296 960 q 347 953 331 953 q 381 956 364 953 q 413 969 399 960 q 434 995 426 979 q 442 1028 442 1011 l 586 1028 q 578 970 586 999 q 554 918 571 942 q 513 877 538 894 q 462 850 489 860 q 406 837 435 840 q 347 833 376 833 z "},"":{"ha":694,"x_min":46,"x_max":649,"o":"m 46 0 l 238 1021 l 457 1021 l 649 0 l 456 0 l 428 203 l 267 203 l 239 0 l 46 0 m 289 361 l 406 361 l 363 681 q 355 733 358 707 q 347 785 351 758 q 340 733 343 758 q 332 681 336 707 l 289 361 m 582 -311 q 538 -307 560 -311 q 493 -296 515 -303 q 451 -278 471 -289 q 417 -249 432 -267 q 394 -210 401 -232 q 386 -165 386 -189 q 396 -110 386 -137 q 422 -58 406 -82 q 461 -15 439 -35 q 508 19 483 4 q 560 42 533 33 q 617 56 588 51 l 617 0 q 582 -23 597 -8 q 556 -56 567 -37 q 538 -93 546 -74 q 531 -133 531 -112 q 536 -158 531 -146 q 551 -176 542 -169 q 574 -187 561 -183 q 599 -190 586 -190 q 616 -189 607 -190 q 635 -185 625 -187 l 635 -304 q 608 -309 621 -307 q 582 -311 596 -311 z "},"":{"ha":694,"x_min":67,"x_max":635,"o":"m 257 -11 q 178 3 217 -11 q 113 49 139 18 q 77 121 88 81 q 67 201 67 161 q 76 276 67 239 q 106 343 85 313 q 160 395 128 374 q 227 429 192 417 q 299 446 263 442 q 374 450 336 450 l 426 450 l 426 482 q 422 517 426 500 q 408 548 418 535 q 381 568 397 561 q 346 575 364 575 q 315 571 331 575 q 288 557 300 567 q 271 533 276 547 q 265 503 265 518 l 265 500 l 75 500 l 75 508 q 85 573 75 540 q 113 633 94 606 q 158 680 131 660 q 216 713 185 700 q 280 729 247 725 q 346 733 313 733 q 415 728 381 733 q 483 708 450 722 q 542 671 515 694 q 585 617 568 647 q 610 551 603 586 q 617 482 617 517 l 617 0 l 426 0 l 426 108 q 401 60 417 83 q 363 20 385 36 q 313 -3 340 4 q 257 -11 285 -11 m 342 147 q 378 155 360 147 q 407 178 396 163 q 422 212 418 193 q 426 250 426 231 l 426 292 l 374 292 q 348 291 361 292 q 322 288 335 290 q 298 279 310 285 q 276 265 286 274 q 262 244 267 257 q 257 219 257 232 q 263 189 257 204 q 282 164 269 174 q 310 151 294 154 q 342 147 325 147 m 582 -311 q 538 -307 560 -311 q 493 -296 515 -303 q 451 -278 471 -289 q 417 -249 432 -267 q 394 -210 401 -232 q 386 -165 386 -189 q 396 -110 386 -137 q 422 -58 406 -82 q 461 -15 439 -35 q 508 19 483 4 q 560 42 533 33 q 617 56 588 51 l 617 0 q 582 -23 597 -8 q 556 -56 567 -37 q 538 -93 546 -74 q 531 -133 531 -112 q 536 -158 531 -146 q 551 -176 542 -169 q 574 -187 561 -183 q 599 -190 586 -190 q 616 -189 607 -190 q 635 -185 625 -187 l 635 -304 q 608 -309 621 -307 q 582 -311 596 -311 z "},"":{"ha":694,"x_min":67,"x_max":619,"o":"m 343 -11 q 265 -3 304 -11 q 192 26 226 6 q 133 77 158 46 q 93 144 108 108 q 72 220 78 181 q 67 299 67 260 l 67 722 q 72 801 67 761 q 93 876 78 840 q 133 944 108 913 q 192 995 158 975 q 265 1024 226 1015 q 343 1032 304 1032 q 416 1026 379 1032 q 485 1002 453 1019 q 544 958 518 985 q 586 899 569 932 q 611 831 603 867 q 619 758 619 794 l 619 750 l 429 750 l 429 753 q 425 794 429 774 q 410 833 421 815 q 382 863 400 851 q 343 874 364 874 q 312 866 326 874 q 288 846 297 858 q 272 818 278 833 q 262 787 265 803 q 258 755 258 771 q 257 722 257 739 l 257 299 q 258 266 257 282 q 262 234 258 250 q 272 203 265 218 q 288 175 278 188 q 312 155 297 163 q 343 147 326 147 q 382 158 364 147 q 410 188 400 169 q 425 226 421 206 q 429 268 429 247 l 429 271 l 619 271 l 619 263 q 611 190 619 226 q 586 122 603 154 q 544 63 569 89 q 485 19 518 36 q 416 -5 453 1 q 343 -11 379 -11 m 328 1094 l 235 1169 l 411 1372 l 526 1281 l 328 1094 z "},"":{"ha":694,"x_min":67,"x_max":619,"o":"m 343 -11 q 268 -4 306 -11 q 197 21 231 3 q 137 67 163 39 q 95 130 111 96 q 73 202 79 164 q 67 278 67 240 l 67 444 q 73 520 67 482 q 95 592 79 558 q 137 655 111 626 q 197 701 163 683 q 268 726 231 719 q 343 733 306 733 q 415 727 379 733 q 484 704 451 721 q 543 662 517 688 q 586 604 569 636 q 611 536 603 572 q 619 464 619 500 l 619 451 l 429 451 l 429 457 q 425 498 429 478 q 410 536 421 518 q 382 565 400 554 q 343 575 364 575 q 302 563 321 575 q 274 531 283 550 q 260 489 264 511 q 257 444 257 467 l 257 278 q 260 233 257 256 q 274 192 264 211 q 302 160 283 172 q 343 147 321 147 q 382 158 364 147 q 410 186 400 168 q 425 224 421 204 q 429 265 429 244 l 429 271 l 619 271 l 619 258 q 611 186 619 222 q 586 118 603 150 q 543 60 569 86 q 484 18 517 35 q 415 -5 451 1 q 343 -11 379 -11 m 328 796 l 235 871 l 411 1074 l 526 982 l 328 796 z "},"":{"ha":694,"x_min":67,"x_max":619,"o":"m 343 -11 q 265 -3 304 -11 q 192 26 226 6 q 133 77 158 46 q 93 144 108 108 q 72 220 78 181 q 67 299 67 260 l 67 722 q 72 801 67 761 q 93 876 78 840 q 133 944 108 913 q 192 995 158 975 q 265 1024 226 1015 q 343 1032 304 1032 q 416 1026 379 1032 q 485 1002 453 1019 q 544 958 518 985 q 586 899 569 932 q 611 831 603 867 q 619 758 619 794 l 619 750 l 429 750 l 429 753 q 425 794 429 774 q 410 833 421 815 q 382 863 400 851 q 343 874 364 874 q 312 866 326 874 q 288 846 297 858 q 272 818 278 833 q 262 787 265 803 q 258 755 258 771 q 257 722 257 739 l 257 299 q 258 266 257 282 q 262 234 258 250 q 272 203 265 218 q 288 175 278 188 q 312 155 297 163 q 343 147 326 147 q 382 158 364 147 q 410 188 400 169 q 425 226 421 206 q 429 268 429 247 l 429 271 l 619 271 l 619 263 q 611 190 619 226 q 586 122 603 154 q 544 63 569 89 q 485 19 518 36 q 416 -5 453 1 q 343 -11 379 -11 m 217 1117 l 133 1171 l 258 1364 l 436 1364 l 561 1171 l 478 1117 l 347 1264 l 217 1117 z "},"":{"ha":694,"x_min":67,"x_max":619,"o":"m 343 -11 q 268 -4 306 -11 q 197 21 231 3 q 137 67 163 39 q 95 130 111 96 q 73 202 79 164 q 67 278 67 240 l 67 444 q 73 520 67 482 q 95 592 79 558 q 137 655 111 626 q 197 701 163 683 q 268 726 231 719 q 343 733 306 733 q 415 727 379 733 q 484 704 451 721 q 543 662 517 688 q 586 604 569 636 q 611 536 603 572 q 619 464 619 500 l 619 451 l 429 451 l 429 457 q 425 498 429 478 q 410 536 421 518 q 382 565 400 554 q 343 575 364 575 q 302 563 321 575 q 274 531 283 550 q 260 489 264 511 q 257 444 257 467 l 257 278 q 260 233 257 256 q 274 192 264 211 q 302 160 283 172 q 343 147 321 147 q 382 158 364 147 q 410 186 400 168 q 425 224 421 204 q 429 265 429 244 l 429 271 l 619 271 l 619 258 q 611 186 619 222 q 586 118 603 150 q 543 60 569 86 q 484 18 517 35 q 415 -5 451 1 q 343 -11 379 -11 m 217 818 l 133 872 l 258 1065 l 436 1065 l 561 872 l 478 818 l 347 965 l 217 818 z "},"":{"ha":694,"x_min":67,"x_max":619,"o":"m 343 -11 q 265 -3 304 -11 q 192 26 226 6 q 133 77 158 46 q 93 144 108 108 q 72 220 78 181 q 67 299 67 260 l 67 722 q 72 801 67 761 q 93 876 78 840 q 133 944 108 913 q 192 995 158 975 q 265 1024 226 1015 q 343 1032 304 1032 q 416 1026 379 1032 q 485 1002 453 1019 q 544 958 518 985 q 586 899 569 932 q 611 831 603 867 q 619 758 619 794 l 619 750 l 429 750 l 429 753 q 425 794 429 774 q 410 833 421 815 q 382 863 400 851 q 343 874 364 874 q 312 866 326 874 q 288 846 297 858 q 272 818 278 833 q 262 787 265 803 q 258 755 258 771 q 257 722 257 739 l 257 299 q 258 266 257 282 q 262 234 258 250 q 272 203 265 218 q 288 175 278 188 q 312 155 297 163 q 343 147 326 147 q 382 158 364 147 q 410 188 400 169 q 425 226 421 206 q 429 268 429 247 l 429 271 l 619 271 l 619 263 q 611 190 619 226 q 586 122 603 154 q 544 63 569 89 q 485 19 518 36 q 416 -5 453 1 q 343 -11 379 -11 m 347 1104 q 297 1112 322 1104 q 255 1137 272 1119 q 230 1179 238 1154 q 222 1229 222 1204 q 230 1279 222 1254 q 255 1322 238 1304 q 297 1347 272 1339 q 347 1354 322 1354 q 397 1347 372 1354 q 440 1322 422 1339 q 465 1279 457 1304 q 472 1229 472 1254 q 465 1179 472 1204 q 440 1137 457 1154 q 397 1112 422 1119 q 347 1104 372 1104 z "},"":{"ha":694,"x_min":67,"x_max":619,"o":"m 343 -11 q 268 -4 306 -11 q 197 21 231 3 q 137 67 163 39 q 95 130 111 96 q 73 202 79 164 q 67 278 67 240 l 67 444 q 73 520 67 482 q 95 592 79 558 q 137 655 111 626 q 197 701 163 683 q 268 726 231 719 q 343 733 306 733 q 415 727 379 733 q 484 704 451 721 q 543 662 517 688 q 586 604 569 636 q 611 536 603 572 q 619 464 619 500 l 619 451 l 429 451 l 429 457 q 425 498 429 478 q 410 536 421 518 q 382 565 400 554 q 343 575 364 575 q 302 563 321 575 q 274 531 283 550 q 260 489 264 511 q 257 444 257 467 l 257 278 q 260 233 257 256 q 274 192 264 211 q 302 160 283 172 q 343 147 321 147 q 382 158 364 147 q 410 186 400 168 q 425 224 421 204 q 429 265 429 244 l 429 271 l 619 271 l 619 258 q 611 186 619 222 q 586 118 603 150 q 543 60 569 86 q 484 18 517 35 q 415 -5 451 1 q 343 -11 379 -11 m 347 806 q 297 813 322 806 q 255 838 272 821 q 230 881 238 856 q 222 931 222 906 q 230 981 222 956 q 255 1023 238 1006 q 297 1048 272 1040 q 347 1056 322 1056 q 397 1048 372 1056 q 440 1023 422 1040 q 465 981 457 1006 q 472 931 472 956 q 465 881 472 906 q 440 838 457 856 q 397 813 422 821 q 347 806 372 806 z "},"":{"ha":694,"x_min":67,"x_max":619,"o":"m 343 -11 q 265 -3 304 -11 q 192 26 226 6 q 133 77 158 46 q 93 144 108 108 q 72 220 78 181 q 67 299 67 260 l 67 722 q 72 801 67 761 q 93 876 78 840 q 133 944 108 913 q 192 995 158 975 q 265 1024 226 1015 q 343 1032 304 1032 q 416 1026 379 1032 q 485 1002 453 1019 q 544 958 518 985 q 586 899 569 932 q 611 831 603 867 q 619 758 619 794 l 619 750 l 429 750 l 429 753 q 425 794 429 774 q 410 833 421 815 q 382 863 400 851 q 343 874 364 874 q 312 866 326 874 q 288 846 297 858 q 272 818 278 833 q 262 787 265 803 q 258 755 258 771 q 257 722 257 739 l 257 299 q 258 266 257 282 q 262 234 258 250 q 272 203 265 218 q 288 175 278 188 q 312 155 297 163 q 343 147 326 147 q 382 158 364 147 q 410 188 400 169 q 425 226 421 206 q 429 268 429 247 l 429 271 l 619 271 l 619 263 q 611 190 619 226 q 586 122 603 154 q 544 63 569 89 q 485 19 518 36 q 416 -5 453 1 q 343 -11 379 -11 m 258 1132 l 133 1325 l 217 1379 l 347 1232 l 478 1379 l 561 1325 l 436 1132 l 258 1132 z "},"":{"ha":694,"x_min":67,"x_max":619,"o":"m 343 -11 q 268 -4 306 -11 q 197 21 231 3 q 137 67 163 39 q 95 130 111 96 q 73 202 79 164 q 67 278 67 240 l 67 444 q 73 520 67 482 q 95 592 79 558 q 137 655 111 626 q 197 701 163 683 q 268 726 231 719 q 343 733 306 733 q 415 727 379 733 q 484 704 451 721 q 543 662 517 688 q 586 604 569 636 q 611 536 603 572 q 619 464 619 500 l 619 451 l 429 451 l 429 457 q 425 498 429 478 q 410 536 421 518 q 382 565 400 554 q 343 575 364 575 q 302 563 321 575 q 274 531 283 550 q 260 489 264 511 q 257 444 257 467 l 257 278 q 260 233 257 256 q 274 192 264 211 q 302 160 283 172 q 343 147 321 147 q 382 158 364 147 q 410 186 400 168 q 425 224 421 204 q 429 265 429 244 l 429 271 l 619 271 l 619 258 q 611 186 619 222 q 586 118 603 150 q 543 60 569 86 q 484 18 517 35 q 415 -5 451 1 q 343 -11 379 -11 m 258 833 l 133 1026 l 217 1081 l 347 933 l 478 1081 l 561 1026 l 436 833 l 258 833 z "},"":{"ha":694,"x_min":78,"x_max":628,"o":"m 78 0 l 78 1021 l 289 1021 q 378 1013 333 1021 q 463 987 422 1006 q 536 937 503 968 q 590 866 569 906 q 619 782 611 826 q 628 692 628 738 l 628 329 q 619 239 628 283 q 590 155 611 194 q 536 84 569 115 q 463 34 503 53 q 378 8 422 15 q 288 0 333 0 l 78 0 m 268 158 l 289 158 q 351 170 321 158 q 402 207 382 182 q 430 264 422 232 q 438 329 438 296 l 438 693 q 430 757 438 725 q 402 814 422 789 q 351 851 382 839 q 288 863 321 863 l 268 863 l 268 158 m 258 1132 l 133 1325 l 217 1379 l 347 1232 l 478 1379 l 561 1325 l 436 1132 l 258 1132 z "},"":{"ha":694,"x_min":67,"x_max":775,"o":"m 678 781 l 614 840 q 644 876 632 857 q 665 918 657 896 q 642 930 653 922 q 626 948 632 938 q 617 971 619 958 q 614 996 614 983 q 619 1027 614 1011 q 635 1055 624 1043 q 663 1072 647 1067 q 694 1076 678 1076 q 726 1072 711 1076 q 753 1055 742 1067 q 770 1027 765 1043 q 775 996 775 1011 q 769 935 775 965 q 750 878 763 906 q 719 825 738 850 q 678 781 701 800 m 240 -11 q 181 1 210 -11 q 132 35 153 13 q 99 85 111 57 q 79 143 86 114 q 69 203 72 172 q 67 264 67 233 l 67 458 q 69 519 67 489 q 79 579 72 550 q 99 637 86 608 q 132 688 111 665 q 181 722 153 710 q 240 733 210 733 q 292 725 267 733 q 336 699 317 717 q 369 660 356 682 q 392 613 383 638 l 392 1021 l 582 1021 l 582 0 l 392 0 l 392 110 q 369 63 383 85 q 336 23 356 40 q 292 -3 317 6 q 240 -11 267 -11 m 324 147 q 358 160 343 147 q 381 190 374 172 q 390 226 388 207 q 392 264 392 244 l 392 458 q 390 497 392 478 q 381 533 388 515 q 358 563 374 550 q 325 575 343 575 q 290 563 306 575 q 268 533 275 550 q 259 497 261 515 q 257 458 257 478 l 257 264 q 259 226 257 244 q 268 190 261 207 q 290 160 275 172 q 324 147 306 147 z "},"":{"ha":694,"x_min":24,"x_max":628,"o":"m 78 0 l 78 454 l 24 454 l 24 567 l 78 567 l 78 1021 l 289 1021 q 378 1013 333 1021 q 463 987 422 1006 q 536 937 503 968 q 590 866 569 906 q 619 782 611 826 q 628 692 628 738 l 628 329 q 619 239 628 283 q 590 155 611 194 q 536 84 569 115 q 463 34 503 53 q 378 8 422 15 q 288 0 333 0 l 78 0 m 268 158 l 289 158 q 351 170 321 158 q 402 207 382 182 q 430 264 422 232 q 438 329 438 296 l 438 693 q 430 757 438 725 q 402 814 422 789 q 351 851 382 839 q 288 863 321 863 l 268 863 l 268 567 l 371 567 l 371 454 l 268 454 l 268 158 z "},"":{"ha":694,"x_min":67,"x_max":671,"o":"m 258 -11 q 194 1 225 -11 q 141 35 164 13 q 103 88 118 58 q 81 149 89 118 q 69 213 72 181 q 67 278 67 246 l 67 444 q 69 509 67 476 q 81 573 72 542 q 103 634 89 604 q 141 687 118 664 q 194 722 164 710 q 258 733 225 733 q 315 724 286 733 q 365 697 343 715 q 401 653 386 678 q 426 600 417 628 l 426 815 l 307 815 l 307 928 l 426 928 l 426 1021 l 617 1021 l 617 928 l 671 928 l 671 815 l 617 815 l 617 0 l 426 0 l 426 122 q 401 69 417 94 q 365 26 386 44 q 315 -2 343 7 q 258 -11 286 -11 m 342 147 q 383 160 364 147 q 411 192 401 172 q 424 234 421 213 q 426 278 426 256 l 426 444 q 424 488 426 467 q 411 530 421 510 q 383 563 401 550 q 342 575 364 575 q 301 563 319 575 q 272 530 282 550 q 260 488 263 510 q 257 444 257 467 l 257 278 q 260 234 257 256 q 272 192 263 213 q 301 160 282 172 q 342 147 319 147 z "},"":{"ha":694,"x_min":89,"x_max":617,"o":"m 89 0 l 89 1021 l 617 1021 l 617 863 l 279 863 l 279 610 l 536 610 l 536 451 l 279 451 l 279 158 l 617 158 l 617 0 l 89 0 m 139 1169 l 139 1289 l 556 1289 l 556 1169 l 139 1169 z "},"":{"ha":694,"x_min":67,"x_max":628,"o":"m 346 -11 q 270 -4 308 -11 q 199 21 232 3 q 139 67 165 39 q 96 129 113 94 q 73 202 79 164 q 67 278 67 240 l 67 444 q 73 521 67 483 q 96 593 79 558 q 139 656 113 628 q 199 701 165 683 q 271 726 233 719 q 347 733 308 733 q 424 726 386 733 q 495 701 461 719 q 556 656 529 683 q 599 593 582 628 q 622 521 615 558 q 628 444 628 483 l 628 282 l 257 282 l 257 278 q 260 233 257 256 q 274 191 264 211 q 304 159 285 171 q 346 147 324 147 q 379 151 363 147 q 408 165 396 156 q 428 190 421 175 q 435 222 435 206 l 625 222 l 625 221 q 615 154 625 188 q 586 93 606 121 q 540 44 567 65 q 481 11 513 24 q 415 -6 449 -1 q 346 -11 381 -11 m 257 440 l 438 440 l 438 444 q 434 489 438 467 q 420 531 431 511 q 390 563 410 551 q 347 575 369 575 q 305 563 325 575 q 274 531 285 551 q 260 489 264 511 q 257 444 257 467 l 257 440 m 139 871 l 139 990 l 556 990 l 556 871 l 139 871 z "},"":{"ha":694,"x_min":89,"x_max":617,"o":"m 89 0 l 89 1021 l 617 1021 l 617 863 l 279 863 l 279 610 l 536 610 l 536 451 l 279 451 l 279 158 l 617 158 l 617 0 l 89 0 m 347 1132 q 289 1135 318 1132 q 233 1149 260 1139 q 181 1176 206 1158 q 140 1217 157 1193 q 116 1269 124 1240 q 108 1326 108 1297 l 253 1326 q 260 1294 253 1310 q 282 1268 268 1278 q 313 1255 296 1258 q 347 1251 331 1251 q 381 1255 364 1251 q 413 1268 399 1258 q 434 1294 426 1278 q 442 1326 442 1310 l 586 1326 q 578 1269 586 1297 q 554 1217 571 1240 q 513 1176 538 1193 q 462 1149 489 1158 q 406 1135 435 1139 q 347 1132 376 1132 z "},"":{"ha":694,"x_min":67,"x_max":628,"o":"m 346 -11 q 270 -4 308 -11 q 199 21 232 3 q 139 67 165 39 q 96 129 113 94 q 73 202 79 164 q 67 278 67 240 l 67 444 q 73 521 67 483 q 96 593 79 558 q 139 656 113 628 q 199 701 165 683 q 271 726 233 719 q 347 733 308 733 q 424 726 386 733 q 495 701 461 719 q 556 656 529 683 q 599 593 582 628 q 622 521 615 558 q 628 444 628 483 l 628 282 l 257 282 l 257 278 q 260 233 257 256 q 274 191 264 211 q 304 159 285 171 q 346 147 324 147 q 379 151 363 147 q 408 165 396 156 q 428 190 421 175 q 435 222 435 206 l 625 222 l 625 221 q 615 154 625 188 q 586 93 606 121 q 540 44 567 65 q 481 11 513 24 q 415 -6 449 -1 q 346 -11 381 -11 m 257 440 l 438 440 l 438 444 q 434 489 438 467 q 420 531 431 511 q 390 563 410 551 q 347 575 369 575 q 305 563 325 575 q 274 531 285 551 q 260 489 264 511 q 257 444 257 467 l 257 440 m 347 833 q 289 837 318 833 q 233 850 260 840 q 181 877 206 860 q 140 918 157 894 q 116 970 124 942 q 108 1028 108 999 l 253 1028 q 260 995 253 1011 q 282 969 268 979 q 313 956 296 960 q 347 953 331 953 q 381 956 364 953 q 413 969 399 960 q 434 995 426 979 q 442 1028 442 1011 l 586 1028 q 578 970 586 999 q 554 918 571 942 q 513 877 538 894 q 462 850 489 860 q 406 837 435 840 q 347 833 376 833 z "},"":{"ha":694,"x_min":89,"x_max":617,"o":"m 89 0 l 89 1021 l 617 1021 l 617 863 l 279 863 l 279 610 l 536 610 l 536 451 l 279 451 l 279 158 l 617 158 l 617 0 l 89 0 m 347 1104 q 297 1112 322 1104 q 255 1137 272 1119 q 230 1179 238 1154 q 222 1229 222 1204 q 230 1279 222 1254 q 255 1322 238 1304 q 297 1347 272 1339 q 347 1354 322 1354 q 397 1347 372 1354 q 440 1322 422 1339 q 465 1279 457 1304 q 472 1229 472 1254 q 465 1179 472 1204 q 440 1137 457 1154 q 397 1112 422 1119 q 347 1104 372 1104 z "},"":{"ha":694,"x_min":67,"x_max":628,"o":"m 346 -11 q 270 -4 308 -11 q 199 21 232 3 q 139 67 165 39 q 96 129 113 94 q 73 202 79 164 q 67 278 67 240 l 67 444 q 73 521 67 483 q 96 593 79 558 q 139 656 113 628 q 199 701 165 683 q 271 726 233 719 q 347 733 308 733 q 424 726 386 733 q 495 701 461 719 q 556 656 529 683 q 599 593 582 628 q 622 521 615 558 q 628 444 628 483 l 628 282 l 257 282 l 257 278 q 260 233 257 256 q 274 191 264 211 q 304 159 285 171 q 346 147 324 147 q 379 151 363 147 q 408 165 396 156 q 428 190 421 175 q 435 222 435 206 l 625 222 l 625 221 q 615 154 625 188 q 586 93 606 121 q 540 44 567 65 q 481 11 513 24 q 415 -6 449 -1 q 346 -11 381 -11 m 257 440 l 438 440 l 438 444 q 434 489 438 467 q 420 531 431 511 q 390 563 410 551 q 347 575 369 575 q 305 563 325 575 q 274 531 285 551 q 260 489 264 511 q 257 444 257 467 l 257 440 m 347 806 q 297 813 322 806 q 255 838 272 821 q 230 881 238 856 q 222 931 222 906 q 230 981 222 956 q 255 1023 238 1006 q 297 1048 272 1040 q 347 1056 322 1056 q 397 1048 372 1056 q 440 1023 422 1040 q 465 981 457 1006 q 472 931 472 956 q 465 881 472 906 q 440 838 457 856 q 397 813 422 821 q 347 806 372 806 z "},"":{"ha":694,"x_min":89,"x_max":635,"o":"m 89 0 l 89 1021 l 617 1021 l 617 863 l 279 863 l 279 610 l 536 610 l 536 451 l 279 451 l 279 158 l 617 158 l 617 0 l 89 0 m 582 -311 q 538 -307 560 -311 q 493 -296 515 -303 q 451 -278 471 -289 q 417 -249 432 -267 q 394 -210 401 -232 q 386 -165 386 -189 q 396 -110 386 -137 q 422 -58 406 -82 q 461 -15 439 -35 q 508 19 483 4 q 560 42 533 33 q 617 56 588 51 l 617 0 q 582 -23 597 -8 q 556 -56 567 -37 q 538 -93 546 -74 q 531 -133 531 -112 q 536 -158 531 -146 q 551 -176 542 -169 q 574 -187 561 -183 q 599 -190 586 -190 q 616 -189 607 -190 q 635 -185 625 -187 l 635 -304 q 608 -309 621 -307 q 582 -311 596 -311 z "},"":{"ha":694,"x_min":67,"x_max":628,"o":"m 554 -312 q 491 -304 522 -312 q 434 -276 460 -296 q 393 -228 408 -257 q 378 -165 378 -199 q 385 -118 378 -142 q 405 -73 393 -94 q 431 -33 417 -51 q 463 4 446 -14 q 406 -8 435 -4 q 346 -11 376 -11 q 270 -4 308 -11 q 199 21 232 3 q 139 67 165 39 q 96 129 113 94 q 73 202 79 164 q 67 278 67 240 l 67 444 q 73 521 67 483 q 96 593 79 558 q 139 656 113 628 q 199 701 165 683 q 271 726 233 719 q 347 733 308 733 q 424 726 386 733 q 495 701 461 719 q 556 656 529 683 q 599 593 582 628 q 622 521 615 558 q 628 444 628 483 l 628 282 l 257 282 l 257 278 q 260 233 257 256 q 274 191 264 211 q 304 159 285 171 q 346 147 324 147 q 379 151 363 147 q 408 165 396 156 q 428 190 421 175 q 435 222 435 206 l 625 222 l 625 218 q 622 173 625 196 q 615 127 619 150 q 603 82 610 104 q 588 38 596 60 q 569 -4 579 17 q 550 -47 560 -25 q 531 -90 540 -68 q 522 -133 522 -111 q 527 -158 522 -146 q 542 -176 532 -169 q 563 -187 551 -183 q 588 -190 575 -190 q 607 -189 597 -190 q 625 -185 617 -187 l 625 -304 q 590 -310 608 -308 q 554 -312 572 -312 m 257 440 l 438 440 l 438 444 q 434 489 438 467 q 420 531 431 511 q 390 563 410 551 q 347 575 369 575 q 305 563 325 575 q 274 531 285 551 q 260 489 264 511 q 257 444 257 467 l 257 440 z "},"":{"ha":694,"x_min":89,"x_max":617,"o":"m 89 0 l 89 1021 l 617 1021 l 617 863 l 279 863 l 279 610 l 536 610 l 536 451 l 279 451 l 279 158 l 617 158 l 617 0 l 89 0 m 258 1132 l 133 1325 l 217 1379 l 347 1232 l 478 1379 l 561 1325 l 436 1132 l 258 1132 z "},"":{"ha":694,"x_min":67,"x_max":628,"o":"m 346 -11 q 270 -4 308 -11 q 199 21 232 3 q 139 67 165 39 q 96 129 113 94 q 73 202 79 164 q 67 278 67 240 l 67 444 q 73 521 67 483 q 96 593 79 558 q 139 656 113 628 q 199 701 165 683 q 271 726 233 719 q 347 733 308 733 q 424 726 386 733 q 495 701 461 719 q 556 656 529 683 q 599 593 582 628 q 622 521 615 558 q 628 444 628 483 l 628 282 l 257 282 l 257 278 q 260 233 257 256 q 274 191 264 211 q 304 159 285 171 q 346 147 324 147 q 379 151 363 147 q 408 165 396 156 q 428 190 421 175 q 435 222 435 206 l 625 222 l 625 221 q 615 154 625 188 q 586 93 606 121 q 540 44 567 65 q 481 11 513 24 q 415 -6 449 -1 q 346 -11 381 -11 m 257 440 l 438 440 l 438 444 q 434 489 438 467 q 420 531 431 511 q 390 563 410 551 q 347 575 369 575 q 305 563 325 575 q 274 531 285 551 q 260 489 264 511 q 257 444 257 467 l 257 440 m 258 833 l 133 1026 l 217 1081 l 347 933 l 478 1081 l 561 1026 l 436 833 l 258 833 z "},"":{"ha":694,"x_min":67,"x_max":619,"o":"m 258 -11 q 192 3 224 -11 q 138 42 160 17 q 101 99 115 68 q 80 164 88 131 q 69 231 72 197 q 67 299 67 265 l 67 722 q 72 801 67 761 q 93 876 78 840 q 133 944 108 913 q 192 995 158 975 q 265 1024 226 1015 q 343 1032 304 1032 q 417 1026 381 1032 q 485 1002 453 1019 q 544 958 518 985 q 586 899 569 932 q 611 831 603 867 q 619 758 619 794 l 619 750 l 429 750 l 429 753 q 425 794 429 774 q 410 833 421 815 q 382 863 400 851 q 343 874 364 874 q 312 866 326 874 q 288 846 297 858 q 272 818 278 833 q 262 787 265 803 q 258 755 258 771 q 257 722 257 739 l 257 299 q 258 266 257 282 q 262 235 258 250 q 271 204 265 219 q 286 176 276 189 q 310 155 296 163 q 342 147 325 147 q 373 155 358 147 q 397 176 388 163 q 413 203 407 189 q 422 234 418 218 q 426 266 425 250 q 426 299 426 282 l 426 413 l 347 413 l 347 571 l 617 571 l 617 0 l 438 0 l 438 172 q 417 106 431 139 q 381 45 404 72 q 326 3 358 18 q 258 -11 293 -11 m 217 1117 l 133 1171 l 258 1364 l 436 1364 l 561 1171 l 478 1117 l 347 1264 l 217 1117 z "},"":{"ha":694,"x_min":67,"x_max":617,"o":"m 344 -310 q 280 -306 313 -310 q 217 -290 247 -301 q 160 -258 186 -278 q 114 -212 133 -239 q 85 -154 94 -186 q 75 -90 75 -122 l 265 -90 q 272 -117 265 -104 q 291 -138 279 -131 q 317 -149 303 -146 q 344 -151 331 -151 q 385 -138 367 -151 q 412 -106 403 -125 q 424 -65 421 -86 q 426 -21 426 -43 l 426 122 q 401 69 417 94 q 365 26 386 44 q 315 -2 343 7 q 258 -11 286 -11 q 194 1 225 -11 q 141 35 164 13 q 103 88 118 58 q 81 149 89 118 q 69 213 72 181 q 67 278 67 246 l 67 444 q 69 509 67 476 q 81 573 72 542 q 103 634 89 604 q 141 687 118 664 q 194 722 164 710 q 258 733 225 733 q 315 724 286 733 q 365 697 343 715 q 401 653 386 678 q 426 600 417 628 l 426 722 l 617 722 l 617 -21 q 611 -96 617 -58 q 590 -167 606 -133 q 548 -230 574 -201 q 490 -277 522 -258 q 419 -303 457 -296 q 344 -310 382 -310 m 342 147 q 383 160 364 147 q 411 192 401 172 q 424 234 421 213 q 426 278 426 256 l 426 444 q 424 488 426 467 q 411 530 421 510 q 383 563 401 550 q 342 575 364 575 q 301 563 319 575 q 272 530 282 550 q 260 488 263 510 q 257 444 257 467 l 257 278 q 260 234 257 256 q 272 192 263 213 q 301 160 282 172 q 342 147 319 147 m 217 818 l 133 872 l 258 1065 l 436 1065 l 561 872 l 478 818 l 347 965 l 217 818 z "},"":{"ha":694,"x_min":67,"x_max":619,"o":"m 258 -11 q 192 3 224 -11 q 138 42 160 17 q 101 99 115 68 q 80 164 88 131 q 69 231 72 197 q 67 299 67 265 l 67 722 q 72 801 67 761 q 93 876 78 840 q 133 944 108 913 q 192 995 158 975 q 265 1024 226 1015 q 343 1032 304 1032 q 417 1026 381 1032 q 485 1002 453 1019 q 544 958 518 985 q 586 899 569 932 q 611 831 603 867 q 619 758 619 794 l 619 750 l 429 750 l 429 753 q 425 794 429 774 q 410 833 421 815 q 382 863 400 851 q 343 874 364 874 q 312 866 326 874 q 288 846 297 858 q 272 818 278 833 q 262 787 265 803 q 258 755 258 771 q 257 722 257 739 l 257 299 q 258 266 257 282 q 262 235 258 250 q 271 204 265 219 q 286 176 276 189 q 310 155 296 163 q 342 147 325 147 q 373 155 358 147 q 397 176 388 163 q 413 203 407 189 q 422 234 418 218 q 426 266 425 250 q 426 299 426 282 l 426 413 l 347 413 l 347 571 l 617 571 l 617 0 l 438 0 l 438 172 q 417 106 431 139 q 381 45 404 72 q 326 3 358 18 q 258 -11 293 -11 m 347 1132 q 289 1135 318 1132 q 233 1149 260 1139 q 181 1176 206 1158 q 140 1217 157 1193 q 116 1269 124 1240 q 108 1326 108 1297 l 253 1326 q 260 1294 253 1310 q 282 1268 268 1278 q 313 1255 296 1258 q 347 1251 331 1251 q 381 1255 364 1251 q 413 1268 399 1258 q 434 1294 426 1278 q 442 1326 442 1310 l 586 1326 q 578 1269 586 1297 q 554 1217 571 1240 q 513 1176 538 1193 q 462 1149 489 1158 q 406 1135 435 1139 q 347 1132 376 1132 z "},"":{"ha":694,"x_min":67,"x_max":617,"o":"m 344 -310 q 280 -306 313 -310 q 217 -290 247 -301 q 160 -258 186 -278 q 114 -212 133 -239 q 85 -154 94 -186 q 75 -90 75 -122 l 265 -90 q 272 -117 265 -104 q 291 -138 279 -131 q 317 -149 303 -146 q 344 -151 331 -151 q 385 -138 367 -151 q 412 -106 403 -125 q 424 -65 421 -86 q 426 -21 426 -43 l 426 122 q 401 69 417 94 q 365 26 386 44 q 315 -2 343 7 q 258 -11 286 -11 q 194 1 225 -11 q 141 35 164 13 q 103 88 118 58 q 81 149 89 118 q 69 213 72 181 q 67 278 67 246 l 67 444 q 69 509 67 476 q 81 573 72 542 q 103 634 89 604 q 141 687 118 664 q 194 722 164 710 q 258 733 225 733 q 315 724 286 733 q 365 697 343 715 q 401 653 386 678 q 426 600 417 628 l 426 722 l 617 722 l 617 -21 q 611 -96 617 -58 q 590 -167 606 -133 q 548 -230 574 -201 q 490 -277 522 -258 q 419 -303 457 -296 q 344 -310 382 -310 m 342 147 q 383 160 364 147 q 411 192 401 172 q 424 234 421 213 q 426 278 426 256 l 426 444 q 424 488 426 467 q 411 530 421 510 q 383 563 401 550 q 342 575 364 575 q 301 563 319 575 q 272 530 282 550 q 260 488 263 510 q 257 444 257 467 l 257 278 q 260 234 257 256 q 272 192 263 213 q 301 160 282 172 q 342 147 319 147 m 347 833 q 289 837 318 833 q 233 850 260 840 q 181 877 206 860 q 140 918 157 894 q 116 970 124 942 q 108 1028 108 999 l 253 1028 q 260 995 253 1011 q 282 969 268 979 q 313 956 296 960 q 347 953 331 953 q 381 956 364 953 q 413 969 399 960 q 434 995 426 979 q 442 1028 442 1011 l 586 1028 q 578 970 586 999 q 554 918 571 942 q 513 877 538 894 q 462 850 489 860 q 406 837 435 840 q 347 833 376 833 z "},"":{"ha":694,"x_min":67,"x_max":619,"o":"m 258 -11 q 192 3 224 -11 q 138 42 160 17 q 101 99 115 68 q 80 164 88 131 q 69 231 72 197 q 67 299 67 265 l 67 722 q 72 801 67 761 q 93 876 78 840 q 133 944 108 913 q 192 995 158 975 q 265 1024 226 1015 q 343 1032 304 1032 q 417 1026 381 1032 q 485 1002 453 1019 q 544 958 518 985 q 586 899 569 932 q 611 831 603 867 q 619 758 619 794 l 619 750 l 429 750 l 429 753 q 425 794 429 774 q 410 833 421 815 q 382 863 400 851 q 343 874 364 874 q 312 866 326 874 q 288 846 297 858 q 272 818 278 833 q 262 787 265 803 q 258 755 258 771 q 257 722 257 739 l 257 299 q 258 266 257 282 q 262 235 258 250 q 271 204 265 219 q 286 176 276 189 q 310 155 296 163 q 342 147 325 147 q 373 155 358 147 q 397 176 388 163 q 413 203 407 189 q 422 234 418 218 q 426 266 425 250 q 426 299 426 282 l 426 413 l 347 413 l 347 571 l 617 571 l 617 0 l 438 0 l 438 172 q 417 106 431 139 q 381 45 404 72 q 326 3 358 18 q 258 -11 293 -11 m 347 1104 q 297 1112 322 1104 q 255 1137 272 1119 q 230 1179 238 1154 q 222 1229 222 1204 q 230 1279 222 1254 q 255 1322 238 1304 q 297 1347 272 1339 q 347 1354 322 1354 q 397 1347 372 1354 q 440 1322 422 1339 q 465 1279 457 1304 q 472 1229 472 1254 q 465 1179 472 1204 q 440 1137 457 1154 q 397 1112 422 1119 q 347 1104 372 1104 z "},"":{"ha":694,"x_min":67,"x_max":617,"o":"m 344 -310 q 280 -306 313 -310 q 217 -290 247 -301 q 160 -258 186 -278 q 114 -212 133 -239 q 85 -154 94 -186 q 75 -90 75 -122 l 265 -90 q 272 -117 265 -104 q 291 -138 279 -131 q 317 -149 303 -146 q 344 -151 331 -151 q 385 -138 367 -151 q 412 -106 403 -125 q 424 -65 421 -86 q 426 -21 426 -43 l 426 122 q 401 69 417 94 q 365 26 386 44 q 315 -2 343 7 q 258 -11 286 -11 q 194 1 225 -11 q 141 35 164 13 q 103 88 118 58 q 81 149 89 118 q 69 213 72 181 q 67 278 67 246 l 67 444 q 69 509 67 476 q 81 573 72 542 q 103 634 89 604 q 141 687 118 664 q 194 722 164 710 q 258 733 225 733 q 315 724 286 733 q 365 697 343 715 q 401 653 386 678 q 426 600 417 628 l 426 722 l 617 722 l 617 -21 q 611 -96 617 -58 q 590 -167 606 -133 q 548 -230 574 -201 q 490 -277 522 -258 q 419 -303 457 -296 q 344 -310 382 -310 m 342 147 q 383 160 364 147 q 411 192 401 172 q 424 234 421 213 q 426 278 426 256 l 426 444 q 424 488 426 467 q 411 530 421 510 q 383 563 401 550 q 342 575 364 575 q 301 563 319 575 q 272 530 282 550 q 260 488 263 510 q 257 444 257 467 l 257 278 q 260 234 257 256 q 272 192 263 213 q 301 160 282 172 q 342 147 319 147 m 347 806 q 297 813 322 806 q 255 838 272 821 q 230 881 238 856 q 222 931 222 906 q 230 981 222 956 q 255 1023 238 1006 q 297 1048 272 1040 q 347 1056 322 1056 q 397 1048 372 1056 q 440 1023 422 1040 q 465 981 457 1006 q 472 931 472 956 q 465 881 472 906 q 440 838 457 856 q 397 813 422 821 q 347 806 372 806 z "},"":{"ha":694,"x_min":67,"x_max":619,"o":"m 258 -11 q 192 3 224 -11 q 138 42 160 17 q 101 99 115 68 q 80 164 88 131 q 69 231 72 197 q 67 299 67 265 l 67 722 q 72 801 67 761 q 93 876 78 840 q 133 944 108 913 q 192 995 158 975 q 265 1024 226 1015 q 343 1032 304 1032 q 417 1026 381 1032 q 485 1002 453 1019 q 544 958 518 985 q 586 899 569 932 q 611 831 603 867 q 619 758 619 794 l 619 750 l 429 750 l 429 753 q 425 794 429 774 q 410 833 421 815 q 382 863 400 851 q 343 874 364 874 q 312 866 326 874 q 288 846 297 858 q 272 818 278 833 q 262 787 265 803 q 258 755 258 771 q 257 722 257 739 l 257 299 q 258 266 257 282 q 262 235 258 250 q 271 204 265 219 q 286 176 276 189 q 310 155 296 163 q 342 147 325 147 q 373 155 358 147 q 397 176 388 163 q 413 203 407 189 q 422 234 418 218 q 426 266 425 250 q 426 299 426 282 l 426 413 l 347 413 l 347 571 l 617 571 l 617 0 l 438 0 l 438 172 q 417 106 431 139 q 381 45 404 72 q 326 3 358 18 q 258 -11 293 -11 m 331 -364 l 267 -303 q 297 -267 285 -287 q 318 -225 310 -247 q 295 -215 306 -222 q 278 -197 285 -207 q 269 -174 272 -186 q 267 -149 267 -161 q 272 -117 267 -132 q 288 -90 276 -101 q 315 -73 300 -78 q 347 -68 331 -68 q 379 -73 364 -68 q 406 -90 394 -78 q 423 -117 418 -101 q 428 -149 428 -132 q 422 -209 428 -179 q 403 -267 415 -239 q 372 -319 390 -294 q 331 -364 354 -344 z "},"":{"ha":694,"x_min":67,"x_max":617,"o":"m 344 -310 q 280 -306 313 -310 q 217 -290 247 -301 q 160 -258 186 -278 q 114 -212 133 -239 q 85 -154 94 -186 q 75 -90 75 -122 l 265 -90 q 272 -117 265 -104 q 291 -138 279 -131 q 317 -149 303 -146 q 344 -151 331 -151 q 385 -138 367 -151 q 412 -106 403 -125 q 424 -65 421 -86 q 426 -21 426 -43 l 426 122 q 401 69 417 94 q 365 26 386 44 q 315 -2 343 7 q 258 -11 286 -11 q 194 1 225 -11 q 141 35 164 13 q 103 88 118 58 q 81 149 89 118 q 69 213 72 181 q 67 278 67 246 l 67 444 q 69 509 67 476 q 81 573 72 542 q 103 634 89 604 q 141 687 118 664 q 194 722 164 710 q 258 733 225 733 q 315 724 286 733 q 365 697 343 715 q 401 653 386 678 q 426 600 417 628 l 426 722 l 617 722 l 617 -21 q 611 -96 617 -58 q 590 -167 606 -133 q 548 -230 574 -201 q 490 -277 522 -258 q 419 -303 457 -296 q 344 -310 382 -310 m 342 147 q 383 160 364 147 q 411 192 401 172 q 424 234 421 213 q 426 278 426 256 l 426 444 q 424 488 426 467 q 411 530 421 510 q 383 563 401 550 q 342 575 364 575 q 301 563 319 575 q 272 530 282 550 q 260 488 263 510 q 257 444 257 467 l 257 278 q 260 234 257 256 q 272 192 263 213 q 301 160 282 172 q 342 147 319 147 m 347 790 q 315 795 331 790 q 288 812 300 800 q 272 839 276 824 q 267 871 267 854 q 273 931 267 901 q 292 989 279 961 q 322 1042 304 1017 q 364 1086 340 1067 l 428 1025 q 397 990 410 1010 q 376 947 385 969 q 399 937 389 944 q 416 919 410 929 q 425 896 422 908 q 428 871 428 883 q 423 839 428 854 q 406 812 418 824 q 379 795 394 800 q 347 790 364 790 z "},"":{"ha":694,"x_min":78,"x_max":617,"o":"m 78 0 l 78 1021 l 268 1021 l 268 601 l 426 601 l 426 1021 l 617 1021 l 617 0 l 426 0 l 426 443 l 268 443 l 268 0 l 78 0 m 217 1117 l 133 1171 l 258 1364 l 436 1364 l 561 1171 l 478 1117 l 347 1264 l 217 1117 z "},"":{"ha":694,"x_min":-42,"x_max":617,"o":"m 78 0 l 78 1021 l 268 1021 l 268 603 q 291 653 276 629 q 327 697 306 678 q 376 724 349 715 q 431 733 403 733 q 493 721 463 733 q 546 685 524 708 q 582 633 568 663 q 603 572 596 603 q 614 508 611 540 q 617 444 617 476 l 617 0 l 426 0 l 426 444 q 424 487 426 465 q 413 528 421 508 q 386 561 404 547 q 347 575 368 575 q 308 561 326 575 q 282 528 290 547 q 271 487 274 508 q 268 444 268 465 l 268 0 l 78 0 m 42 1117 l -42 1171 l 83 1364 l 261 1364 l 386 1171 l 303 1117 l 172 1264 l 42 1117 z "},"":{"ha":694,"x_min":24,"x_max":671,"o":"m 78 0 l 78 756 l 24 756 l 24 867 l 78 867 l 78 1021 l 268 1021 l 268 867 l 426 867 l 426 1021 l 617 1021 l 617 867 l 671 867 l 671 756 l 617 756 l 617 0 l 426 0 l 426 443 l 268 443 l 268 0 l 78 0 m 426 601 l 426 756 l 268 756 l 268 601 l 426 601 z "},"":{"ha":694,"x_min":24,"x_max":617,"o":"m 78 0 l 78 801 l 24 801 l 24 913 l 78 913 l 78 1021 l 268 1021 l 268 913 l 347 913 l 347 801 l 268 801 l 268 603 q 291 653 276 629 q 327 697 306 678 q 376 724 349 715 q 431 733 403 733 q 493 721 463 733 q 546 685 524 708 q 582 633 568 663 q 603 572 596 603 q 614 508 611 540 q 617 444 617 476 l 617 0 l 426 0 l 426 444 q 424 487 426 465 q 413 528 421 508 q 386 561 404 547 q 347 575 368 575 q 308 561 326 575 q 282 528 290 547 q 271 487 274 508 q 268 444 268 465 l 268 0 l 78 0 z "},"":{"ha":694,"x_min":75,"x_max":619,"o":"m 104 0 l 104 158 l 253 158 l 253 863 l 104 863 l 104 1021 l 590 1021 l 590 863 l 442 863 l 442 158 l 590 158 l 590 0 l 104 0 m 426 1128 q 413 1128 419 1128 q 399 1131 406 1129 q 388 1133 393 1132 q 376 1138 382 1135 q 363 1143 369 1140 q 352 1149 357 1146 q 342 1156 347 1153 q 331 1165 336 1160 q 320 1174 325 1169 q 311 1183 315 1178 q 303 1192 307 1188 q 295 1200 299 1196 q 286 1211 292 1204 q 276 1223 281 1218 q 266 1232 271 1228 q 261 1238 261 1236 l 261 1239 q 263 1239 261 1239 l 265 1239 q 269 1238 267 1238 l 275 1238 q 272 1234 275 1236 q 265 1228 269 1232 q 260 1222 261 1224 q 257 1217 258 1219 q 253 1213 256 1215 q 249 1208 251 1211 q 245 1203 247 1206 q 241 1197 243 1200 q 237 1191 239 1194 q 233 1184 235 1188 q 228 1176 231 1181 q 224 1168 226 1172 q 218 1160 221 1164 q 213 1151 215 1156 q 208 1141 211 1146 q 203 1131 206 1136 l 75 1188 q 94 1222 85 1206 q 114 1252 104 1238 q 133 1278 124 1267 q 151 1301 142 1290 q 175 1322 161 1311 q 203 1341 189 1333 q 235 1353 218 1349 q 268 1358 251 1358 q 282 1358 275 1358 q 295 1356 289 1357 q 307 1352 301 1354 q 319 1348 313 1350 q 331 1342 325 1346 q 342 1336 338 1339 q 353 1329 347 1333 q 364 1321 358 1325 q 374 1312 369 1317 q 383 1302 379 1307 q 392 1293 388 1297 q 399 1285 396 1289 q 408 1274 403 1281 q 419 1263 414 1268 q 428 1253 424 1258 q 433 1247 433 1249 l 419 1247 q 422 1252 419 1250 q 429 1258 425 1254 q 435 1264 433 1263 q 438 1267 436 1265 q 441 1272 439 1269 q 445 1277 443 1275 q 449 1282 447 1279 q 453 1288 451 1285 q 458 1295 456 1292 q 462 1302 460 1299 q 466 1309 464 1306 q 471 1317 468 1313 q 476 1326 474 1321 q 481 1335 479 1331 q 486 1344 483 1339 q 492 1354 489 1350 l 619 1299 q 600 1263 610 1279 q 581 1233 590 1247 q 562 1208 571 1219 q 543 1185 553 1196 q 519 1163 533 1175 q 491 1144 506 1151 q 460 1132 476 1136 q 426 1128 443 1128 z "},"":{"ha":694,"x_min":75,"x_max":619,"o":"m 104 0 l 104 158 l 263 158 l 263 564 l 124 564 l 124 722 l 451 722 l 451 158 l 590 158 l 590 0 l 104 0 m 426 829 q 413 830 419 829 q 399 832 406 831 q 388 835 393 833 q 376 839 382 836 q 363 844 369 842 q 352 851 357 847 q 342 858 347 854 q 331 866 336 861 q 320 875 325 871 q 311 884 315 879 q 303 893 307 889 q 295 901 299 897 q 286 913 292 906 q 276 924 281 919 q 266 933 271 929 q 261 939 261 938 l 261 940 q 263 940 261 940 l 265 940 q 269 939 267 939 l 275 939 q 272 935 275 938 q 265 929 269 933 q 260 923 261 925 q 257 919 258 921 q 253 915 256 917 q 249 910 251 913 q 245 904 247 907 q 241 899 243 901 q 237 892 239 896 q 233 885 235 889 q 228 878 231 882 q 224 869 226 874 q 218 861 221 865 q 213 852 215 857 q 208 842 211 847 q 203 832 206 838 l 75 889 q 94 923 85 907 q 114 953 104 939 q 133 980 124 968 q 151 1002 142 992 q 175 1024 161 1013 q 203 1042 189 1035 q 235 1055 218 1050 q 268 1060 251 1060 q 282 1059 275 1060 q 295 1057 289 1058 q 307 1053 301 1056 q 319 1049 313 1051 q 331 1044 325 1047 q 342 1038 338 1040 q 353 1031 347 1035 q 364 1022 358 1026 q 374 1013 369 1018 q 383 1003 379 1008 q 392 994 388 999 q 399 986 396 990 q 408 976 403 982 q 419 965 414 969 q 428 955 424 960 q 433 949 433 950 l 419 949 q 422 953 419 951 q 429 960 425 956 q 435 965 433 964 q 438 969 436 967 q 441 974 439 971 q 445 978 443 976 q 449 983 447 981 q 453 990 451 986 q 458 997 456 993 q 462 1003 460 1000 q 466 1010 464 1007 q 471 1018 468 1014 q 476 1027 474 1022 q 481 1036 479 1032 q 486 1046 483 1040 q 492 1056 489 1051 l 619 1000 q 600 965 610 981 q 581 935 590 949 q 562 909 571 921 q 543 887 553 897 q 519 865 533 876 q 491 845 506 853 q 460 833 476 838 q 426 829 443 829 z "},"":{"ha":694,"x_min":104,"x_max":590,"o":"m 104 0 l 104 158 l 253 158 l 253 863 l 104 863 l 104 1021 l 590 1021 l 590 863 l 442 863 l 442 158 l 590 158 l 590 0 l 104 0 m 139 1169 l 139 1289 l 556 1289 l 556 1169 l 139 1169 z "},"":{"ha":694,"x_min":104,"x_max":590,"o":"m 104 0 l 104 158 l 263 158 l 263 564 l 124 564 l 124 722 l 451 722 l 451 158 l 590 158 l 590 0 l 104 0 m 139 871 l 139 990 l 556 990 l 556 871 l 139 871 z "},"":{"ha":694,"x_min":104,"x_max":590,"o":"m 104 0 l 104 158 l 253 158 l 253 863 l 104 863 l 104 1021 l 590 1021 l 590 863 l 442 863 l 442 158 l 590 158 l 590 0 l 104 0 m 347 1132 q 289 1135 318 1132 q 233 1149 260 1139 q 181 1176 206 1158 q 140 1217 157 1193 q 116 1269 124 1240 q 108 1326 108 1297 l 253 1326 q 260 1294 253 1310 q 282 1268 268 1278 q 313 1255 296 1258 q 347 1251 331 1251 q 381 1255 364 1251 q 413 1268 399 1258 q 434 1294 426 1278 q 442 1326 442 1310 l 586 1326 q 578 1269 586 1297 q 554 1217 571 1240 q 513 1176 538 1193 q 462 1149 489 1158 q 406 1135 435 1139 q 347 1132 376 1132 z "},"":{"ha":694,"x_min":104,"x_max":590,"o":"m 104 0 l 104 158 l 263 158 l 263 564 l 124 564 l 124 722 l 451 722 l 451 158 l 590 158 l 590 0 l 104 0 m 347 833 q 289 837 318 833 q 233 850 260 840 q 181 877 206 860 q 140 918 157 894 q 116 970 124 942 q 108 1028 108 999 l 253 1028 q 260 995 253 1011 q 282 969 268 979 q 313 956 296 960 q 347 953 331 953 q 381 956 364 953 q 413 969 399 960 q 434 995 426 979 q 442 1028 442 1011 l 586 1028 q 578 970 586 999 q 554 918 571 942 q 513 877 538 894 q 462 850 489 860 q 406 837 435 840 q 347 833 376 833 z "},"":{"ha":694,"x_min":104,"x_max":608,"o":"m 104 0 l 104 158 l 253 158 l 253 863 l 104 863 l 104 1021 l 590 1021 l 590 863 l 442 863 l 442 158 l 590 158 l 590 0 l 104 0 m 556 -311 q 511 -307 533 -311 q 467 -296 489 -303 q 425 -278 444 -289 q 390 -249 406 -267 q 367 -210 375 -232 q 360 -165 360 -189 q 369 -110 360 -137 q 396 -58 379 -82 q 435 -15 413 -35 q 482 19 457 4 q 534 42 507 33 q 590 56 561 51 l 590 0 q 556 -23 571 -8 q 530 -56 540 -37 q 512 -93 519 -74 q 504 -133 504 -112 q 510 -158 504 -146 q 525 -176 515 -169 q 547 -187 535 -183 q 572 -190 560 -190 q 590 -189 581 -190 q 608 -185 599 -187 l 608 -304 q 582 -309 594 -307 q 556 -311 569 -311 z "},"":{"ha":694,"x_min":104,"x_max":608,"o":"m 104 0 l 104 158 l 263 158 l 263 564 l 124 564 l 124 722 l 451 722 l 451 158 l 590 158 l 590 0 l 104 0 m 354 806 q 304 813 329 806 q 262 838 279 821 q 237 881 244 856 q 229 931 229 906 q 237 981 229 956 q 262 1023 244 1006 q 304 1048 279 1040 q 354 1056 329 1056 q 404 1048 379 1056 q 447 1023 429 1040 q 472 981 464 1006 q 479 931 479 956 q 472 881 479 906 q 447 838 464 856 q 404 813 429 821 q 354 806 379 806 m 556 -311 q 511 -307 533 -311 q 467 -296 489 -303 q 425 -278 444 -289 q 390 -249 406 -267 q 367 -210 375 -232 q 360 -165 360 -189 q 369 -110 360 -137 q 396 -58 379 -82 q 435 -15 413 -35 q 482 19 457 4 q 534 42 507 33 q 590 56 561 51 l 590 0 q 556 -23 571 -8 q 530 -56 540 -37 q 512 -93 519 -74 q 504 -133 504 -112 q 510 -158 504 -146 q 525 -176 515 -169 q 547 -187 535 -183 q 572 -190 560 -190 q 590 -189 581 -190 q 608 -185 599 -187 l 608 -304 q 582 -309 594 -307 q 556 -311 569 -311 z "},"":{"ha":694,"x_min":104,"x_max":590,"o":"m 104 0 l 104 158 l 253 158 l 253 863 l 104 863 l 104 1021 l 590 1021 l 590 863 l 442 863 l 442 158 l 590 158 l 590 0 l 104 0 m 347 1104 q 297 1112 322 1104 q 255 1137 272 1119 q 230 1179 238 1154 q 222 1229 222 1204 q 230 1279 222 1254 q 255 1322 238 1304 q 297 1347 272 1339 q 347 1354 322 1354 q 397 1347 372 1354 q 440 1322 422 1339 q 465 1279 457 1304 q 472 1229 472 1254 q 465 1179 472 1204 q 440 1137 457 1154 q 397 1112 422 1119 q 347 1104 372 1104 z "},"":{"ha":694,"x_min":104,"x_max":590,"o":"m 104 0 l 104 158 l 263 158 l 263 564 l 124 564 l 124 722 l 451 722 l 451 158 l 590 158 l 590 0 l 104 0 z "},"":{"ha":694,"x_min":56,"x_max":639,"o":"m 311 -11 q 241 -4 276 -11 q 176 21 206 3 q 122 66 146 39 q 84 126 99 93 q 63 193 69 158 q 56 263 56 228 l 56 271 l 246 271 l 246 268 q 248 230 246 249 q 257 193 250 211 q 278 161 264 175 q 311 147 292 147 q 338 158 326 147 q 357 181 350 168 q 367 209 364 194 q 374 238 371 224 q 377 268 376 253 q 378 299 378 283 l 378 863 l 229 863 l 229 1021 l 567 1021 l 567 299 q 563 223 567 261 q 545 149 558 185 q 509 82 532 114 q 455 28 486 50 q 387 -2 424 7 q 311 -11 350 -11 m 294 1117 l 211 1171 l 336 1364 l 514 1364 l 639 1171 l 556 1117 l 425 1264 l 294 1117 z "},"":{"ha":694,"x_min":-12,"x_max":639,"o":"m 257 -310 q 190 -305 224 -310 q 124 -286 156 -300 q 67 -250 93 -272 q 23 -199 40 -228 q -3 -136 6 -169 q -12 -69 -12 -103 l 176 -69 q 182 -101 176 -86 q 199 -128 188 -117 q 226 -146 210 -140 q 257 -151 242 -151 q 288 -144 274 -151 q 311 -123 301 -136 q 326 -94 321 -110 q 335 -63 332 -79 q 339 -32 338 -47 q 340 0 340 -17 l 340 564 l 192 564 l 192 722 l 529 722 l 529 0 q 524 -78 529 -39 q 504 -153 519 -117 q 465 -220 489 -189 q 407 -272 440 -251 q 335 -301 374 -293 q 257 -310 296 -310 m 293 818 l 210 872 l 335 1065 l 513 1065 l 638 872 l 554 818 l 424 965 l 293 818 z "},"":{"ha":694,"x_min":100,"x_max":644,"o":"m 446 0 l 308 368 l 289 332 l 289 0 l 100 0 l 100 1021 l 289 1021 l 289 676 l 443 1021 l 644 1021 l 404 554 l 644 0 l 446 0 m 331 -364 l 267 -303 q 297 -267 285 -287 q 318 -225 310 -247 q 295 -215 306 -222 q 278 -197 285 -207 q 269 -174 272 -186 q 267 -149 267 -161 q 272 -117 267 -132 q 288 -90 276 -101 q 315 -73 300 -78 q 347 -68 331 -68 q 379 -73 364 -68 q 406 -90 394 -78 q 423 -117 418 -101 q 428 -149 428 -132 q 422 -209 428 -179 q 403 -267 415 -239 q 372 -319 390 -294 q 331 -364 354 -344 z "},"":{"ha":694,"x_min":100,"x_max":647,"o":"m 442 0 l 322 242 l 289 192 l 289 0 l 100 0 l 100 1021 l 289 1021 l 289 467 l 438 722 l 647 722 l 424 390 l 647 0 l 442 0 m 331 -364 l 267 -303 q 297 -267 285 -287 q 318 -225 310 -247 q 295 -215 306 -222 q 278 -197 285 -207 q 269 -174 272 -186 q 267 -149 267 -161 q 272 -117 267 -132 q 288 -90 276 -101 q 315 -73 300 -78 q 347 -68 331 -68 q 379 -73 364 -68 q 406 -90 394 -78 q 423 -117 418 -101 q 428 -149 428 -132 q 422 -209 428 -179 q 403 -267 415 -239 q 372 -319 390 -294 q 331 -364 354 -344 z "},"":{"ha":694,"x_min":100,"x_max":647,"o":"m 442 0 l 322 242 l 289 192 l 289 0 l 100 0 l 100 722 l 289 722 l 289 467 l 438 722 l 647 722 l 424 390 l 647 0 l 442 0 z "},"":{"ha":694,"x_min":99,"x_max":625,"o":"m 117 0 l 117 1021 l 307 1021 l 307 158 l 625 158 l 625 0 l 117 0 m 192 1094 l 99 1169 l 275 1372 l 390 1281 l 192 1094 z "},"":{"ha":694,"x_min":104,"x_max":590,"o":"m 104 0 l 104 158 l 263 158 l 263 863 l 124 863 l 124 1021 l 451 1021 l 451 158 l 590 158 l 590 0 l 104 0 m 335 1094 l 242 1169 l 418 1372 l 533 1281 l 335 1094 z "},"":{"ha":694,"x_min":117,"x_max":625,"o":"m 117 0 l 117 1021 l 307 1021 l 307 158 l 625 158 l 625 0 l 117 0 m 331 -364 l 267 -303 q 297 -267 285 -287 q 318 -225 310 -247 q 295 -215 306 -222 q 278 -197 285 -207 q 269 -174 272 -186 q 267 -149 267 -161 q 272 -117 267 -132 q 288 -90 276 -101 q 315 -73 300 -78 q 347 -68 331 -68 q 379 -73 364 -68 q 406 -90 394 -78 q 423 -117 418 -101 q 428 -149 428 -132 q 422 -209 428 -179 q 403 -267 415 -239 q 372 -319 390 -294 q 331 -364 354 -344 z "},"":{"ha":694,"x_min":104,"x_max":590,"o":"m 104 0 l 104 158 l 263 158 l 263 863 l 124 863 l 124 1021 l 451 1021 l 451 158 l 590 158 l 590 0 l 104 0 m 340 -364 l 276 -303 q 307 -267 294 -287 q 328 -225 319 -247 q 305 -215 315 -222 q 288 -197 294 -207 q 279 -174 282 -186 q 276 -149 276 -161 q 281 -117 276 -132 q 298 -90 286 -101 q 325 -73 310 -78 q 357 -68 340 -68 q 389 -73 374 -68 q 416 -90 404 -78 q 433 -117 428 -101 q 438 -149 438 -132 q 431 -209 438 -179 q 413 -267 425 -239 q 382 -319 400 -294 q 340 -364 364 -344 z "},"":{"ha":694,"x_min":117,"x_max":631,"o":"m 533 781 l 469 840 q 500 876 488 857 q 521 918 513 896 q 498 930 508 922 q 481 948 488 938 q 472 971 475 958 q 469 996 469 983 q 474 1027 469 1011 q 491 1055 479 1043 q 518 1072 503 1067 q 550 1076 533 1076 q 582 1072 567 1076 q 609 1055 597 1067 q 626 1027 621 1043 q 631 996 631 1011 q 624 935 631 965 q 606 878 618 906 q 575 825 593 850 q 533 781 557 800 m 117 0 l 117 1021 l 307 1021 l 307 158 l 625 158 l 625 0 l 117 0 z "},"":{"ha":694,"x_min":104,"x_max":679,"o":"m 582 781 l 518 840 q 549 876 536 857 q 569 918 561 896 q 547 930 557 922 q 530 948 536 938 q 521 971 524 958 q 518 996 518 983 q 523 1027 518 1011 q 540 1055 528 1043 q 567 1072 551 1067 q 599 1076 582 1076 q 631 1072 615 1076 q 658 1055 646 1067 q 674 1027 669 1043 q 679 996 679 1011 q 673 935 679 965 q 654 878 667 906 q 624 825 642 850 q 582 781 606 800 m 104 0 l 104 158 l 263 158 l 263 863 l 124 863 l 124 1021 l 451 1021 l 451 158 l 590 158 l 590 0 l 104 0 z "},"":{"ha":694,"x_min":117,"x_max":625,"o":"m 117 0 l 117 1021 l 307 1021 l 307 158 l 625 158 l 625 0 l 117 0 m 475 454 q 421 463 447 454 q 375 490 394 471 q 347 536 356 510 q 339 590 339 563 q 347 644 339 618 q 375 690 356 671 q 421 718 394 710 q 475 726 447 726 q 529 718 503 726 q 575 690 556 710 q 603 644 594 671 q 611 590 611 618 q 603 536 611 563 q 575 490 594 510 q 529 463 556 471 q 475 454 503 454 z "},"":{"ha":694,"x_min":42,"x_max":688,"o":"m 42 0 l 42 158 l 200 158 l 200 863 l 61 863 l 61 1021 l 389 1021 l 389 158 l 528 158 l 528 0 l 42 0 m 551 454 q 497 463 524 454 q 451 490 471 471 q 424 536 432 510 q 415 590 415 563 q 424 644 415 618 q 451 690 432 671 q 497 718 471 710 q 551 726 524 726 q 606 718 579 726 q 651 690 632 710 q 679 644 671 671 q 688 590 688 618 q 679 536 688 563 q 651 490 671 510 q 606 463 632 471 q 551 454 579 454 z "},"":{"ha":694,"x_min":10,"x_max":625,"o":"m 117 0 l 117 467 l 68 443 l 10 542 l 117 596 l 117 1021 l 307 1021 l 307 690 l 399 736 l 457 638 l 307 561 l 307 158 l 625 158 l 625 0 l 117 0 z "},"":{"ha":694,"x_min":104,"x_max":590,"o":"m 104 0 l 104 158 l 263 158 l 263 418 l 192 383 l 133 483 l 263 549 l 263 863 l 124 863 l 124 1021 l 451 1021 l 451 643 l 522 678 l 581 578 l 451 514 l 451 158 l 590 158 l 590 0 l 104 0 z "},"":{"ha":694,"x_min":78,"x_max":617,"o":"m 78 0 l 78 1021 l 249 1021 l 435 440 q 428 526 431 483 q 426 613 426 569 l 426 1021 l 617 1021 l 617 0 l 446 0 l 260 581 q 266 494 264 538 q 268 408 268 451 l 268 0 l 78 0 m 328 1094 l 235 1169 l 411 1372 l 526 1281 l 328 1094 z "},"":{"ha":694,"x_min":78,"x_max":617,"o":"m 78 0 l 78 722 l 268 722 l 268 603 q 291 653 276 629 q 327 697 306 678 q 376 724 349 715 q 431 733 403 733 q 493 721 463 733 q 546 685 524 708 q 582 633 568 663 q 603 572 596 603 q 614 508 611 540 q 617 444 617 476 l 617 0 l 426 0 l 426 444 q 424 487 426 465 q 413 528 421 508 q 386 561 404 547 q 347 575 368 575 q 308 561 326 575 q 282 528 290 547 q 271 487 274 508 q 268 444 268 465 l 268 0 l 78 0 m 328 796 l 235 871 l 411 1074 l 526 982 l 328 796 z "},"":{"ha":694,"x_min":78,"x_max":617,"o":"m 78 0 l 78 1021 l 249 1021 l 435 440 q 428 526 431 483 q 426 613 426 569 l 426 1021 l 617 1021 l 617 0 l 446 0 l 260 581 q 266 494 264 538 q 268 408 268 451 l 268 0 l 78 0 m 331 -364 l 267 -303 q 297 -267 285 -287 q 318 -225 310 -247 q 295 -215 306 -222 q 278 -197 285 -207 q 269 -174 272 -186 q 267 -149 267 -161 q 272 -117 267 -132 q 288 -90 276 -101 q 315 -73 300 -78 q 347 -68 331 -68 q 379 -73 364 -68 q 406 -90 394 -78 q 423 -117 418 -101 q 428 -149 428 -132 q 422 -209 428 -179 q 403 -267 415 -239 q 372 -319 390 -294 q 331 -364 354 -344 z "},"":{"ha":694,"x_min":78,"x_max":617,"o":"m 78 0 l 78 722 l 268 722 l 268 603 q 291 653 276 629 q 327 697 306 678 q 376 724 349 715 q 431 733 403 733 q 493 721 463 733 q 546 685 524 708 q 582 633 568 663 q 603 572 596 603 q 614 508 611 540 q 617 444 617 476 l 617 0 l 426 0 l 426 444 q 424 487 426 465 q 413 528 421 508 q 386 561 404 547 q 347 575 368 575 q 308 561 326 575 q 282 528 290 547 q 271 487 274 508 q 268 444 268 465 l 268 0 l 78 0 m 331 -364 l 267 -303 q 297 -267 285 -287 q 318 -225 310 -247 q 295 -215 306 -222 q 278 -197 285 -207 q 269 -174 272 -186 q 267 -149 267 -161 q 272 -117 267 -132 q 288 -90 276 -101 q 315 -73 300 -78 q 347 -68 331 -68 q 379 -73 364 -68 q 406 -90 394 -78 q 423 -117 418 -101 q 428 -149 428 -132 q 422 -209 428 -179 q 403 -267 415 -239 q 372 -319 390 -294 q 331 -364 354 -344 z "},"":{"ha":694,"x_min":78,"x_max":617,"o":"m 78 0 l 78 1021 l 249 1021 l 435 440 q 428 526 431 483 q 426 613 426 569 l 426 1021 l 617 1021 l 617 0 l 446 0 l 260 581 q 266 494 264 538 q 268 408 268 451 l 268 0 l 78 0 m 258 1132 l 133 1325 l 217 1379 l 347 1232 l 478 1379 l 561 1325 l 436 1132 l 258 1132 z "},"":{"ha":694,"x_min":78,"x_max":617,"o":"m 78 0 l 78 722 l 268 722 l 268 603 q 291 653 276 629 q 327 697 306 678 q 376 724 349 715 q 431 733 403 733 q 493 721 463 733 q 546 685 524 708 q 582 633 568 663 q 603 572 596 603 q 614 508 611 540 q 617 444 617 476 l 617 0 l 426 0 l 426 444 q 424 487 426 465 q 413 528 421 508 q 386 561 404 547 q 347 575 368 575 q 308 561 326 575 q 282 528 290 547 q 271 487 274 508 q 268 444 268 465 l 268 0 l 78 0 m 258 833 l 133 1026 l 217 1081 l 347 933 l 478 1081 l 561 1026 l 436 833 l 258 833 z "},"":{"ha":694,"x_min":-3,"x_max":617,"o":"m 78 0 l 78 722 l 268 722 l 268 603 q 291 653 276 629 q 327 697 306 678 q 376 724 349 715 q 431 733 403 733 q 493 721 463 733 q 546 685 524 708 q 582 633 568 663 q 603 572 596 603 q 614 508 611 540 q 617 444 617 476 l 617 0 l 426 0 l 426 444 q 424 487 426 465 q 413 528 421 508 q 386 561 404 547 q 347 575 368 575 q 308 561 326 575 q 282 528 290 547 q 271 487 274 508 q 268 444 268 465 l 268 0 l 78 0 m 61 781 l -3 840 q 28 876 15 857 q 49 918 40 896 q 26 930 36 922 q 9 948 15 938 q 0 971 3 958 q -3 996 -3 983 q 2 1027 -3 1011 q 19 1055 7 1043 q 46 1072 31 1067 q 78 1076 61 1076 q 110 1072 94 1076 q 137 1055 125 1067 q 153 1027 149 1043 q 158 996 158 1011 q 152 935 158 965 q 133 878 146 906 q 103 825 121 850 q 61 781 85 800 z "},"":{"ha":694,"x_min":78,"x_max":617,"o":"m 296 -299 l 296 -157 l 313 -157 q 369 -147 342 -157 q 415 -116 396 -137 q 440 -66 433 -94 q 447 -10 447 -37 l 447 0 l 446 0 l 260 581 q 266 494 264 538 q 268 408 268 451 l 268 0 l 78 0 l 78 1021 l 249 1021 l 435 440 q 428 526 431 483 q 426 613 426 569 l 426 1021 l 617 1021 l 617 -10 q 609 -88 617 -49 q 583 -162 601 -128 q 534 -225 564 -197 q 468 -269 504 -253 q 392 -292 432 -286 q 313 -299 353 -299 l 296 -299 z "},"":{"ha":694,"x_min":78,"x_max":617,"o":"m 286 -299 l 286 -140 l 308 -140 q 358 -131 333 -140 q 398 -101 382 -121 q 420 -56 414 -82 q 426 -6 426 -31 l 426 444 q 424 487 426 465 q 413 528 421 508 q 386 561 404 547 q 347 575 368 575 q 308 561 326 575 q 282 528 290 547 q 271 487 274 508 q 268 444 268 465 l 268 0 l 78 0 l 78 722 l 268 722 l 268 603 q 291 653 276 629 q 327 697 306 678 q 376 724 349 715 q 431 733 403 733 q 493 721 463 733 q 546 685 524 708 q 582 633 568 663 q 603 572 596 603 q 614 508 611 540 q 617 444 617 476 l 617 -6 q 609 -85 617 -46 q 582 -160 601 -125 q 532 -224 563 -196 q 465 -269 501 -251 q 389 -292 429 -286 q 308 -299 349 -299 l 286 -299 z "},"":{"ha":694,"x_min":67,"x_max":628,"o":"m 347 -11 q 268 -3 307 -11 q 195 26 229 6 q 135 76 161 46 q 94 144 110 107 q 72 219 78 181 q 67 299 67 258 l 67 722 q 72 801 67 763 q 94 877 78 840 q 135 944 110 914 q 195 995 161 975 q 268 1024 229 1015 q 347 1032 307 1032 q 426 1024 388 1032 q 499 995 465 1015 q 559 944 533 975 q 601 877 585 914 q 622 801 617 840 q 628 722 628 763 l 628 299 q 622 219 628 258 q 601 144 617 181 q 559 76 585 107 q 499 26 533 46 q 426 -3 465 6 q 347 -11 388 -11 m 347 147 q 379 154 364 147 q 405 174 394 161 q 422 201 415 186 q 431 233 428 217 q 436 266 435 250 q 438 299 438 282 l 438 722 q 436 755 438 739 q 431 788 435 771 q 422 819 428 804 q 405 847 415 835 q 379 867 394 860 q 347 874 364 874 q 315 867 331 874 q 290 847 300 860 q 273 819 279 835 q 263 788 267 804 q 258 755 260 771 q 257 722 257 739 l 257 299 q 258 266 257 282 q 263 233 260 250 q 273 201 267 217 q 290 174 279 186 q 315 154 300 161 q 347 147 331 147 m 139 1169 l 139 1289 l 556 1289 l 556 1169 l 139 1169 z "},"":{"ha":694,"x_min":67,"x_max":628,"o":"m 347 -11 q 271 -4 308 -11 q 199 21 233 3 q 139 67 165 39 q 96 129 113 94 q 73 201 79 164 q 67 278 67 239 l 67 444 q 73 521 67 483 q 96 593 79 558 q 139 656 113 628 q 199 701 165 683 q 271 726 233 719 q 347 733 308 733 q 424 726 386 733 q 495 701 461 719 q 556 656 529 683 q 599 593 582 628 q 622 521 615 558 q 628 444 628 483 l 628 278 q 622 201 628 239 q 599 129 615 164 q 556 67 582 94 q 495 21 529 39 q 424 -4 461 3 q 347 -11 386 -11 m 347 147 q 390 159 369 147 q 420 191 410 171 q 434 233 431 211 q 438 278 438 256 l 438 444 q 434 489 438 467 q 420 531 431 511 q 390 563 410 551 q 347 575 369 575 q 305 563 325 575 q 274 531 285 551 q 260 489 264 511 q 257 444 257 467 l 257 278 q 260 233 257 256 q 274 191 264 211 q 305 159 285 171 q 347 147 325 147 m 139 871 l 139 990 l 556 990 l 556 871 l 139 871 z "},"":{"ha":694,"x_min":67,"x_max":628,"o":"m 347 -11 q 268 -3 307 -11 q 195 26 229 6 q 135 76 161 46 q 94 144 110 107 q 72 219 78 181 q 67 299 67 258 l 67 722 q 72 801 67 763 q 94 877 78 840 q 135 944 110 914 q 195 995 161 975 q 268 1024 229 1015 q 347 1032 307 1032 q 426 1024 388 1032 q 499 995 465 1015 q 559 944 533 975 q 601 877 585 914 q 622 801 617 840 q 628 722 628 763 l 628 299 q 622 219 628 258 q 601 144 617 181 q 559 76 585 107 q 499 26 533 46 q 426 -3 465 6 q 347 -11 388 -11 m 347 147 q 379 154 364 147 q 405 174 394 161 q 422 201 415 186 q 431 233 428 217 q 436 266 435 250 q 438 299 438 282 l 438 722 q 436 755 438 739 q 431 788 435 771 q 422 819 428 804 q 405 847 415 835 q 379 867 394 860 q 347 874 364 874 q 315 867 331 874 q 290 847 300 860 q 273 819 279 835 q 263 788 267 804 q 258 755 260 771 q 257 722 257 739 l 257 299 q 258 266 257 282 q 263 233 260 250 q 273 201 267 217 q 290 174 279 186 q 315 154 300 161 q 347 147 331 147 m 347 1132 q 289 1135 318 1132 q 233 1149 260 1139 q 181 1176 206 1158 q 140 1217 157 1193 q 116 1269 124 1240 q 108 1326 108 1297 l 253 1326 q 260 1294 253 1310 q 282 1268 268 1278 q 313 1255 296 1258 q 347 1251 331 1251 q 381 1255 364 1251 q 413 1268 399 1258 q 434 1294 426 1278 q 442 1326 442 1310 l 586 1326 q 578 1269 586 1297 q 554 1217 571 1240 q 513 1176 538 1193 q 462 1149 489 1158 q 406 1135 435 1139 q 347 1132 376 1132 z "},"":{"ha":694,"x_min":67,"x_max":628,"o":"m 347 -11 q 271 -4 308 -11 q 199 21 233 3 q 139 67 165 39 q 96 129 113 94 q 73 201 79 164 q 67 278 67 239 l 67 444 q 73 521 67 483 q 96 593 79 558 q 139 656 113 628 q 199 701 165 683 q 271 726 233 719 q 347 733 308 733 q 424 726 386 733 q 495 701 461 719 q 556 656 529 683 q 599 593 582 628 q 622 521 615 558 q 628 444 628 483 l 628 278 q 622 201 628 239 q 599 129 615 164 q 556 67 582 94 q 495 21 529 39 q 424 -4 461 3 q 347 -11 386 -11 m 347 147 q 390 159 369 147 q 420 191 410 171 q 434 233 431 211 q 438 278 438 256 l 438 444 q 434 489 438 467 q 420 531 431 511 q 390 563 410 551 q 347 575 369 575 q 305 563 325 575 q 274 531 285 551 q 260 489 264 511 q 257 444 257 467 l 257 278 q 260 233 257 256 q 274 191 264 211 q 305 159 285 171 q 347 147 325 147 m 347 833 q 289 837 318 833 q 233 850 260 840 q 181 877 206 860 q 140 918 157 894 q 116 970 124 942 q 108 1028 108 999 l 253 1028 q 260 995 253 1011 q 282 969 268 979 q 313 956 296 960 q 347 953 331 953 q 381 956 364 953 q 413 969 399 960 q 434 995 426 979 q 442 1028 442 1011 l 586 1028 q 578 970 586 999 q 554 918 571 942 q 513 877 538 894 q 462 850 489 860 q 406 837 435 840 q 347 833 376 833 z "},"":{"ha":694,"x_min":67,"x_max":658,"o":"m 347 -11 q 268 -3 307 -11 q 195 26 229 6 q 135 76 161 46 q 94 144 110 107 q 72 219 78 181 q 67 299 67 258 l 67 722 q 72 801 67 763 q 94 877 78 840 q 135 944 110 914 q 195 995 161 975 q 268 1024 229 1015 q 347 1032 307 1032 q 426 1024 388 1032 q 499 995 465 1015 q 559 944 533 975 q 601 877 585 914 q 622 801 617 840 q 628 722 628 763 l 628 299 q 622 219 628 258 q 601 144 617 181 q 559 76 585 107 q 499 26 533 46 q 426 -3 465 6 q 347 -11 388 -11 m 347 147 q 379 154 364 147 q 405 174 394 161 q 422 201 415 186 q 431 233 428 217 q 436 266 435 250 q 438 299 438 282 l 438 722 q 436 755 438 739 q 431 788 435 771 q 422 819 428 804 q 405 847 415 835 q 379 867 394 860 q 347 874 364 874 q 315 867 331 874 q 290 847 300 860 q 273 819 279 835 q 263 788 267 804 q 258 755 260 771 q 257 722 257 739 l 257 299 q 258 266 257 282 q 263 233 260 250 q 273 201 267 217 q 290 174 279 186 q 315 154 300 161 q 347 147 331 147 m 444 1093 l 354 1171 l 550 1374 l 658 1279 l 444 1093 m 208 1093 l 118 1171 l 314 1374 l 422 1279 l 208 1093 z "},"":{"ha":694,"x_min":67,"x_max":658,"o":"m 347 -11 q 271 -4 308 -11 q 199 21 233 3 q 139 67 165 39 q 96 129 113 94 q 73 201 79 164 q 67 278 67 239 l 67 444 q 73 521 67 483 q 96 593 79 558 q 139 656 113 628 q 199 701 165 683 q 271 726 233 719 q 347 733 308 733 q 424 726 386 733 q 495 701 461 719 q 556 656 529 683 q 599 593 582 628 q 622 521 615 558 q 628 444 628 483 l 628 278 q 622 201 628 239 q 599 129 615 164 q 556 67 582 94 q 495 21 529 39 q 424 -4 461 3 q 347 -11 386 -11 m 347 147 q 390 159 369 147 q 420 191 410 171 q 434 233 431 211 q 438 278 438 256 l 438 444 q 434 489 438 467 q 420 531 431 511 q 390 563 410 551 q 347 575 369 575 q 305 563 325 575 q 274 531 285 551 q 260 489 264 511 q 257 444 257 467 l 257 278 q 260 233 257 256 q 274 191 264 211 q 305 159 285 171 q 347 147 325 147 m 444 794 l 354 872 l 550 1075 l 658 981 l 444 794 m 208 794 l 118 872 l 314 1075 l 422 981 l 208 794 z "},"":{"ha":694,"x_min":40,"x_max":643,"o":"m 308 0 l 308 1021 l 643 1021 l 643 892 l 464 892 l 464 596 l 611 596 l 611 467 l 464 467 l 464 129 l 643 129 l 643 0 l 308 0 m 308 0 q 233 8 271 0 q 162 36 194 17 q 105 85 129 56 q 66 150 81 115 q 46 223 51 185 q 40 299 40 261 l 40 722 q 46 798 40 760 q 66 871 51 836 q 105 935 81 906 q 162 985 129 965 q 233 1013 194 1004 q 308 1021 271 1021 l 308 892 q 271 885 289 892 q 240 865 253 878 q 217 834 226 851 q 203 798 208 817 q 197 760 199 779 q 196 722 196 742 l 196 299 q 197 260 196 279 q 203 223 199 242 q 217 187 208 204 q 240 156 226 169 q 271 136 253 143 q 308 129 289 129 l 308 0 z "},"":{"ha":694,"x_min":40,"x_max":654,"o":"m 232 -11 q 179 -6 206 -11 q 130 11 153 -1 q 89 44 107 24 q 60 88 71 64 q 44 138 49 111 q 40 190 40 164 l 40 532 q 44 585 40 558 q 60 635 49 611 q 89 678 71 658 q 130 711 107 699 q 179 728 153 724 q 232 733 206 733 q 292 726 263 733 q 347 703 322 719 q 402 726 372 719 q 463 733 432 733 q 515 728 489 733 q 565 711 542 724 q 606 678 588 699 q 635 635 624 658 q 650 585 646 611 q 654 532 654 558 l 654 296 l 425 296 l 425 190 q 426 168 425 179 q 431 147 428 157 q 442 127 433 136 q 460 118 450 118 q 476 126 469 118 q 485 143 482 135 q 491 160 489 151 q 494 179 493 169 q 496 198 496 189 q 496 217 496 207 l 496 222 l 651 222 l 651 210 q 647 156 651 183 q 633 102 643 128 q 605 54 622 76 q 565 17 588 32 q 515 -5 542 1 q 460 -11 488 -11 q 401 -4 431 -11 q 347 19 372 3 q 292 -4 322 3 q 232 -11 263 -11 m 425 426 l 499 426 l 499 532 q 498 554 499 543 q 493 576 497 565 q 481 595 489 586 q 463 604 474 604 q 443 595 451 604 q 431 576 435 586 q 426 554 428 565 q 425 532 425 543 l 425 426 m 232 118 q 251 127 243 118 q 263 147 260 136 q 268 168 267 157 q 269 190 269 179 l 269 532 q 268 554 269 543 q 263 576 267 565 q 251 595 260 586 q 232 604 243 604 q 213 595 221 604 q 201 576 206 586 q 197 554 197 565 q 196 532 196 543 l 196 190 q 197 168 196 179 q 201 147 197 157 q 213 127 206 136 q 232 118 221 118 z "},"":{"ha":694,"x_min":78,"x_max":650,"o":"m 78 0 l 78 1021 l 353 1021 q 432 1012 393 1021 q 505 981 471 1003 q 563 928 539 960 q 602 858 588 896 q 622 781 617 821 q 628 701 628 742 q 621 613 628 657 q 596 530 614 569 q 547 458 578 490 q 476 407 517 425 l 650 0 l 449 0 l 286 382 l 268 382 l 268 0 l 78 0 m 353 540 q 385 549 369 540 q 409 572 400 558 q 424 602 418 586 q 433 635 429 618 q 437 668 436 651 q 438 701 438 685 q 437 735 438 718 q 433 768 436 751 q 424 801 429 785 q 409 831 418 817 q 385 854 400 846 q 353 863 369 863 l 268 863 l 268 540 l 353 540 m 328 1094 l 235 1169 l 411 1372 l 526 1281 l 328 1094 z "},"":{"ha":694,"x_min":147,"x_max":651,"o":"m 147 0 l 147 722 l 338 722 l 338 575 q 359 633 346 606 q 392 684 372 661 q 440 720 411 707 q 499 733 468 733 q 551 724 525 733 q 595 694 576 714 q 624 649 614 674 q 641 597 635 624 q 649 544 647 571 q 651 490 651 517 l 461 490 q 460 518 461 504 q 453 544 458 532 q 436 566 447 557 q 411 575 425 575 q 380 561 393 575 q 359 530 367 547 q 347 494 351 513 q 341 458 343 476 q 338 420 339 439 q 338 383 338 401 l 338 0 l 147 0 m 333 796 l 240 871 l 417 1074 l 532 982 l 333 796 z "},"":{"ha":694,"x_min":78,"x_max":650,"o":"m 78 0 l 78 1021 l 353 1021 q 432 1012 393 1021 q 505 981 471 1003 q 563 928 539 960 q 602 858 588 896 q 622 781 617 821 q 628 701 628 742 q 621 613 628 657 q 596 530 614 569 q 547 458 578 490 q 476 407 517 425 l 650 0 l 449 0 l 286 382 l 268 382 l 268 0 l 78 0 m 353 540 q 385 549 369 540 q 409 572 400 558 q 424 602 418 586 q 433 635 429 618 q 437 668 436 651 q 438 701 438 685 q 437 735 438 718 q 433 768 436 751 q 424 801 429 785 q 409 831 418 817 q 385 854 400 846 q 353 863 369 863 l 268 863 l 268 540 l 353 540 m 331 -364 l 267 -303 q 297 -267 285 -287 q 318 -225 310 -247 q 295 -215 306 -222 q 278 -197 285 -207 q 269 -174 272 -186 q 267 -149 267 -161 q 272 -117 267 -132 q 288 -90 276 -101 q 315 -73 300 -78 q 347 -68 331 -68 q 379 -73 364 -68 q 406 -90 394 -78 q 423 -117 418 -101 q 428 -149 428 -132 q 422 -209 428 -179 q 403 -267 415 -239 q 372 -319 390 -294 q 331 -364 354 -344 z "},"":{"ha":694,"x_min":147,"x_max":651,"o":"m 147 0 l 147 722 l 338 722 l 338 575 q 359 633 346 606 q 392 684 372 661 q 440 720 411 707 q 499 733 468 733 q 551 724 525 733 q 595 694 576 714 q 624 649 614 674 q 641 597 635 624 q 649 544 647 571 q 651 490 651 517 l 461 490 q 460 518 461 504 q 453 544 458 532 q 436 566 447 557 q 411 575 425 575 q 380 561 393 575 q 359 530 367 547 q 347 494 351 513 q 341 458 343 476 q 338 420 339 439 q 338 383 338 401 l 338 0 l 147 0 m 225 -364 l 161 -303 q 192 -267 179 -287 q 213 -225 204 -247 q 190 -215 200 -222 q 173 -197 179 -207 q 164 -174 167 -186 q 161 -149 161 -161 q 166 -117 161 -132 q 183 -90 171 -101 q 210 -73 194 -78 q 242 -68 225 -68 q 274 -73 258 -68 q 301 -90 289 -78 q 317 -117 313 -101 q 322 -149 322 -132 q 316 -209 322 -179 q 297 -267 310 -239 q 267 -319 285 -294 q 225 -364 249 -344 z "},"":{"ha":694,"x_min":78,"x_max":650,"o":"m 78 0 l 78 1021 l 353 1021 q 432 1012 393 1021 q 505 981 471 1003 q 563 928 539 960 q 602 858 588 896 q 622 781 617 821 q 628 701 628 742 q 621 613 628 657 q 596 530 614 569 q 547 458 578 490 q 476 407 517 425 l 650 0 l 449 0 l 286 382 l 268 382 l 268 0 l 78 0 m 353 540 q 385 549 369 540 q 409 572 400 558 q 424 602 418 586 q 433 635 429 618 q 437 668 436 651 q 438 701 438 685 q 437 735 438 718 q 433 768 436 751 q 424 801 429 785 q 409 831 418 817 q 385 854 400 846 q 353 863 369 863 l 268 863 l 268 540 l 353 540 m 258 1132 l 133 1325 l 217 1379 l 347 1232 l 478 1379 l 561 1325 l 436 1132 l 258 1132 z "},"":{"ha":694,"x_min":138,"x_max":651,"o":"m 147 0 l 147 722 l 338 722 l 338 575 q 359 633 346 606 q 392 684 372 661 q 440 720 411 707 q 499 733 468 733 q 551 724 525 733 q 595 694 576 714 q 624 649 614 674 q 641 597 635 624 q 649 544 647 571 q 651 490 651 517 l 461 490 q 460 518 461 504 q 453 544 458 532 q 436 566 447 557 q 411 575 425 575 q 380 561 393 575 q 359 530 367 547 q 347 494 351 513 q 341 458 343 476 q 338 420 339 439 q 338 383 338 401 l 338 0 l 147 0 m 264 833 l 139 1026 l 222 1081 l 353 933 l 483 1081 l 567 1026 l 442 833 l 264 833 z "},"":{"ha":694,"x_min":64,"x_max":628,"o":"m 346 -11 q 273 -5 310 -11 q 203 17 236 1 q 143 58 171 33 q 98 116 115 83 q 72 184 81 149 q 64 257 64 219 l 64 271 l 254 271 l 254 265 q 259 222 254 243 q 275 184 264 201 q 306 157 286 167 q 346 147 325 147 q 385 156 367 147 q 416 182 404 165 q 433 219 428 199 q 438 258 438 239 q 425 323 438 292 q 390 378 413 354 q 338 418 367 401 q 281 451 310 435 q 226 486 253 467 q 177 529 200 506 q 135 580 154 553 q 103 637 117 607 q 84 699 90 667 q 78 765 78 732 q 85 835 78 800 q 110 903 93 871 q 152 960 126 935 q 210 1003 178 986 q 277 1026 242 1019 q 349 1032 313 1032 q 420 1026 385 1032 q 488 1003 456 1019 q 545 960 519 986 q 588 903 571 935 q 612 835 604 871 q 619 764 619 800 l 619 750 l 429 750 l 429 756 q 426 796 429 776 q 413 833 422 815 q 385 863 403 851 q 349 874 368 874 q 312 864 329 874 q 285 838 294 854 q 272 801 275 821 q 268 763 268 782 q 278 705 268 733 q 307 653 288 676 q 351 614 326 631 q 403 582 376 597 q 490 526 449 557 q 563 452 532 494 q 611 359 594 410 q 628 257 628 308 q 619 184 628 219 q 594 116 611 149 q 549 58 576 83 q 488 17 521 33 q 419 -5 456 1 q 346 -11 382 -11 m 328 1094 l 235 1169 l 411 1372 l 526 1281 l 328 1094 z "},"":{"ha":694,"x_min":75,"x_max":617,"o":"m 346 -11 q 282 -8 314 -11 q 219 6 250 -4 q 162 35 189 17 q 115 78 135 53 q 85 135 96 104 q 75 197 75 165 l 75 208 l 265 208 l 265 206 q 273 179 265 192 q 292 160 281 167 q 318 150 304 153 q 346 147 332 147 q 373 149 360 147 q 398 156 386 151 q 418 172 410 161 q 426 196 426 183 q 415 229 426 214 q 389 255 404 244 q 356 271 374 265 q 322 282 339 276 q 287 294 304 288 q 253 308 269 300 q 221 325 236 315 q 191 346 206 335 q 163 369 176 357 q 139 396 150 382 q 118 426 128 410 q 102 458 108 442 q 92 493 96 475 q 89 529 89 511 q 99 590 89 560 q 127 644 108 619 q 172 688 146 669 q 226 716 197 706 q 287 730 256 726 q 349 733 318 733 q 412 729 381 733 q 472 715 443 725 q 527 686 501 704 q 572 642 553 668 q 599 586 590 617 q 608 525 608 556 l 608 514 l 418 514 l 418 517 q 413 542 418 529 q 397 562 407 554 q 374 572 388 569 q 349 575 361 575 q 324 573 336 575 q 302 565 313 571 q 285 549 292 560 q 279 526 279 539 q 290 493 279 508 q 317 468 301 478 q 349 452 332 458 q 384 440 367 446 q 418 429 401 435 q 451 415 435 424 q 484 398 468 407 q 514 378 500 389 q 541 354 528 367 q 566 327 554 342 q 587 297 578 313 q 603 265 596 282 q 613 230 610 247 q 617 193 617 213 q 606 131 617 163 q 576 76 596 100 q 528 34 556 51 q 472 6 501 17 q 410 -8 442 -4 q 346 -11 378 -11 m 328 796 l 235 871 l 411 1074 l 526 982 l 328 796 z "},"":{"ha":694,"x_min":64,"x_max":628,"o":"m 346 -11 q 273 -5 310 -11 q 203 17 236 1 q 143 58 171 33 q 98 116 115 83 q 72 184 81 149 q 64 257 64 219 l 64 271 l 254 271 l 254 265 q 259 222 254 243 q 275 184 264 201 q 306 157 286 167 q 346 147 325 147 q 385 156 367 147 q 416 182 404 165 q 433 219 428 199 q 438 258 438 239 q 425 323 438 292 q 390 378 413 354 q 338 418 367 401 q 281 451 310 435 q 226 486 253 467 q 177 529 200 506 q 135 580 154 553 q 103 637 117 607 q 84 699 90 667 q 78 765 78 732 q 85 835 78 800 q 110 903 93 871 q 152 960 126 935 q 210 1003 178 986 q 277 1026 242 1019 q 349 1032 313 1032 q 420 1026 385 1032 q 488 1003 456 1019 q 545 960 519 986 q 588 903 571 935 q 612 835 604 871 q 619 764 619 800 l 619 750 l 429 750 l 429 756 q 426 796 429 776 q 413 833 422 815 q 385 863 403 851 q 349 874 368 874 q 312 864 329 874 q 285 838 294 854 q 272 801 275 821 q 268 763 268 782 q 278 705 268 733 q 307 653 288 676 q 351 614 326 631 q 403 582 376 597 q 490 526 449 557 q 563 452 532 494 q 611 359 594 410 q 628 257 628 308 q 619 184 628 219 q 594 116 611 149 q 549 58 576 83 q 488 17 521 33 q 419 -5 456 1 q 346 -11 382 -11 m 217 1117 l 133 1171 l 258 1364 l 436 1364 l 561 1171 l 478 1117 l 347 1264 l 217 1117 z "},"":{"ha":694,"x_min":75,"x_max":617,"o":"m 346 -11 q 282 -8 314 -11 q 219 6 250 -4 q 162 35 189 17 q 115 78 135 53 q 85 135 96 104 q 75 197 75 165 l 75 208 l 265 208 l 265 206 q 273 179 265 192 q 292 160 281 167 q 318 150 304 153 q 346 147 332 147 q 373 149 360 147 q 398 156 386 151 q 418 172 410 161 q 426 196 426 183 q 415 229 426 214 q 389 255 404 244 q 356 271 374 265 q 322 282 339 276 q 287 294 304 288 q 253 308 269 300 q 221 325 236 315 q 191 346 206 335 q 163 369 176 357 q 139 396 150 382 q 118 426 128 410 q 102 458 108 442 q 92 493 96 475 q 89 529 89 511 q 99 590 89 560 q 127 644 108 619 q 172 688 146 669 q 226 716 197 706 q 287 730 256 726 q 349 733 318 733 q 412 729 381 733 q 472 715 443 725 q 527 686 501 704 q 572 642 553 668 q 599 586 590 617 q 608 525 608 556 l 608 514 l 418 514 l 418 517 q 413 542 418 529 q 397 562 407 554 q 374 572 388 569 q 349 575 361 575 q 324 573 336 575 q 302 565 313 571 q 285 549 292 560 q 279 526 279 539 q 290 493 279 508 q 317 468 301 478 q 349 452 332 458 q 384 440 367 446 q 418 429 401 435 q 451 415 435 424 q 484 398 468 407 q 514 378 500 389 q 541 354 528 367 q 566 327 554 342 q 587 297 578 313 q 603 265 596 282 q 613 230 610 247 q 617 193 617 213 q 606 131 617 163 q 576 76 596 100 q 528 34 556 51 q 472 6 501 17 q 410 -8 442 -4 q 346 -11 378 -11 m 217 818 l 133 872 l 258 1065 l 436 1065 l 561 872 l 478 818 l 347 965 l 217 818 z "}}}
